{
.formatVersion = 3;
DisplayStrings = (
"ŵ"
);
classes = (
{
code = "aNko.fina eeNko.fina iNko.fina eNko.fina uNko.fina ooNko.fina oNko.fina dagbasinnaNko.fina nNko.fina baNko.fina paNko.fina taNko.fina jaNko.fina chaNko.fina daNko.fina raNko.fina rraNko.fina saNko.fina gbaNko.fina faNko.fina kaNko.fina laNko.fina nawolosoNko.fina maNko.fina nyaNko.fina naNko.fina haNko.fina waNko.fina yaNko.fina nyawolosoNko.fina jonajaNko.fina jonachaNko.fina jonaraNko.fina";
name = fina;
},
{
code = "uni07CA uni07CB uni07CC uni07CD uni07CE uni07CF uni07D0 uni07D1 uni07D2 uni07D3 uni07D4 uni07D5 uni07D6 uni07D7 uni07D8 uni07D9 uni07DA uni07DB uni07DC uni07DD uni07DE uni07DF uni07E0 uni07E1 uni07E2 uni07E3 uni07E4 uni07E5 uni07E6 uni07E7 uni07E8 uni07E9 uni07EA";
name = fina_init_medi;
},
{
code = "aNko.init eeNko.init iNko.init eNko.init uNko.init ooNko.init oNko.init dagbasinnaNko.init nNko.init baNko.init paNko.init taNko.init jaNko.init chaNko.init daNko.init raNko.init rraNko.init saNko.init gbaNko.init faNko.init kaNko.init laNko.init nawolosoNko.init maNko.init nyaNko.init naNko.init haNko.init waNko.init yaNko.init nyawolosoNko.init jonajaNko.init jonachaNko.init jonaraNko.init";
name = init;
},
{
code = "aNko.medi eeNko.medi iNko.medi eNko.medi uNko.medi ooNko.medi oNko.medi dagbasinnaNko.medi nNko.medi baNko.medi paNko.medi taNko.medi jaNko.medi chaNko.medi daNko.medi raNko.medi rraNko.medi saNko.medi gbaNko.medi faNko.medi kaNko.medi laNko.medi nawolosoNko.medi maNko.medi nyaNko.medi naNko.medi haNko.medi waNko.medi yaNko.medi nyawolosoNko.medi jonajaNko.medi jonachaNko.medi jonaraNko.medi";
name = medi;
},
{
code = "zero one two three four five six seven eight nine";
name = ordn;
}
);
familyName = Nyora;
customParameters = (
{
name = glyphOrder;
value = (
.notdef,
uni0000,
uni000D,
space,
uni0000.1,
uni000D.1,
uni07C0,
uni07C1,
uni07C2,
uni07C3,
uni07C4,
uni07C5,
uni07C6,
uni07C7,
uni07C8,
uni07C9,
uni07CA,
uni07CB,
uni07CC,
uni07CD,
uni07CE,
uni07CF,
uni07D0,

glyphs = (
{
glyphname = uni07C0;
layers = (
{
hints = (
{
horizontal = 1;
place = (-2,102);
type = Stem;
},
{
horizontal = 1;
place = (599,102);
type = Stem;
},
{
place = (95,50);
type = Stem;
},
{
place = (394,50);
type = Stem;
}
);
layerId = "658C8605-6260-49C3-8AFC-BEEEFEF62072";
shapes = (
{
closed = 1;
nodes = (
(95,249,o),
(115,93,o),
(196,27,cs),
(217,9,o),
(242,-2,o),
(270,-2,cs),
(298,-2,o),
(323,9,o),
(344,27,cs),
(425,94,o),
(444,251,o),
(444,350,cs),
(444,449,o),
(425,606,o),
(344,672,cs),
(323,690,o),
(298,701,o),
(270,701,cs),
(169,701,o),
(122,572,o),
(107,490,cs),
(98,443,o),
(95,395,o),
(95,348,cs)
);
},
{
closed = 1;
nodes = (
(145,428,o),
(164,599,o),
(270,599,cs),
(375,599,o),
(394,427,o),
(394,350,cs),
(394,273,o),
(375,100,o),
(270,100,cs),
(164,100,o),
(145,272,o),
(145,350,cs)
);
}
);
width = 539;
}
);
unicode = 1984;
},
{
glyphname = uni07C1;
layers = (
{
hints = (
{
horizontal = 1;
place = (0,102);
type = Stem;
},
{
place = (228,50);
type = Stem;
}
);
layerId = "658C8605-6260-49C3-8AFC-BEEEFEF62072";
shapes = (
{
closed = 1;
nodes = (
(491,495,l),
(336,628,l),
(324,639,o),
(265,696,o),
(253,696,cs),
(234,696,o),
(228,660,o),
(228,645,cs),
(228,102,l),
(84,102,l),
(84,0,l),
(439,0,l),
(439,102,l),
(278,102,l),
(278,568,l),
(471,401,l)
);
}
);
width = 539;
}
);
unicode = 1985;
},
{
glyphname = uni07C2;
layers = (
{
hints = (
{
horizontal = 1;
place = (0,21);
target = up;
type = BottomGhost;
},
{
horizontal = 1;
place = (288,102);
type = Stem;
},
{
place = (134,50);
type = Stem;
},
{
place = (443,50);
type = Stem;
}
);
layerId = "658C8605-6260-49C3-8AFC-BEEEFEF62072";
shapes = (
{
closed = 1;
nodes = (
(443,700,l),
(443,631,o),
(443,561,o),
(443,492,cs),
(443,474,o),
(443,456,o),
(438,438,c),
(428,396,o),
(364,390,o),
(329,390,cs),
(285,390,o),
(223,394,o),
(184,422,c),
(184,700,l),
(134,700,l),
(134,0,l),
(184,0,l),
(184,316,l),
(227,293,o),
(283,288,o),
(329,288,cs),
(473,288,o),
(493,377,o),
(493,500,cs),
(493,700,l)
);
}
);
width = 539;
}
);
unicode = 1986;
},
{
glyphname = uni07C3;
layers = (
{
hints = (
{
horizontal = 1;
place = (0,102);
type = Stem;
},
{
horizontal = 1;
place = (267,102);
type = Stem;
},
{
place = (405,50);
type = Stem;
}
);
layerId = "658C8605-6260-49C3-8AFC-BEEEFEF62072";
shapes = (
{
closed = 1;
nodes = (
(405,700,l),
(405,369,l),
(168,369,l),
(168,267,l),
(405,267,l),
(405,102,l),
(158,102,l),
(158,0,l),
(430,0,ls),
(450,0,o),
(455,36,o),
(455,51,cs),
(455,700,l)
);
}
);
width = 539;
}
);
unicode = 1987;
},
{
glyphname = uni07C4;
layers = (
{
hints = (
{
horizontal = 1;
place = (0,102);
type = Stem;
},
{
horizontal = 1;
place = (321,102);
type = Stem;
},
{
place = (154,50);
type = Stem;
},
{
place = (425,50);
type = Stem;
}
);
layerId = "658C8605-6260-49C3-8AFC-BEEEFEF62072";
shapes = (
{
closed = 1;
nodes = (
(488,102,l),
(204,102,l),
(204,321,l),
(450,321,ls),
(470,321,o),
(475,357,o),
(475,372,cs),
(475,700,l),
(425,700,l),
(425,423,l),
(179,423,ls),
(160,423,o),
(154,387,o),
(154,372,cs),
(154,51,ls),
(154,36,o),
(160,0,o),
(179,0,cs),
(488,0,l)
);
}
);
width = 539;
}
);
unicode = 1988;
},
{
glyphname = uni07C5;
layers = (
{
hints = (
{
horizontal = 1;
place = (0,21);
target = up;
type = BottomGhost;
},
{
horizontal = 1;
place = (307,102);
type = Stem;
},
{
place = (200,50);
type = Stem;
}
);
layerId = "658C8605-6260-49C3-8AFC-BEEEFEF62072";
shapes = (
{
closed = 1;
nodes = (
(200,700,l),
(200,0,l),
(250,0,l),
(250,307,l),
(493,307,l),
(493,409,l),
(250,409,l),
(250,700,l)
);
}
);
width = 539;
}
);
unicode = 1989;
},
{
glyphname = uni07C6;
layers = (
{
hints = (
{
horizontal = 1;
place = (323,102);
type = Stem;
},
{
place = (151,50);
type = Stem;
}
);
layerId = "658C8605-6260-49C3-8AFC-BEEEFEF62072";
shapes = (
{
closed = 1;
nodes = (
(151,700,l),
(151,374,ls),
(151,359,o),
(157,323,o),
(176,323,cs),
(402,323,l),
(274,60,l),
(310,-12,l),
(465,307,ls),
(476,331,o),
(487,346,o),
(487,374,cs),
(487,389,o),
(482,425,o),
(462,425,cs),
(201,425,l),
(201,700,l)
);
}
);
width = 539;
}
);
unicode = 1990;
},
{
glyphname = uni07C7;
layers = (
{
hints = (
{
horizontal = 1;
place = (0,21);
target = up;
type = BottomGhost;
},
{
place = (171,50);
type = Stem;
}
);
layerId = "658C8605-6260-49C3-8AFC-BEEEFEF62072";
shapes = (
{
closed = 1;
nodes = (
(171,700,l),
(171,51,ls),
(171,36,o),
(177,0,o),
(196,0,cs),
(208,0,o),
(227,29,o),
(235,37,c),
(486,325,l),
(460,413,l),
(221,138,l),
(221,700,l)
);
}
);
width = 539;
}
);
unicode = 1991;
},
{
glyphname = uni07C8;
layers = (
{
hints = (
{
horizontal = 1;
place = (0,21);
target = up;
type = BottomGhost;
},
{
horizontal = 1;
place = (366,102);
type = Stem;
},
{
place = (171,50);
type = Stem;
}
);
layerId = "658C8605-6260-49C3-8AFC-BEEEFEF62072";
shapes = (
{
closed = 1;
nodes = (
(171,700,l),
(171,51,ls),
(171,36,o),
(177,0,o),
(196,0,cs),
(207,0,o),
(217,17,o),
(224,25,cs),
(495,343,ls),
(517,369,o),
(533,379,o),
(533,417,cs),
(533,432,o),
(528,468,o),
(508,468,cs),
(221,468,l),
(221,700,l)
);
},
{
closed = 1;
nodes = (
(221,139,l),
(221,366,l),
(415,366,l)
);
}
);
width = 539;
}
);
unicode = 1992;
},
{
glyphname = uni07C9;
layers = (
{
hints = (
{
horizontal = 1;
place = (0,21);
target = up;
type = BottomGhost;
},
{
horizontal = 1;
place = (603,102);
type = Stem;
},
{
place = (108,51);
type = Stem;
},
{
place = (268,50);
type = Stem;
},
{
place = (428,50);
type = Stem;
}
);
layerId = "658C8605-6260-49C3-8AFC-BEEEFEF62072";
shapes = (
{
closed = 1;
nodes = (
(108,417,o),
(173,353,o),
(268,344,c),
(268,0,l),
(318,0,l),
(318,344,l),
(416,353,o),
(478,418,o),
(478,523,cs),
(478,637,o),
(405,705,o),
(293,705,cs),
(177,705,o),
(108,635,o),
(108,519,cs)
);
},
{
closed = 1;
nodes = (
(165,583,o),
(242,603,o),
(293,603,cs),
(338,603,o),
(428,581,o),
(428,523,cs),
(428,519,o),
(427,514,o),
(426,511,c),
(404,460,o),
(344,444,o),
(293,444,cs),
(243,444,o),
(165,464,o),
(159,523,c)
);
}
);
width = 539;
}
);
unicode = 1993;
},
{
glyphname = uni07CA;
layers = (
{
anchors = (
{
name = b.uni07F2;
position = "{230, -107}";
},
{
name = m.uni07EB_1;
position = "{228, 750}";
},
{
name = m.uniA6F0_2;
position = "{0, 0}";
},
{
name = b.u16AF0_3;
position = "{0, 0}";
}
);
hints = (
{
horizontal = 1;
place = (0,21);
target = up;
type = BottomGhost;
},
{
place = (205,50);
type = Stem;
}
);
layerId = "658C8605-6260-49C3-8AFC-BEEEFEF62072";
shapes = (
{
closed = 1;
nodes = (
(205,700,l),
(205,0,l),
(255,0,l),
(255,700,l)
);
}
);
width = 336;
}
);
unicode = 1994;
},
{
glyphname = uni07CB;
layers = (
{
anchors = (
{
name = b.uni07F2;
position = "{417, -107}";
},
{
name = m.uni07EB_1;
position = "{417, 588}";
},
{
name = m.uniA6F0_2;
position = "{0, 0}";
},
{
name = b.u16AF0_3;
position = "{0, 0}";
}
);
hints = (
{
horizontal = 1;
place = (-2,102);
type = Stem;
},
{
horizontal = 1;
place = (422,102);
type = Stem;
},
{
place = (142,50);
type = Stem;
},
{
place = (642,50);
type = Stem;
}
);
layerId = "658C8605-6260-49C3-8AFC-BEEEFEF62072";
shapes = (
{
closed = 1;
nodes = (
(142,94,o),
(257,-2,o),
(417,-2,cs),
(579,-2,o),
(692,95,o),
(692,261,cs),
(692,427,o),
(579,524,o),
(417,524,cs),
(253,524,o),
(142,426,o),
(142,259,cs)
);
},
{
closed = 1;
nodes = (
(192,335,o),
(254,386,o),
(319,408,cs),
(350,418,o),
(384,422,o),
(417,422,cs),
(450,422,o),
(484,418,o),
(515,408,cs),
(580,386,o),
(642,335,o),
(642,261,cs),
(642,187,o),
(580,136,o),
(515,114,cs),
(484,104,o),
(450,100,o),
(417,100,cs),
(384,100,o),
(350,104,o),
(319,114,cs),
(254,136,o),
(192,187,o),
(192,261,cs)
);
}
);
width = 796;
}
);
unicode = 1995;
},
{
glyphname = uni07CC;
layers = (
{
anchors = (
{
name = b.uni07F2;
position = "{253, -107}";
},
{
name = m.uni07EB_1;
position = "{253, 750}";
},
{
name = m.uniA6F0_2;
position = "{0, 0}";
},
{
name = b.u16AF0_3;
position = "{0, 0}";
}
);
hints = (
{
horizontal = 1;
place = (0,21);
target = up;
type = BottomGhost;
},
{
place = (225,50);
type = Stem;
}
);
layerId = "658C8605-6260-49C3-8AFC-BEEEFEF62072";
shapes = (
{
closed = 1;
nodes = (
(56,656,l),
(227,296,l),
(227,296,o),
(227,295,o),
(227,295,c),
(225,295,l),
(225,0,l),
(275,0,l),
(275,295,l),
(273,295,l),
(273,296,o),
(273,297,o),
(274,297,c),
(450,654,l),
(414,726,l),
(250,394,l),
(94,724,l)
);
}
);
width = 478;
}
);
unicode = 1996;
},
{
glyphname = uni07CD;
layers = (
{
anchors = (
{
name = b.uni07F2;
position = "{336, -107}";
},
{
name = m.uni07EB_1;
position = "{336, 588}";
},
{
name = m.uniA6F0_2;
position = "{0, 0}";
},
{
name = b.u16AF0_3;
position = "{0, 0}";
}
);
hints = (
{
horizontal = 1;
place = (-25,524);
type = Stem;
},
{
place = (59,554);
type = Stem;
}
);
layerId = "658C8605-6260-49C3-8AFC-BEEEFEF62072";
shapes = (
{
closed = 1;
nodes = (
(91,-25,l),
(336,382,l),
(581,-25,l),
(613,53,l),
(365,465,ls),
(359,475,o),
(349,499,o),
(336,499,cs),
(323,499,o),
(313,475,o),
(307,465,cs),
(59,53,l)
);
}
);
width = 643;
}
);
unicode = 1997;
},
{
glyphname = uni07CE;
layers = (
{
anchors = (
{
name = b.uni07F2;
position = "{409, -120}";
},
{
name = m.uni07EB_1;
position = "{409, 588}";
},
{
name = m.uniA6F0_2;
position = "{0, 0}";
},
{
name = b.u16AF0_3;
position = "{0, 0}";
}
);
hints = (
{
horizontal = 1;
place = (-21,102);
type = Stem;
},
{
horizontal = 1;
place = (0,21);
target = up;
type = BottomGhost;
},
{
place = (199,50);
type = Stem;
},
{
place = (569,50);
type = Stem;
}
);
layerId = "658C8605-6260-49C3-8AFC-BEEEFEF62072";
shapes = (
{
closed = 1;
nodes = (
(199,500,l),
(199,0,l),
(249,0,l),
(249,73,l),
(284,19,o),
(337,-21,o),
(409,-21,cs),
(551,-21,o),
(619,86,o),
(619,218,cs),
(619,500,l),
(569,500,l),
(569,415,o),
(569,331,o),
(569,246,cs),
(569,230,o),
(569,213,o),
(567,196,cs),
(557,117,o),
(482,81,o),
(409,81,cs),
(321,81,o),
(268,149,o),
(249,228,c),
(249,500,l)
);
}
);
width = 690;
}
);
unicode = 1998;
},
{
glyphname = uni07CF;
layers = (
{
anchors = (
{
name = b.uni07F2;
position = "{332, -120}";
},
{
name = m.uni07EB_1;
position = "{332, 588}";
},
{
name = m.uniA6F0_2;
position = "{0, 0}";
},
{
name = b.u16AF0_3;
position = "{0, 0}";
}
);
hints = (
{
horizontal = 1;
place = (0,102);
type = Stem;
},
{
horizontal = 1;
place = (415,101);
type = Stem;
},
{
place = (482,50);
type = Stem;
}
);
layerId = "658C8605-6260-49C3-8AFC-BEEEFEF62072";
shapes = (
{
closed = 1;
nodes = (
(131,414,l),
(216,414,o),
(300,415,o),
(385,415,cs),
(428,415,o),
(482,412,o),
(482,355,cs),
(482,173,ls),
(482,110,o),
(451,101,o),
(395,101,cs),
(374,101,o),
(353,102,o),
(332,102,cs),
(131,102,l),
(131,0,l),
(422,0,ls),
(509,0,o),
(532,103,o),
(532,172,cs),
(532,357,ls),
(532,434,o),
(501,516,o),
(411,516,cs),
(131,516,l)
);
}
);
width = 593;
}
);
unicode = 1999;
},
{
glyphname = uni07D0;
layers = (
{
anchors = (
{
name = b.uni07F2;
position = "{361, -120}";
},
{
name = m.uni07EB_1;
position = "{361, 750}";
},
{
name = m.uniA6F0_2;
position = "{0, 0}";
},
{
name = b.u16AF0_3;
position = "{0, 0}";
}
);
hints = (
{
horizontal = 1;
place = (0,102);
type = Stem;
},
{
horizontal = 1;
place = (282,101);
type = Stem;
},
{
horizontal = 1;
place = (616,102);
type = Stem;
},
{
place = (138,50);
type = Stem;
},
{
place = (329,50);
type = Stem;
},
{
place = (533,50);
type = Stem;
}
);
layerId = "658C8605-6260-49C3-8AFC-BEEEFEF62072";
shapes = (
{
closed = 1;
nodes = (
(138,374,o),
(214,295,o),
(329,283,c),
(329,102,l),
(147,102,l),
(147,0,l),
(558,0,l),
(558,102,l),
(379,102,l),
(379,282,l),
(503,289,o),
(583,371,o),
(583,500,cs),
(583,635,o),
(494,718,o),
(361,718,cs),
(225,718,o),
(138,635,o),
(138,498,cs)
);
},
{
closed = 1;
nodes = (
(188,518,o),
(195,535,o),
(205,549,cs),
(238,599,o),
(304,616,o),
(361,616,cs),
(428,616,o),
(533,582,o),
(533,500,cs),
(533,482,o),
(526,465,o),
(517,450,c),
(483,400,o),
(418,383,o),
(361,383,cs),
(304,383,o),
(238,400,o),
(205,450,cs),
(195,465,o),
(188,482,o),
(188,500,cs)
);
}
);
width = 632;
}
);
unicode = 2000;
},
{
glyphname = uni07D1;
layers = (
{
anchors = (
{
name = b.uni07F2;
position = "{256, -120}";
},
{
name = m.uni07EB_1;
position = "{256, 750}";
},
{
name = m.uniA6F0_2;
position = "{0, 0}";
},
{
name = b.u16AF0_3;
position = "{0, 0}";
}
);
hints = (
{
horizontal = 1;
place = (0,102);
type = Stem;
},
{
horizontal = 1;
place = (352,148);
type = Stem;
},
{
place = (173,50);
type = Stem;
}
);
layerId = "658C8605-6260-49C3-8AFC-BEEEFEF62072";
shapes = (
{
closed = 1;
nodes = (
(301,687,l),
(213,638,o),
(173,598,o),
(173,487,cs),
(173,431,o),
(193,352,o),
(262,352,cs),
(301,352,o),
(316,390,o),
(316,423,cs),
(316,460,o),
(299,500,o),
(257,500,cs),
(242,500,o),
(232,495,o),
(224,484,c),
(223,488,l),
(223,543,o),
(272,567,o),
(315,589,c)
);
},
{
closed = 1;
nodes = (
(78,0,l),
(433,0,l),
(433,102,l),
(78,102,l)
);
}
);
width = 471;
}
);
unicode = 2001;
},
{
glyphname = uni07D2;
layers = (
{
anchors = (
{
name = b.uni07F2;
position = "{344, -120}";
},
{
name = m.uni07EB_1;
position = "{344, 750}";
},
{
name = m.uniA6F0_2;
position = "{0, 0}";
},
{
name = b.u16AF0_3;
position = "{0, 0}";
}
);
hints = (
{
horizontal = 1;
place = (0,21);
target = up;
type = BottomGhost;
},
{
horizontal = 1;
place = (359,101);
type = Stem;
},
{
horizontal = 1;
place = (616,102);
type = Stem;
},
{
place = (91,50);
type = Stem;
},
{
place = (333,50);
type = Stem;
},
{
place = (547,50);
type = Stem;
}
);
layerId = "658C8605-6260-49C3-8AFC-BEEEFEF62072";
shapes = (
{
closed = 1;
nodes = (
(383,213,l),
(383,359,l),
(390,359,o),
(396,359,o),
(403,359,cs),
(413,359,o),
(422,359,o),
(430,359,cs),
(565,359,o),
(547,355,o),
(547,204,cs),
(547,0,l),
(597,0,l),
(597,294,ls),
(597,369,o),
(582,460,o),
(488,460,c),
(383,459,l),
(383,463,ls),
(383,561,o),
(381,718,o),
(246,718,cs),
(135,718,o),
(91,634,o),
(91,533,cs),
(91,405,o),
(176,362,o),
(291,359,c),
(305,359,o),
(319,359,o),
(333,359,c),
(333,213,l)
);
},
{
closed = 1;
nodes = (
(280,459,o),
(196,462,o),
(157,501,cs),
(148,510,o),
(141,520,o),
(141,534,cs),
(141,594,o),
(194,616,o),
(246,616,cs),
(335,616,o),
(333,543,o),
(333,475,cs),
(333,470,o),
(333,465,o),
(333,459,c)
);
}
);
width = 657;
}
);
unicode = 2002;
},
{
glyphname = uni07D3;
layers = (
{
anchors = (
{
name = b.uni07F2;
position = "{326, -120}";
},
{
name = m.uni07EB_1;
position = "{326, 750}";
},
{
name = m.uniA6F0_2;
position = "{0, 0}";
},
{
name = b.u16AF0_3;
position = "{0, 0}";
}
);
hints = (
{
horizontal = 1;
place = (0,21);
target = up;
type = BottomGhost;
},
{
horizontal = 1;
place = (333,102);
type = Stem;
},
{
horizontal = 1;
place = (602,102);
type = Stem;
},
{
place = (181,50);
type = Stem;
}
);
layerId = "658C8605-6260-49C3-8AFC-BEEEFEF62072";
shapes = (
{
closed = 1;
nodes = (
(471,704,l),
(206,704,ls),
(187,704,o),
(181,668,o),
(181,653,cs),
(181,0,l),
(231,0,l),
(231,333,l),
(463,333,l),
(463,435,l),
(231,435,l),
(231,602,l),
(471,602,l)
);
}
);
width = 508;
}
);
unicode = 2003;
},
{
glyphname = uni07D4;
layers = (
{
anchors = (
{
name = b.uni07F2;
position = "{285, -120}";
},
{
name = m.uni07EB_1;
position = "{285, 750}";
},
{
name = m.uniA6F0_2;
position = "{0, 0}";
},
{
name = b.u16AF0_3;
position = "{0, 0}";
}
);
hints = (
{
horizontal = 1;
place = (0,21);
target = up;
type = BottomGhost;
},
{
horizontal = 1;
place = (333,102);
type = Stem;
},
{
horizontal = 1;
place = (602,102);
type = Stem;
},
{
place = (380,50);
type = Stem;
}
);
layerId = "658C8605-6260-49C3-8AFC-BEEEFEF62072";
shapes = (
{
closed = 1;
nodes = (
(140,602,l),
(380,602,l),
(380,435,l),
(148,435,l),
(148,333,l),
(380,333,l),
(380,0,l),
(430,0,l),
(430,653,ls),
(430,668,o),
(425,704,o),
(405,704,cs),
(140,704,l)
);
}
);
width = 508;
}
);
unicode = 2004;
},
{
glyphname = uni07D5;
layers = (
{
anchors = (
{
name = b.uni07F2;
position = "{349, -120}";
},
{
name = m.uni07EB_1;
position = "{349, 750}";
},
{
name = m.uniA6F0_2;
position = "{0, 0}";
},
{
name = b.u16AF0_3;
position = "{0, 0}";
}
);
hints = (
{
horizontal = 1;
place = (0,102);
type = Stem;
},
{
horizontal = 1;
place = (342,102);
type = Stem;
},
{
place = (160,50);
type = Stem;
},
{
place = (487,50);
type = Stem;
}
);
layerId = "658C8605-6260-49C3-8AFC-BEEEFEF62072";
shapes = (
{
closed = 1;
nodes = (
(160,703,l),
(160,51,ls),
(160,37,o),
(165,0,o),
(185,0,cs),
(292,0,ls),
(427,0,o),
(537,80,o),
(537,223,cs),
(537,344,o),
(471,444,o),
(342,444,cs),
(293,444,o),
(248,423,o),
(210,393,c),
(210,703,l)
);
},
{
closed = 1;
nodes = (
(210,102,l),
(210,282,l),
(246,317,o),
(291,342,o),
(342,342,cs),
(412,342,o),
(487,302,o),
(487,223,cs),
(487,207,o),
(480,191,o),
(470,178,cs),
(433,125,o),
(354,102,o),
(292,102,cs)
);
}
);
width = 586;
}
);
unicode = 2005;
},
{
glyphname = uni07D6;
layers = (
{
anchors = (
{
name = b.uni07F2;
position = "{348, -120}";
},
{
name = m.uni07EB_1;
position = "{273, 750}";
},
{
name = m.uniA6F0_2;
position = "{0, 0}";
},
{
name = b.u16AF0_3;
position = "{0, 0}";
}
);
hints = (
{
horizontal = 1;
place = (0,21);
target = up;
type = BottomGhost;
},
{
horizontal = 1;
place = (612,102);
type = Stem;
},
{
place = (333,50);
type = Stem;
}
);
layerId = "658C8605-6260-49C3-8AFC-BEEEFEF62072";
shapes = (
{
closed = 1;
nodes = (
(452,714,l),
(118,714,ls),
(98,714,o),
(93,677,o),
(93,663,cs),
(93,651,o),
(95,638,o),
(100,627,cs),
(111,605,o),
(132,585,o),
(147,565,cs),
(287,380,o),
(333,229,o),
(333,0,c),
(383,0,l),
(383,21,ls),
(383,255,o),
(335,419,o),
(202,612,c),
(452,612,l)
);
}
);
width = 490;
}
);
unicode = 2006;
},
{
glyphname = uni07D7;
layers = (
{
anchors = (
{
name = b.uni07F2;
position = "{345, -120}";
},
{
name = m.uni07EB_1;
position = "{230, 750}";
},
{
name = m.uniA6F0_2;
position = "{0, 0}";
},
{
name = b.u16AF0_3;
position = "{0, 0}";
}
);
hints = (
{
horizontal = 1;
place = (-1,21);
target = up;
type = BottomGhost;
},
{
place = (320,50);
type = Stem;
}
);
layerId = "658C8605-6260-49C3-8AFC-BEEEFEF62072";
shapes = (
{
closed = 1;
nodes = (
(370,-1,l),
(370,678,ls),
(370,693,o),
(365,729,o),
(345,729,cs),
(334,729,o),
(316,704,o),
(308,696,cs),
(89,460,l),
(113,370,l),
(320,593,l),
(320,-1,l)
);
}
);
width = 441;
}
);
unicode = 2007;
},
{
glyphname = uni07D8;
layers = (
{
anchors = (
{
name = b.uni07F2;
position = "{456, -120}";
},
{
name = m.uni07EB_1;
position = "{456, 588}";
},
{
name = m.uniA6F0_2;
position = "{0, 0}";
},
{
name = b.u16AF0_3;
position = "{0, 0}";
}
);
hints = (
{
horizontal = 1;
place = (0,102);
type = Stem;
},
{
horizontal = 1;
place = (372,102);
type = Stem;
},
{
horizontal = 1;
place = (415,102);
type = Stem;
},
{
place = (165,50);
type = Stem;
},
{
place = (428,50);
type = Stem;
},
{
place = (697,50);
type = Stem;
}
);
layerId = "658C8605-6260-49C3-8AFC-BEEEFEF62072";
shapes = (
{
closed = 1;
nodes = (
(415,452,o),
(371,474,o),
(318,474,cs),
(171,474,o),
(165,358,o),
(165,243,cs),
(165,51,ls),
(165,37,o),
(170,0,o),
(190,0,cs),
(722,0,ls),
(742,0,o),
(747,37,o),
(747,51,cs),
(747,328,ls),
(747,421,o),
(701,517,o),
(596,517,cs),
(521,517,o),
(476,474,o),
(447,409,c)
);
},
{
closed = 1;
nodes = (
(478,102,l),
(478,325,l),
(492,378,o),
(537,415,o),
(592,415,cs),
(646,415,o),
(697,386,o),
(697,326,cs),
(697,102,l)
);
},
{
closed = 1;
nodes = (
(215,102,l),
(215,265,ls),
(215,282,o),
(215,317,o),
(223,332,cs),
(241,366,o),
(283,372,o),
(318,372,cs),
(362,372,o),
(411,352,o),
(428,308,c),
(428,102,l)
);
}
);
width = 813;
}
);
unicode = 2008;
},
{
glyphname = uni07D9;
layers = (
{
anchors = (
{
name = b.uni07F2;
position = "{215, -120}";
},
{
name = m.uni07EB_1;
position = "{215, 750}";
},
{
name = m.uniA6F0_2;
position = "{0, 0}";
},
{
name = b.u16AF0_3;
position = "{0, 0}";
}
);
hints = (
{
horizontal = 1;
place = (0,21);
target = up;
type = BottomGhost;
},
{
horizontal = 1;
place = (389,102);
type = Stem;
},
{
place = (192,50);
type = Stem;
}
);
layerId = "658C8605-6260-49C3-8AFC-BEEEFEF62072";
shapes = (
{
closed = 1;
nodes = (
(192,700,l),
(192,491,l),
(73,491,l),
(73,389,l),
(192,389,l),
(192,0,l),
(242,0,l),
(242,389,l),
(357,389,l),
(357,491,l),
(242,491,l),
(242,700,l)
);
}
);
width = 395;
}
);
unicode = 2009;
},
{
glyphname = uni07DA;
layers = (
{
anchors = (
{
name = b.uni07F2;
position = "{317, -120}";
},
{
name = m.uni07EB_1;
position = "{317, 750}";
},
{
name = m.uniA6F0_2;
position = "{0, 0}";
},
{
name = b.u16AF0_3;
position = "{0, 0}";
}
);
hints = (
{
horizontal = 1;
place = (-7,102);
type = Stem;
},
{
horizontal = 1;
place = (0,21);
target = up;
type = BottomGhost;
},
{
horizontal = 1;
place = (400,102);
type = Stem;
},
{
place = (177,50);
type = Stem;
},
{
place = (428,50);
type = Stem;
}
);
layerId = "658C8605-6260-49C3-8AFC-BEEEFEF62072";
shapes = (
{
closed = 1;
nodes = (
(428,713,l),
(428,502,l),
(227,502,l),
(227,700,l),
(177,700,l),
(177,502,l),
(42,502,l),
(42,400,l),
(177,400,l),
(177,0,l),
(227,0,l),
(227,70,l),
(258,27,o),
(299,-7,o),
(354,-7,cs),
(468,-7,o),
(478,80,o),
(478,172,cs),
(478,400,l),
(591,400,l),
(591,502,l),
(478,502,l),
(478,713,l)
);
},
{
closed = 1;
nodes = (
(227,400,l),
(428,400,l),
(428,172,ls),
(428,160,o),
(429,131,o),
(423,121,c),
(412,99,o),
(376,95,o),
(354,95,cs),
(290,95,o),
(250,152,o),
(227,204,c)
);
}
);
width = 617;
}
);
unicode = 2010;
},
{
glyphname = uni07DB;
layers = (
{
anchors = (
{
name = b.uni07F2;
position = "{454, -120}";
},
{
name = m.uni07EB_1;
position = "{454, 588}";
},
{
name = m.uniA6F0_2;
position = "{0, 0}";
},
{
name = b.u16AF0_3;
position = "{0, 0}";
}
);
hints = (
{
horizontal = 1;
place = (0,102);
type = Stem;
},
{
horizontal = 1;
place = (415,102);
type = Stem;
},
{
place = (174,50);
type = Stem;
},
{
place = (684,50);
type = Stem;
}
);
layerId = "658C8605-6260-49C3-8AFC-BEEEFEF62072";
shapes = (
{
closed = 1;
nodes = (
(340,517,ls),
(231,517,o),
(174,441,o),
(174,337,cs),
(174,51,ls),
(174,37,o),
(179,0,o),
(199,0,cs),
(588,0,ls),
(689,0,o),
(734,81,o),
(734,173,cs),
(734,466,ls),
(734,480,o),
(729,517,o),
(709,517,cs)
);
},
{
closed = 1;
nodes = (
(684,415,l),
(684,175,ls),
(684,124,o),
(632,102,o),
(588,102,cs),
(224,102,l),
(224,335,ls),
(224,393,o),
(292,415,o),
(340,415,cs)
);
}
);
width = 798;
}
);
unicode = 2011;
},
{
glyphname = uni07DC;
layers = (
{
anchors = (
{
name = b.uni07F2;
position = "{329, -120}";
},
{
name = m.uni07EB_1;
position = "{329, 750}";
},
{
name = m.uniA6F0_2;
position = "{0, 0}";
},
{
name = b.u16AF0_3;
position = "{0, 0}";
}
);
hints = (
{
horizontal = 1;
place = (0,21);
target = up;
type = BottomGhost;
},
{
horizontal = 1;
place = (596,102);
type = Stem;
},
{
place = (76,505);
type = Stem;
}
);
layerId = "658C8605-6260-49C3-8AFC-BEEEFEF62072";
shapes = (
{
closed = 1;
nodes = (
(337,0,o),
(342,5,o),
(346,10,cs),
(355,22,o),
(390,124,o),
(399,147,cs),
(558,569,ls),
(568,594,o),
(581,620,o),
(581,647,cs),
(581,662,o),
(576,698,o),
(556,698,cs),
(101,698,ls),
(82,698,o),
(76,662,o),
(76,647,cs),
(76,620,o),
(89,595,o),
(99,570,cs),
(262,147,ls),
(271,123,o),
(306,23,o),
(317,10,c),
(320,5,o),
(325,0,o),
(331,0,cs)
);
},
{
closed = 1;
nodes = (
(331,134,l),
(153,596,l),
(505,596,l)
);
}
);
width = 613;
}
);
unicode = 2012;
},
{
glyphname = uni07DD;
layers = (
{
anchors = (
{
name = b.uni07F2;
position = "{414, -120}";
},
{
name = m.uni07EB_1;
position = "{414, 750}";
},
{
name = m.uniA6F0_2;
position = "{0, 0}";
},
{
name = b.u16AF0_3;
position = "{0, 0}";
}
);
hints = (
{
horizontal = 1;
place = (0,102);
type = Stem;
},
{
horizontal = 1;
place = (337,101);
type = Stem;
},
{
horizontal = 1;
place = (617,102);
type = Stem;
},
{
place = (137,50);
type = Stem;
},
{
place = (398,50);
type = Stem;
},
{
place = (641,50);
type = Stem;
}
);
layerId = "658C8605-6260-49C3-8AFC-BEEEFEF62072";
shapes = (
{
closed = 1;
nodes = (
(137,51,ls),
(137,36,o),
(143,0,o),
(162,0,cs),
(423,0,ls),
(448,0,o),
(449,51,o),
(449,68,cs),
(449,102,o),
(448,137,o),
(448,171,cs),
(448,336,l),
(464,336,o),
(480,335,o),
(497,335,cs),
(609,335,o),
(691,400,o),
(691,517,cs),
(691,610,o),
(654,719,o),
(544,719,cs),
(501,719,o),
(470,704,o),
(442,672,cs),
(393,616,o),
(396,515,o),
(397,438,c),
(223,438,ls),
(156,438,o),
(137,364,o),
(137,310,cs)
);
},
{
closed = 1;
nodes = (
(447,452,o),
(447,466,o),
(447,480,cs),
(447,507,o),
(447,536,o),
(455,562,cs),
(468,600,o),
(506,617,o),
(544,617,cs),
(605,617,o),
(641,577,o),
(641,517,cs),
(641,478,o),
(579,449,o),
(547,442,cs),
(526,438,o),
(505,437,o),
(484,437,cs),
(472,437,o),
(459,437,o),
(447,437,c)
);
},
{
closed = 1;
nodes = (
(187,102,l),
(187,309,ls),
(187,336,o),
(216,337,o),
(237,337,c),
(238,337,o),
(240,337,o),
(241,337,c),
(293,337,o),
(346,336,o),
(398,336,c),
(398,102,l)
);
}
);
width = 721;
}
);
unicode = 2013;
},
{
glyphname = uni07DE;
layers = (
{
anchors = (
{
name = b.uni07F2;
position = "{319, -120}";
},
{
name = m.uni07EB_1;
position = "{319, 750}";
},
{
name = m.uniA6F0_2;
position = "{0, 0}";
},
{
name = b.u16AF0_3;
position = "{0, 0}";
}
);
hints = (
{
horizontal = 1;
place = (0,21);
target = up;
type = BottomGhost;
},
{
horizontal = 1;
place = (366,102);
type = Stem;
},
{
place = (137,50);
type = Stem;
},
{
place = (451,50);
type = Stem;
}
);
layerId = "658C8605-6260-49C3-8AFC-BEEEFEF62072";
shapes = (
{
closed = 1;
nodes = (
(451,700,l),
(451,468,l),
(187,468,l),
(187,584,l),
(137,584,l),
(137,251,l),
(187,251,l),
(187,366,l),
(451,366,l),
(451,0,l),
(501,0,l),
(501,700,l)
);
}
);
width = 574;
}
);
unicode = 2014;
},
{
glyphname = uni07DF;
layers = (
{
anchors = (
{
name = b.uni07F2;
position = "{355, -120}";
},
{
name = m.uni07EB_1;
position = "{308, 750}";
},
{
name = m.uniA6F0_2;
position = "{0, 0}";
},
{
name = b.u16AF0_3;
position = "{0, 0}";
}
);
hints = (
{
horizontal = 1;
place = (0,21);
target = up;
type = BottomGhost;
},
{
horizontal = 1;
place = (358,101);
type = Stem;
},
{
horizontal = 1;
place = (616,102);
type = Stem;
},
{
place = (91,50);
type = Stem;
},
{
place = (333,50);
type = Stem;
}
);
layerId = "658C8605-6260-49C3-8AFC-BEEEFEF62072";
shapes = (
{
closed = 1;
nodes = (
(383,0,l),
(383,358,l),
(525,358,l),
(525,460,l),
(478,460,o),
(431,459,o),
(383,459,c),
(383,463,ls),
(383,561,o),
(381,718,o),
(246,718,cs),
(135,718,o),
(91,634,o),
(91,533,cs),
(91,390,o),
(195,358,o),
(317,358,cs),
(333,358,l),
(333,358,o),
(333,358,o),
(333,358,c),
(333,0,l)
);
},
{
closed = 1;
nodes = (
(289,459,o),
(141,465,o),
(141,534,cs),
(141,594,o),
(194,616,o),
(246,616,cs),
(288,616,o),
(318,600,o),
(327,557,cs),
(333,528,o),
(335,494,o),
(335,459,c)
);
}
);
width = 565;
}
);
unicode = 2015;
},
{
glyphname = uni07E0;
layers = (
{
anchors = (
{
name = b.uni07F2;
position = "{242, -120}";
},
{
name = m.uni07EB_1;
position = "{250, 750}";
},
{
name = m.uniA6F0_2;
position = "{0, 0}";
},
{
name = b.u16AF0_3;
position = "{0, 0}";
}
);
hints = (
{
horizontal = 1;
place = (0,21);
target = up;
type = BottomGhost;
},
{
horizontal = 1;
place = (597,102);
type = Stem;
},
{
place = (221,50);
type = Stem;
}
);
layerId = "658C8605-6260-49C3-8AFC-BEEEFEF62072";
shapes = (
{
closed = 1;
nodes = (
(47,597,l),
(221,597,l),
(221,0,l),
(271,0,l),
(271,597,l),
(453,597,l),
(453,699,l),
(47,699,l)
);
}
);
width = 475;
}
);
unicode = 2016;
},
{
glyphname = uni07E1;
layers = (
{
anchors = (
{
name = b.uni07F2;
position = "{329, -120}";
},
{
name = m.uni07EB_1;
position = "{329, 750}";
},
{
name = m.uniA6F0_2;
position = "{0, 0}";
},
{
name = b.u16AF0_3;
position = "{0, 0}";
}
);
hints = (
{
horizontal = 1;
place = (0,102);
type = Stem;
},
{
place = (76,505);
type = Stem;
}
);
layerId = "658C8605-6260-49C3-8AFC-BEEEFEF62072";
shapes = (
{
closed = 1;
nodes = (
(325,698,o),
(320,693,o),
(317,688,c),
(306,675,o),
(271,575,o),
(262,551,cs),
(99,128,ls),
(89,103,o),
(76,78,o),
(76,51,cs),
(76,36,o),
(82,0,o),
(101,0,cs),
(556,0,ls),
(576,0,o),
(581,36,o),
(581,51,cs),
(581,78,o),
(568,104,o),
(558,129,cs),
(399,551,ls),
(390,575,o),
(355,676,o),
(346,688,cs),
(342,693,o),
(337,698,o),
(331,698,cs)
);
},
{
closed = 1;
nodes = (
(505,102,l),
(153,102,l),
(331,564,l)
);
}
);
width = 613;
}
);
unicode = 2017;
},
{
glyphname = uni07E2;
layers = (
{
anchors = (
{
name = b.uni07F2;
position = "{300, -120}";
},
{
name = m.uni07EB_1;
position = "{240, 750}";
},
{
name = m.uniA6F0_2;
position = "{0, 0}";
},
{
name = b.u16AF0_3;
position = "{0, 0}";
}
);
hints = (
{
horizontal = 1;
place = (1,21);
target = up;
type = BottomGhost;
},
{
horizontal = 1;
place = (614,102);
type = Stem;
},
{
place = (108,50);
type = Stem;
},
{
place = (277,50);
type = Stem;
},
{
place = (444,50);
type = Stem;
}
);
layerId = "658C8605-6260-49C3-8AFC-BEEEFEF62072";
shapes = (
{
closed = 1;
nodes = (
(71,614,l),
(277,614,l),
(277,533,l),
(172,523,o),
(108,454,o),
(108,343,cs),
(108,235,o),
(176,168,o),
(277,158,c),
(277,1,l),
(327,1,l),
(327,159,l),
(428,169,o),
(494,236,o),
(494,345,cs),
(494,454,o),
(429,522,o),
(327,532,c),
(327,665,ls),
(327,680,o),
(322,716,o),
(302,716,cs),
(71,716,l)
);
},
{
closed = 1;
nodes = (
(158,351,o),
(160,357,o),
(162,362,cs),
(182,414,o),
(251,432,o),
(301,432,cs),
(351,432,o),
(420,414,o),
(440,362,cs),
(442,357,o),
(444,351,o),
(444,345,cs),
(444,333,o),
(438,322,o),
(432,312,c),
(404,272,o),
(347,259,o),
(301,259,cs),
(255,259,o),
(199,272,o),
(171,312,cs),
(164,322,o),
(158,333,o),
(158,345,cs)
);
}
);
width = 527;
}
);
unicode = 2018;
},
{
glyphname = uni07E3;
layers = (
{
anchors = (
{
name = b.uni07F2;
position = "{312, -120}";
},
{
name = m.uni07EB_1;
position = "{312, 750}";
},
{
name = m.uniA6F0_2;
position = "{0, 0}";
},
{
name = b.u16AF0_3;
position = "{0, 0}";
}
);
hints = (
{
horizontal = 1;
place = (0,21);
target = up;
type = BottomGhost;
},
{
horizontal = 1;
place = (598,102);
type = Stem;
},
{
place = (146,50);
type = Stem;
},
{
place = (427,50);
type = Stem;
}
);
layerId = "658C8605-6260-49C3-8AFC-BEEEFEF62072";
shapes = (
{
closed = 1;
nodes = (
(196,441,l),
(196,470,o),
(196,498,o),
(196,527,cs),
(196,579,o),
(238,598,o),
(284,598,cs),
(427,598,l),
(427,0,l),
(477,0,l),
(477,649,ls),
(477,664,o),
(472,700,o),
(452,700,cs),
(284,700,ls),
(186,700,o),
(146,622,o),
(146,534,cs),
(146,441,l)
);
}
);
width = 552;
}
);
unicode = 2019;
},
{
glyphname = uni07E4;
layers = (
{
anchors = (
{
name = b.uni07F2;
position = "{318, -120}";
},
{
name = m.uni07EB_1;
position = "{318, 750}";
},
{
name = m.uniA6F0_2;
position = "{0, 0}";
},
{
name = b.u16AF0_3;
position = "{0, 0}";
}
);
hints = (
{
horizontal = 1;
place = (0,21);
target = up;
type = BottomGhost;
},
{
horizontal = 1;
place = (469,102);
type = Stem;
},
{
place = (146,50);
type = Stem;
},
{
place = (440,50);
type = Stem;
}
);
layerId = "658C8605-6260-49C3-8AFC-BEEEFEF62072";
shapes = (
{
closed = 1;
nodes = (
(146,700,l),
(146,335,l),
(196,335,l),
(196,469,l),
(440,469,l),
(440,0,l),
(490,0,l),
(490,520,ls),
(490,535,o),
(485,571,o),
(465,571,cs),
(196,571,l),
(196,700,l)
);
}
);
width = 562;
}
);
unicode = 2020;
},
{
glyphname = uni07E5;
layers = (
{
anchors = (
{
name = b.uni07F2;
position = "{384, -120}";
},
{
name = m.uni07EB_1;
position = "{384, 750}";
},
{
name = m.uniA6F0_2;
position = "{0, 0}";
},
{
name = b.u16AF0_3;
position = "{0, 0}";
}
);
hints = (
{
horizontal = 1;
place = (1,102);
type = Stem;
},
{
horizontal = 1;
place = (333,102);
type = Stem;
},
{
horizontal = 1;
place = (599,102);
type = Stem;
},
{
place = (187,50);
type = Stem;
},
{
place = (530,50);
type = Stem;
}
);
layerId = "658C8605-6260-49C3-8AFC-BEEEFEF62072";
shapes = (
{
closed = 1;
nodes = (
(192,599,l),
(530,599,l),
(530,435,l),
(212,435,ls),
(193,435,o),
(187,399,o),
(187,384,cs),
(187,52,ls),
(187,37,o),
(193,1,o),
(212,1,cs),
(555,1,ls),
(575,1,o),
(580,37,o),
(580,52,cs),
(580,650,ls),
(580,665,o),
(575,701,o),
(555,701,cs),
(192,701,l)
);
},
{
closed = 1;
nodes = (
(237,103,l),
(237,333,l),
(530,333,l),
(530,103,l)
);
}
);
width = 650;
}
);
unicode = 2021;
},
{
glyphname = uni07E6;
layers = (
{
anchors = (
{
name = b.uni07F2;
position = "{298, -120}";
},
{
name = m.uni07EB_1;
position = "{301, 750}";
},
{
name = m.uniA6F0_2;
position = "{0, 0}";
},
{
name = b.u16AF0_3;
position = "{0, 0}";
}
);
hints = (
{
horizontal = 1;
place = (1,21);
target = up;
type = BottomGhost;
},
{
horizontal = 1;
place = (461,239);
type = Stem;
},
{
place = (108,50);
type = Stem;
},
{
place = (276,50);
type = Stem;
},
{
place = (444,50);
type = Stem;
}
);
layerId = "658C8605-6260-49C3-8AFC-BEEEFEF62072";
shapes = (
{
closed = 1;
nodes = (
(108,264,o),
(175,197,o),
(276,188,c),
(276,1,l),
(326,1,l),
(326,188,l),
(428,197,o),
(494,265,o),
(494,374,cs),
(494,483,o),
(429,552,o),
(326,561,c),
(326,700,l),
(276,700,l),
(276,561,l),
(172,552,o),
(108,483,o),
(108,372,cs)
);
},
{
closed = 1;
nodes = (
(158,380,o),
(160,386,o),
(162,391,cs),
(182,443,o),
(251,461,o),
(301,461,cs),
(351,461,o),
(420,443,o),
(440,391,cs),
(442,386,o),
(444,380,o),
(444,374,cs),
(444,362,o),
(438,351,o),
(432,341,c),
(404,301,o),
(347,288,o),
(301,288,cs),
(255,288,o),
(199,301,o),
(171,341,cs),
(164,351,o),
(158,362,o),
(158,374,cs)
);
}
);
width = 521;
}
);
unicode = 2022;
},
{
glyphname = uni07E7;
layers = (
{
anchors = (
{
name = b.uni07F2;
position = "{301, -120}";
},
{
name = m.uni07EB_1;
position = "{301, 750}";
},
{
name = m.uniA6F0_2;
position = "{0, 0}";
},
{
name = b.u16AF0_3;
position = "{0, 0}";
}
);
hints = (
{
horizontal = 1;
place = (1,21);
target = up;
type = BottomGhost;
},
{
horizontal = 1;
place = (599,102);
type = Stem;
},
{
place = (108,50);
type = Stem;
},
{
place = (276,50);
type = Stem;
},
{
place = (444,50);
type = Stem;
}
);
layerId = "658C8605-6260-49C3-8AFC-BEEEFEF62072";
shapes = (
{
closed = 1;
nodes = (
(108,221,o),
(175,154,o),
(276,145,c),
(276,1,l),
(326,1,l),
(326,145,l),
(428,154,o),
(494,222,o),
(494,331,cs),
(494,440,o),
(429,509,o),
(326,518,c),
(326,599,l),
(461,599,l),
(461,701,l),
(135,701,l),
(135,599,l),
(276,599,l),
(276,518,l),
(172,509,o),
(108,440,o),
(108,329,cs)
);
},
{
closed = 1;
nodes = (
(158,337,o),
(160,343,o),
(162,348,cs),
(182,400,o),
(251,418,o),
(301,418,cs),
(351,418,o),
(420,400,o),
(440,348,cs),
(442,343,o),
(444,337,o),
(444,331,cs),
(444,319,o),
(438,308,o),
(432,298,c),
(404,258,o),
(347,245,o),
(301,245,cs),
(255,245,o),
(199,258,o),
(171,298,cs),
(164,308,o),
(158,319,o),
(158,331,cs)
);
}
);
width = 531;
}
);
unicode = 2023;
},
{
glyphname = uni07E8;
layers = (
{
anchors = (
{
name = b.uni07F2;
position = "{213, -320}";
},
{
name = m.uni07EB_1;
position = "{213, 400}";
},
{
name = m.uniA6F0_2;
position = "{0, 0}";
},
{
name = b.u16AF0_3;
position = "{0, 0}";
}
);
hints = (
{
horizontal = 1;
place = (-231,101);
type = Stem;
},
{
horizontal = 1;
place = (0,102);
type = Stem;
},
{
place = (49,328);
type = Stem;
}
);
layerId = "658C8605-6260-49C3-8AFC-BEEEFEF62072";
shapes = (
{
closed = 1;
nodes = (
(291,291,l),
(212,102,l),
(49,102,l),
(49,0,l),
(170,0,l),
(131,-95,ls),
(125,-110,o),
(117,-126,o),
(112,-142,cs),
(109,-151,o),
(108,-160,o),
(108,-169,cs),
(108,-185,o),
(113,-215,o),
(131,-219,c),
(156,-226,o),
(186,-231,o),
(213,-231,cs),
(278,-231,o),
(329,-189,o),
(376,-149,c),
(356,-55,l),
(316,-91,o),
(270,-130,o),
(213,-130,cs),
(203,-130,o),
(193,-129,o),
(183,-127,c),
(236,0,l),
(377,0,l),
(377,102,l),
(278,102,l),
(329,225,l)
);
}
);
width = 422;
}
);
unicode = 2024;
},
{
glyphname = uni07E9;
layers = (
{
anchors = (
{
name = b.uni07F2;
position = "{213, -340}";
},
{
name = m.uni07EB_1;
position = "{213, 400}";
},
{
name = m.uniA6F0_2;
position = "{0, 0}";
},
{
name = b.u16AF0_3;
position = "{0, 0}";
}
);
hints = (
{
horizontal = 1;
place = (-248,101);
type = Stem;
},
{
horizontal = 1;
place = (0,102);
type = Stem;
},
{
place = (49,328);
type = Stem;
},
{
place = (302,54);
type = Stem;
}
);
layerId = "658C8605-6260-49C3-8AFC-BEEEFEF62072";
shapes = (
{
closed = 1;
nodes = (
(49,0,l),
(170,0,l),
(131,-95,ls),
(121,-119,o),
(108,-142,o),
(108,-169,cs),
(108,-218,o),
(130,-222,o),
(170,-235,cs),
(197,-244,o),
(224,-248,o),
(252,-248,cs),
(321,-248,o),
(356,-191,o),
(356,-128,cs),
(356,-68,o),
(324,-25,o),
(278,0,c),
(377,0,l),
(377,102,l),
(278,102,l),
(329,225,l),
(291,291,l),
(212,102,l),
(49,102,l)
);
},
{
closed = 1;
nodes = (
(204,-76,l),
(238,-83,o),
(283,-104,o),
(302,-128,c),
(293,-141,o),
(264,-147,o),
(249,-147,cs),
(226,-147,o),
(202,-142,o),
(180,-136,c)
);
}
);
width = 422;
}
);
unicode = 2025;
},
{
glyphname = uni07EA;
layers = (
{
anchors = (
{
name = b.uni07F2;
position = "{213, -320}";
},
{
name = m.uni07EB_1;
position = "{213, 400}";
},
{
name = m.uniA6F0_2;
position = "{0, 0}";
},
{
name = b.u16AF0_3;
position = "{0, 0}";
}
);
hints = (
{
horizontal = 1;
place = (0,102);
type = Stem;
},
{
place = (185,50);
type = Stem;
}
);
layerId = "658C8605-6260-49C3-8AFC-BEEEFEF62072";
shapes = (
{
closed = 1;
nodes = (
(185,260,l),
(185,102,l),
(62,102,l),
(62,0,l),
(185,0,l),
(185,-217,l),
(235,-217,l),
(235,0,l),
(363,0,l),
(363,102,l),
(235,102,l),
(235,260,l)
);
}
);
width = 385;
}
);
unicode = 2026;
},
{
glyphname = uni07EB;
layers = (
{
anchors = (
{
name = _m.uni07EB_1;
position = "{163, 778}";
}
);
hints = (
{
horizontal = 1;
place = (816,102);
type = Stem;
},
{
place = (25,273);
type = Stem;
}
);
layerId = "658C8605-6260-49C3-8AFC-BEEEFEF62072";
shapes = (
{
closed = 1;
nodes = (
(25,816,l),
(298,816,l),
(298,918,l),
(25,918,l)
);
}
);
width = 333;
}
);
unicode = 2027;
},
{
glyphname = uni07EC;
layers = (
{
anchors = (
{
name = _m.uni07EB_1;
position = "{163, 778}";
}
);
hints = (
{
horizontal = 1;
place = (778,198);
type = Stem;
},
{
place = (-37,405);
type = Stem;
}
);
layerId = "658C8605-6260-49C3-8AFC-BEEEFEF62072";
shapes = (
{
closed = 1;
nodes = (
(-17,778,l),
(22,809,o),
(60,841,o),
(100,871,c),
(115,861,o),
(228,781,o),
(237,781,cs),
(246,781,o),
(275,807,o),
(284,813,c),
(368,877,l),
(350,973,l),
(236,886,l),
(221,896,o),
(108,976,o),
(99,976,cs),
(89,976,o),
(59,948,o),
(50,941,cs),
(-37,872,l)
);
}
);
width = 333;
}
);
unicode = 2028;
},
{
glyphname = uni07ED;
layers = (
{
anchors = (
{
name = _m.uni07EB_1;
position = "{131, 778}";
}
);
hints = (
{
horizontal = 1;
place = (812,130);
type = Stem;
},
{
place = (53,153);
type = Stem;
}
);
layerId = "658C8605-6260-49C3-8AFC-BEEEFEF62072";
shapes = (
{
closed = 1;
nodes = (
(53,838,o),
(83,812,o),
(130,812,cs),
(176,812,o),
(206,838,o),
(206,877,cs),
(206,916,o),
(176,942,o),
(130,942,cs),
(83,942,o),
(53,916,o),
(53,877,cs)
);
}
);
width = 247;
}
);
unicode = 2029;
},
{
glyphname = uni07EE;
layers = (
{
anchors = (
{
name = _m.uni07EB_1;
position = "{200, 778}";
}
);
hints = (
{
horizontal = 1;
place = (773,254);
type = Stem;
},
{
place = (26,336);
type = Stem;
}
);
layerId = "658C8605-6260-49C3-8AFC-BEEEFEF62072";
shapes = (
{
closed = 1;
nodes = (
(48,773,l),
(198,919,l),
(338,774,l),
(362,864,l),
(258,971,ls),
(242,988,o),
(226,1008,o),
(208,1023,cs),
(205,1025,o),
(202,1027,o),
(198,1027,cs),
(194,1027,o),
(191,1025,o),
(188,1023,cs),
(169,1008,o),
(152,988,o),
(135,971,cs),
(26,865,l)
);
}
);
width = 391;
}
);
unicode = 2030;
},
{
glyphname = uni07EF;
layers = (
{
anchors = (
{
name = _m.uni07EB_1;
position = "{213, 778}";
}
);
hints = (
{
horizontal = 1;
place = (819,102);
type = Stem;
},
{
place = (22,397);
type = Stem;
}
);
layerId = "658C8605-6260-49C3-8AFC-BEEEFEF62072";
shapes = (
{
closed = 1;
nodes = (
(22,819,l),
(394,819,ls),
(414,819,o),
(419,855,o),
(419,870,cs),
(419,913,o),
(394,929,o),
(368,958,cs),
(270,1068,l),
(244,980,l),
(297,921,l),
(22,921,l)
);
}
);
width = 437;
}
);
unicode = 2031;
},
{
glyphname = uni07F0;
layers = (
{
anchors = (
{
name = _m.uni07EB_1;
position = "{180, 778}";
}
);
hints = (
{
horizontal = 1;
place = (785,196);
type = Stem;
},
{
place = (-10,380);
type = Stem;
}
);
layerId = "658C8605-6260-49C3-8AFC-BEEEFEF62072";
shapes = (
{
closed = 1;
nodes = (
(-10,883,l),
(68,818,ls),
(76,811,o),
(102,785,o),
(112,785,cs),
(121,785,o),
(149,810,o),
(158,816,cs),
(240,876,l),
(350,789,l),
(370,883,l),
(287,948,ls),
(278,955,o),
(250,981,o),
(240,981,cs),
(231,981,o),
(203,956,o),
(194,950,cs),
(113,890,l),
(10,977,l)
);
}
);
width = 333;
}
);
unicode = 2032;
},
{
glyphname = uni07F1;
layers = (
{
anchors = (
{
name = _m.uni07EB_1;
position = "{240, 778}";
}
);
hints = (
{
horizontal = 1;
place = (819,102);
type = Stem;
},
{
place = (39,397);
type = Stem;
}
);
layerId = "658C8605-6260-49C3-8AFC-BEEEFEF62072";
shapes = (
{
closed = 1;
nodes = (
(436,921,l),
(161,921,l),
(214,980,l),
(188,1068,l),
(90,958,ls),
(64,929,o),
(39,913,o),
(39,870,cs),
(39,855,o),
(45,819,o),
(64,819,cs),
(436,819,l)
);
}
);
width = 467;
}
);
unicode = 2033;
},
{
glyphname = uni07F2;
layers = (
{
anchors = (
{
name = _b.uni07F2;
position = "{171, -122}";
}
);
hints = (
{
horizontal = 1;
place = (-187,130);
type = Stem;
},
{
place = (94,153);
type = Stem;
}
);
layerId = "658C8605-6260-49C3-8AFC-BEEEFEF62072";
shapes = (
{
closed = 1;
nodes = (
(94,-161,o),
(124,-187,o),
(171,-187,cs),
(217,-187,o),
(247,-161,o),
(247,-122,cs),
(247,-83,o),
(217,-57,o),
(171,-57,cs),
(124,-57,o),
(94,-83,o),
(94,-122,cs)
);
}
);
width = 333;
}
);
unicode = 2034;
},
{
glyphname = uni07F3;
layers = (
{
anchors = (
{
name = _m.uni07EB_1;
position = "{240, 775}";
}
);
hints = (
{
horizontal = 1;
place = (812,130);
type = Stem;
},
{
place = (53,153);
type = Stem;
},
{
place = (278,153);
type = Stem;
}
);
layerId = "658C8605-6260-49C3-8AFC-BEEEFEF62072";
shapes = (
{
closed = 1;
nodes = (
(53,838,o),
(83,812,o),
(130,812,cs),
(176,812,o),
(206,838,o),
(206,877,cs),
(206,916,o),
(176,942,o),
(130,942,cs),
(83,942,o),
(53,916,o),
(53,877,cs)
);
},
{
closed = 1;
nodes = (
(278,838,o),
(308,812,o),
(355,812,cs),
(401,812,o),
(431,838,o),
(431,877,cs),
(431,916,o),
(401,942,o),
(355,942,cs),
(308,942,o),
(278,916,o),
(278,877,cs)
);
}
);
width = 473;
}
);
unicode = 2035;
},
{
glyphname = uni07F4;
layers = (
{
hints = (
{
horizontal = 1;
place = (519,148);
type = Stem;
},
{
place = (151,50);
type = Stem;
}
);
layerId = "658C8605-6260-49C3-8AFC-BEEEFEF62072";
shapes = (
{
closed = 1;
nodes = (
(73,332,l),
(161,381,o),
(201,421,o),
(201,532,cs),
(201,588,o),
(181,667,o),
(112,667,cs),
(74,667,o),
(58,630,o),
(58,596,cs),
(58,559,o),
(75,519,o),
(117,519,cs),
(132,519,o),
(142,524,o),
(150,535,c),
(151,535,l),
(151,531,ls),
(151,476,o),
(102,452,o),
(59,430,c)
);
}
);
width = 251;
}
);
unicode = 2036;
},
{
glyphname = uni07F5;
layers = (
{
hints = (
{
horizontal = 1;
place = (352,148);
type = Stem;
},
{
place = (48,50);
type = Stem;
}
);
layerId = "658C8605-6260-49C3-8AFC-BEEEFEF62072";
shapes = (
{
closed = 1;
nodes = (
(176,687,l),
(88,638,o),
(48,598,o),
(48,487,cs),
(48,431,o),
(68,352,o),
(137,352,cs),
(176,352,o),
(191,390,o),
(191,423,cs),
(191,460,o),
(174,500,o),
(132,500,cs),
(117,500,o),
(107,495,o),
(99,484,c),
(98,488,l),
(98,543,o),
(147,567,o),
(190,589,c)
);
}
);
width = 247;
}
);
unicode = 2037;
},
{
glyphname = uni07F6;
layers = (
{
hints = (
{
horizontal = 1;
place = (0,102);
type = Stem;
},
{
horizontal = 1;
place = (338,102);
type = Stem;
},
{
horizontal = 1;
place = (599,102);
type = Stem;
},
{
place = (134,50);
type = Stem;
},
{
place = (452,54);
type = Stem;
}
);
layerId = "658C8605-6260-49C3-8AFC-BEEEFEF62072";
shapes = (
{
closed = 1;
nodes = (
(242,102,l),
(290,143,o),
(339,182,o),
(381,230,cs),
(446,303,o),
(506,421,o),
(506,520,cs),
(506,639,o),
(423,701,o),
(310,701,cs),
(202,701,o),
(134,646,o),
(134,534,cs),
(134,438,o),
(180,338,o),
(289,338,cs),
(325,338,o),
(356,343,o),
(382,352,c),
(328,278,o),
(258,225,o),
(184,161,cs),
(169,148,o),
(115,105,o),
(108,92,c),
(99,80,o),
(97,66,o),
(97,51,cs),
(97,37,o),
(102,0,o),
(122,0,cs),
(508,0,l),
(508,102,l)
);
},
{
closed = 1;
nodes = (
(431,459,o),
(359,440,o),
(289,440,cs),
(233,440,o),
(184,474,o),
(184,533,cs),
(184,543,o),
(189,553,o),
(196,560,c),
(221,592,o),
(272,599,o),
(310,599,cs),
(362,599,o),
(428,584,o),
(452,533,c)
);
}
);
width = 550;
}
);
unicode = 2038;
},
{
glyphname = uni07F7;
layers = (
{
hints = (
{
horizontal = 1;
place = (-30,102);
type = Stem;
},
{
horizontal = 1;
place = (130,110);
type = Stem;
},
{
horizontal = 1;
place = (312,101);
type = Stem;
},
{
horizontal = 1;
place = (447,110);
type = Stem;
},
{
horizontal = 1;
place = (617,102);
type = Stem;
},
{
place = (107,50);
type = Stem;
},
{
place = (235,117);
type = Stem;
},
{
place = (279,50);
type = Stem;
},
{
place = (420,117);
type = Stem;
},
{
place = (601,117);
type = Stem;
},
{
place = (621,50);
type = Stem;
},
{
place = (791,50);
type = Stem;
}
);
layerId = "658C8605-6260-49C3-8AFC-BEEEFEF62072";
shapes = (
{
closed = 1;
nodes = (
(508,6,o),
(569,-30,o),
(645,-30,cs),
(774,-30,o),
(841,72,o),
(841,192,cs),
(841,306,o),
(781,405,o),
(660,413,c),
(667,440,o),
(671,469,o),
(671,497,cs),
(671,617,o),
(604,719,o),
(475,719,cs),
(346,719,o),
(279,617,o),
(279,497,cs),
(279,469,o),
(283,440,o),
(290,413,c),
(167,405,o),
(107,307,o),
(107,192,cs),
(107,72,o),
(174,-30,o),
(303,-30,cs),
(379,-30,o),
(440,6,o),
(474,75,c)
);
},
{
closed = 1;
nodes = (
(233,72,o),
(157,114,o),
(157,192,cs),
(157,270,o),
(233,312,o),
(303,312,cs),
(334,312,o),
(359,305,o),
(387,293,c),
(388,292,o),
(390,291,o),
(392,291,c),
(412,291,o),
(417,328,o),
(417,342,cs),
(417,358,o),
(413,381,o),
(399,391,c),
(392,395,o),
(384,399,o),
(378,404,c),
(346,427,o),
(329,458,o),
(329,497,cs),
(329,575,o),
(405,617,o),
(475,617,cs),
(545,617,o),
(621,575,o),
(621,497,cs),
(621,460,o),
(605,430,o),
(576,407,c),
(569,402,o),
(562,398,o),
(555,393,c),
(542,383,o),
(538,361,o),
(538,345,cs),
(538,331,o),
(543,294,o),
(563,294,c),
(565,294,o),
(567,295,o),
(569,296,c),
(594,307,o),
(617,312,o),
(645,312,cs),
(716,312,o),
(791,270,o),
(791,192,cs),
(791,114,o),
(716,72,o),
(645,72,cs),
(584,72,o),
(515,104,o),
(502,169,cs),
(499,185,o),
(497,231,o),
(474,231,cs),
(451,231,o),
(449,185,o),
(446,169,cs),
(433,104,o),
(364,72,o),
(303,72,cs)
);
},
{
closed = 1;
nodes = (
(420,469,o),
(443,447,o),
(479,447,cs),
(514,447,o),
(537,469,o),
(537,502,cs),
(537,535,o),
(514,557,o),
(479,557,cs),
(443,557,o),
(420,535,o),
(420,502,cs)
);
},
{
closed = 1;
nodes = (
(235,152,o),
(258,130,o),
(294,130,cs),
(329,130,o),
(352,152,o),
(352,185,cs),
(352,218,o),
(329,240,o),
(294,240,cs),
(258,240,o),
(235,218,o),
(235,185,cs)
);
},
{
closed = 1;
nodes = (
(601,152,o),
(624,130,o),
(660,130,cs),
(695,130,o),
(718,152,o),
(718,185,cs),
(718,218,o),
(695,240,o),
(660,240,cs),
(624,240,o),
(601,218,o),
(601,185,cs)
);
}
);
width = 924;
}
);
unicode = 2039;
},
{
glyphname = uni07F8;
layers = (
{
hints = (
{
horizontal = 1;
place = (0,102);
type = Stem;
},
{
horizontal = 1;
place = (403,130);
type = Stem;
},
{
place = (215,153);
type = Stem;
}
);
layerId = "658C8605-6260-49C3-8AFC-BEEEFEF62072";
shapes = (
{
closed = 1;
nodes = (
(215,429,o),
(245,403,o),
(292,403,cs),
(338,403,o),
(368,429,o),
(368,468,cs),
(368,507,o),
(338,533,o),
(292,533,cs),
(245,533,o),
(215,507,o),
(215,468,cs)
);
},
{
closed = 1;
nodes = (
(94,0,l),
(472,0,l),
(472,102,l),
(94,102,l)
);
}
);
width = 529;
}
);
unicode = 2040;
},
{
glyphname = uni07F9;
layers = (
{
hints = (
{
horizontal = 1;
place = (-7,130);
type = Stem;
},
{
horizontal = 1;
place = (274,130);
type = Stem;
},
{
horizontal = 1;
place = (511,102);
type = Stem;
},
{
place = (226,153);
type = Stem;
}
);
layerId = "658C8605-6260-49C3-8AFC-BEEEFEF62072";
shapes = (
{
closed = 1;
nodes = (
(115,511,l),
(490,511,l),
(490,613,l),
(115,613,l)
);
},
{
closed = 1;
nodes = (
(226,300,o),
(256,274,o),
(303,274,cs),
(349,274,o),
(379,300,o),
(379,339,cs),
(379,378,o),
(349,404,o),
(303,404,cs),
(256,404,o),
(226,378,o),
(226,339,cs)
);
},
{
closed = 1;
nodes = (
(226,19,o),
(256,-7,o),
(303,-7,cs),
(349,-7,o),
(379,19,o),
(379,58,cs),
(379,97,o),
(349,123,o),
(303,123,cs),
(256,123,o),
(226,97,o),
(226,58,cs)
);
}
);
width = 529;
}
);
unicode = 2041;
},
{
glyphname = uni07FA;
layers = (
{
hints = (
{
horizontal = 1;
place = (0,102);
type = Stem;
},
{
place = (-51,476);
type = Stem;
}
);
layerId = "658C8605-6260-49C3-8AFC-BEEEFEF62072";
shapes = (
{
closed = 1;
nodes = (
(-51,0,l),
(425,0,l),
(425,102,l),
(-51,102,l)
);
}
);
width = 410;
}
);
unicode = 2042;
},
{
glyphname = uni07FD;
layers = (
{
hints = (
{
horizontal = 1;
place = (0,102);
type = Stem;
},
{
place = (-106,50);
type = Stem;
},
{
place = (404,50);
type = Stem;
}
);
layerId = "658C8605-6260-49C3-8AFC-BEEEFEF62072";
shapes = (
{
closed = 1;
nodes = (
(-56,-119,l),
(-56,0,l),
(404,0,l),
(404,-119,l),
(454,-119,l),
(454,51,ls),
(454,66,o),
(449,102,o),
(429,102,cs),
(-81,102,ls),
(-101,102,o),
(-106,66,o),
(-106,51,cs),
(-106,-119,l)
);
}
);
width = 333;
}
);
unicode = 2045;
},
{
glyphname = uni07FE;
layers = (
{
hints = (
{
horizontal = 1;
place = (0,186);
type = Stem;
},
{
horizontal = 1;
place = (84,102);
type = Stem;
},
{
horizontal = 1;
place = (265,102);
type = Stem;
},
{
horizontal = 1;
place = (564,102);
type = Stem;
},
{
horizontal = 1;
place = (607,102);
type = Stem;
},
{
place = (110,50);
type = Stem;
},
{
place = (373,50);
type = Stem;
},
{
place = (642,50);
type = Stem;
}
);
layerId = "658C8605-6260-49C3-8AFC-BEEEFEF62072";
shapes = (
{
closed = 1;
nodes = (
(360,644,o),
(316,666,o),
(263,666,cs),
(116,666,o),
(110,550,o),
(110,435,cs),
(110,316,ls),
(110,302,o),
(115,265,o),
(135,265,cs),
(373,265,l),
(373,186,l),
(245,186,l),
(245,84,l),
(373,84,l),
(373,0,l),
(423,0,l),
(423,84,l),
(547,84,l),
(547,186,l),
(423,186,l),
(423,265,l),
(667,265,ls),
(687,265,o),
(692,302,o),
(692,316,cs),
(692,520,ls),
(692,613,o),
(646,709,o),
(541,709,cs),
(466,709,o),
(421,666,o),
(392,601,c)
);
},
{
closed = 1;
nodes = (
(423,367,l),
(423,517,l),
(437,570,o),
(482,607,o),
(537,607,cs),
(591,607,o),
(642,578,o),
(642,518,cs),
(642,367,l)
);
},
{
closed = 1;
nodes = (
(160,367,l),
(160,457,ls),
(160,474,o),
(160,509,o),
(168,524,cs),
(186,558,o),
(228,564,o),
(263,564,cs),
(307,564,o),
(356,544,o),
(373,500,c),
(373,367,l)
);
}
);
width = 734;
}
);
unicode = 2046;
},
{
glyphname = uni07FF;
layers = (
{
hints = (
{
horizontal = 1;
place = (0,102);
type = Stem;
},
{
horizontal = 1;
place = (342,102);
type = Stem;
},
{
horizontal = 1;
place = (519,102);
type = Stem;
},
{
place = (133,50);
type = Stem;
},
{
place = (460,50);
type = Stem;
}
);
layerId = "658C8605-6260-49C3-8AFC-BEEEFEF62072";
shapes = (
{
closed = 1;
nodes = (
(133,703,l),
(133,621,l),
(35,621,l),
(35,519,l),
(133,519,l),
(133,51,ls),
(133,37,o),
(138,0,o),
(158,0,cs),
(265,0,ls),
(400,0,o),
(510,80,o),
(510,223,cs),
(510,344,o),
(444,444,o),
(315,444,cs),
(266,444,o),
(221,423,o),
(183,393,c),
(183,519,l),
(398,519,l),
(398,621,l),
(183,621,l),
(183,703,l)
);
},
{
closed = 1;
nodes = (
(183,102,l),
(183,282,l),
(219,317,o),
(264,342,o),
(315,342,cs),
(385,342,o),
(460,302,o),
(460,223,cs),
(460,207,o),
(453,191,o),
(443,178,c),
(406,125,o),
(327,102,o),
(265,102,cs)
);
}
);
width = 539;
}
);
unicode = 2047;
},
{
glyphname = aNko.fina;
layers = (
{
anchors = (
{
name = b.uni07F2;
position = "{230, -120}";
},
{
name = m.uni07EB_1;
position = "{230, 750}";
},
{
name = m.uniA6F0_2;
position = "{0, 0}";
},
{
name = b.u16AF0_3;
position = "{0, 0}";
}
);
hints = (
{
horizontal = 1;
place = (0,102);
type = Stem;
},
{
place = (205,50);
type = Stem;
}
);
layerId = "658C8605-6260-49C3-8AFC-BEEEFEF62072";
shapes = (
{
closed = 1;
nodes = (
(205,700,l),
(205,0,l),
(397,0,l),
(397,102,l),
(255,102,l),
(255,700,l)
);
}
);
width = 336;
}
);
},
{
glyphname = eeNko.fina;
layers = (
{
anchors = (
{
name = b.uni07F2;
position = "{417, -120}";
},
{
name = m.uni07EB_1;
position = "{417, 588}";
},
{
name = m.uniA6F0_2;
position = "{0, 0}";
},
{
name = b.u16AF0_3;
position = "{0, 0}";
}
);
hints = (
{
horizontal = 1;
place = (0,102);
type = Stem;
},
{
horizontal = 1;
place = (422,102);
type = Stem;
},
{
place = (142,50);
type = Stem;
},
{
place = (602,261);
type = Stem;
},
{
place = (642,50);
type = Stem;
}
);
layerId = "658C8605-6260-49C3-8AFC-BEEEFEF62072";
shapes = (
{
closed = 1;
nodes = (
(142,94,o),
(257,-2,o),
(417,-2,cs),
(491,-2,o),
(554,18,o),
(602,56,c),
(602,0,l),
(863,0,l),
(863,102,l),
(645,102,l),
(675,143,o),
(692,197,o),
(692,261,cs),
(692,427,o),
(579,524,o),
(417,524,cs),
(253,524,o),
(142,426,o),
(142,259,cs)
);
},
{
closed = 1;
nodes = (
(192,335,o),
(254,386,o),
(319,408,cs),
(350,418,o),
(384,422,o),
(417,422,cs),
(450,422,o),
(484,418,o),
(515,408,cs),
(580,386,o),
(642,335,o),
(642,261,cs),
(642,187,o),
(580,136,o),
(515,114,cs),
(484,104,o),
(450,100,o),
(417,100,cs),
(384,100,o),
(350,104,o),
(319,114,cs),
(254,136,o),
(192,187,o),
(192,261,cs)
);
}
);
width = 796;
}
);
},
{
glyphname = iNko.fina;
layers = (
{
anchors = (
{
name = b.uni07F2;
position = "{250, -120}";
},
{
name = m.uni07EB_1;
position = "{250, 750}";
},
{
name = m.uniA6F0_2;
position = "{0, 0}";
},
{
name = b.u16AF0_3;
position = "{0, 0}";
}
);
hints = (
{
horizontal = 1;
place = (0,102);
type = Stem;
},
{
place = (225,50);
type = Stem;
}
);
layerId = "658C8605-6260-49C3-8AFC-BEEEFEF62072";
shapes = (
{
closed = 1;
nodes = (
(56,656,l),
(225,301,l),
(225,0,l),
(526,0,l),
(526,102,l),
(275,102,l),
(275,300,l),
(450,654,l),
(414,726,l),
(250,394,l),
(94,724,l)
);
}
);
width = 478;
}
);
},
{
glyphname = eNko.fina;
layers = (
{
anchors = (
{
name = b.uni07F2;
position = "{336, -120}";
},
{
name = m.uni07EB_1;
position = "{336, 588}";
},
{
name = m.uniA6F0_2;
position = "{0, 0}";
},
{
name = b.u16AF0_3;
position = "{0, 0}";
}
);
hints = (
{
horizontal = 1;
place = (0,102);
type = Stem;
},
{
place = (59,663);
type = Stem;
}
);
layerId = "658C8605-6260-49C3-8AFC-BEEEFEF62072";
shapes = (
{
closed = 1;
nodes = (
(91,-25,l),
(336,382,l),
(550,31,l),
(555,21,o),
(564,0,o),
(577,0,cs),
(722,0,l),
(722,102,l),
(586,102,l),
(364,468,ls),
(358,478,o),
(349,499,o),
(336,499,cs),
(323,499,o),
(313,475,o),
(307,465,cs),
(59,53,l)
);
}
);
width = 643;
}
);
},
{
glyphname = uNko.fina;
layers = (
{
anchors = (
{
name = b.uni07F2;
position = "{409, -120}";
},
{
name = m.uni07EB_1;
position = "{409, 588}";
},
{
name = m.uniA6F0_2;
position = "{0, 0}";
},
{
name = b.u16AF0_3;
position = "{0, 0}";
}
);
hints = (
{
horizontal = 1;
place = (-21,102);
type = Stem;
},
{
horizontal = 1;
place = (0,81);
type = Stem;
},
{
horizontal = 1;
place = (0,102);
type = Stem;
},
{
place = (199,50);
type = Stem;
},
{
place = (569,50);
type = Stem;
},
{
place = (573,206);
type = Stem;
}
);
layerId = "658C8605-6260-49C3-8AFC-BEEEFEF62072";
shapes = (
{
closed = 1;
nodes = (
(199,500,l),
(199,0,l),
(249,0,l),
(249,73,l),
(284,19,o),
(337,-21,o),
(409,-21,cs),
(484,-21,o),
(538,9,o),
(573,57,c),
(573,0,l),
(779,0,l),
(779,102,l),
(598,102,l),
(612,136,o),
(619,176,o),
(619,218,cs),
(619,500,l),
(569,500,l),
(569,415,o),
(569,331,o),
(569,246,cs),
(569,230,o),
(569,213,o),
(567,196,cs),
(557,117,o),
(482,81,o),
(409,81,cs),
(321,81,o),
(268,149,o),
(249,228,c),
(249,500,l)
);
}
);
width = 690;
}
);
},
{
glyphname = ooNko.fina;
layers = (
{
anchors = (
{
name = b.uni07F2;
position = "{320, -120}";
},
{
name = m.uni07EB_1;
position = "{320, 588}";
},
{
name = m.uniA6F0_2;
position = "{0, 0}";
},
{
name = b.u16AF0_3;
position = "{0, 0}";
}
);
hints = (
{
horizontal = 1;
place = (0,102);
type = Stem;
},
{
horizontal = 1;
place = (415,101);
type = Stem;
},
{
place = (482,50);
type = Stem;
},
{
place = (510,164);
type = Stem;
}
);
layerId = "658C8605-6260-49C3-8AFC-BEEEFEF62072";
shapes = (
{
closed = 1;
nodes = (
(131,414,l),
(216,414,o),
(300,415,o),
(385,415,cs),
(428,415,o),
(482,412,o),
(482,355,cs),
(482,173,ls),
(482,110,o),
(451,101,o),
(395,101,cs),
(374,101,o),
(353,102,o),
(332,102,cs),
(131,102,l),
(131,0,l),
(422,0,ls),
(466,0,o),
(493,26,o),
(510,61,c),
(510,0,l),
(674,0,l),
(674,102,l),
(524,102,l),
(530,126,o),
(532,150,o),
(532,172,cs),
(532,357,ls),
(532,434,o),
(501,516,o),
(411,516,cs),
(131,516,l)
);
}
);
width = 593;
}
);
},
{
glyphname = oNko.fina;
layers = (
{
anchors = (
{
name = b.uni07F2;
position = "{354, -120}";
},
{
name = m.uni07EB_1;
position = "{361, 750}";
},
{
name = m.uniA6F0_2;
position = "{0, 0}";
},
{
name = b.u16AF0_3;
position = "{0, 0}";
}
);
hints = (
{
horizontal = 1;
place = (0,102);
type = Stem;
},
{
horizontal = 1;
place = (282,101);
type = Stem;
},
{
horizontal = 1;
place = (616,102);
type = Stem;
},
{
place = (138,50);
type = Stem;
},
{
place = (329,50);
type = Stem;
},
{
place = (533,50);
type = Stem;
}
);
layerId = "658C8605-6260-49C3-8AFC-BEEEFEF62072";
shapes = (
{
closed = 1;
nodes = (
(138,374,o),
(214,295,o),
(329,283,c),
(329,102,l),
(147,102,l),
(147,0,l),
(705,0,l),
(705,102,l),
(379,102,l),
(379,282,l),
(503,289,o),
(583,371,o),
(583,500,cs),
(583,635,o),
(494,718,o),
(361,718,cs),
(225,718,o),
(138,635,o),
(138,498,cs)
);
},
{
closed = 1;
nodes = (
(188,518,o),
(195,535,o),
(205,549,cs),
(238,599,o),
(304,616,o),
(361,616,cs),
(428,616,o),
(533,582,o),
(533,500,cs),
(533,482,o),
(526,465,o),
(517,450,c),
(483,400,o),
(418,383,o),
(361,383,cs),
(304,383,o),
(238,400,o),
(205,450,cs),
(195,465,o),
(188,482,o),
(188,500,cs)
);
}
);
width = 632;
}
);
},
{
glyphname = dagbasinnaNko.fina;
layers = (
{
anchors = (
{
name = b.uni07F2;
position = "{250, -120}";
},
{
name = m.uni07EB_1;
position = "{280, 750}";
},
{
name = m.uniA6F0_2;
position = "{0, 0}";
},
{
name = b.u16AF0_3;
position = "{0, 0}";
}
);
hints = (
{
horizontal = 1;
place = (0,102);
type = Stem;
},
{
horizontal = 1;
place = (352,148);
type = Stem;
},
{
place = (173,50);
type = Stem;
}
);
layerId = "658C8605-6260-49C3-8AFC-BEEEFEF62072";
shapes = (
{
closed = 1;
nodes = (
(301,687,l),
(213,638,o),
(173,598,o),
(173,487,cs),
(173,431,o),
(193,352,o),
(262,352,cs),
(301,352,o),
(316,390,o),
(316,423,cs),
(316,460,o),
(299,500,o),
(257,500,cs),
(242,500,o),
(232,495,o),
(224,484,c),
(223,488,l),
(223,543,o),
(272,567,o),
(315,589,c)
);
},
{
closed = 1;
nodes = (
(78,0,l),
(540,0,l),
(540,102,l),
(78,102,l)
);
}
);
width = 471;
}
);
},
{
glyphname = nNko.fina;
layers = (
{
anchors = (
{
name = b.uni07F2;
position = "{358, -120}";
},
{
name = m.uni07EB_1;
position = "{358, 750}";
},
{
name = m.uniA6F0_2;
position = "{0, 0}";
},
{
name = b.u16AF0_3;
position = "{0, 0}";
}
);
hints = (
{
horizontal = 1;
place = (0,102);
type = Stem;
},
{
horizontal = 1;
place = (359,101);
type = Stem;
},
{
horizontal = 1;
place = (616,102);
type = Stem;
},
{
place = (91,50);
type = Stem;
},
{
place = (333,50);
type = Stem;
},
{
place = (547,50);
type = Stem;
}
);
layerId = "658C8605-6260-49C3-8AFC-BEEEFEF62072";
shapes = (
{
closed = 1;
nodes = (
(383,213,l),
(383,359,l),
(390,359,o),
(396,359,o),
(403,359,cs),
(413,359,o),
(422,359,o),
(430,359,cs),
(565,359,o),
(547,355,o),
(547,204,cs),
(547,0,l),
(756,0,l),
(756,102,l),
(597,102,l),
(597,294,ls),
(597,369,o),
(582,460,o),
(488,460,c),
(383,459,l),
(383,463,ls),
(383,561,o),
(381,718,o),
(246,718,cs),
(135,718,o),
(91,634,o),
(91,533,cs),
(91,405,o),
(176,362,o),
(291,359,c),
(305,359,o),
(319,359,o),
(333,359,c),
(333,213,l)
);
},
{
closed = 1;
nodes = (
(280,459,o),
(196,462,o),
(157,501,cs),
(148,510,o),
(141,520,o),
(141,534,cs),
(141,594,o),
(194,616,o),
(246,616,cs),
(335,616,o),
(333,543,o),
(333,475,cs),
(333,470,o),
(333,465,o),
(333,459,c)
);
}
);
width = 657;
}
);
},
{
glyphname = baNko.fina;
layers = (
{
anchors = (
{
name = b.uni07F2;
position = "{370, -120}";
},
{
name = m.uni07EB_1;
position = "{370, 750}";
},
{
name = m.uniA6F0_2;
position = "{0, 0}";
},
{
name = b.u16AF0_3;
position = "{0, 0}";
}
);
hints = (
{
horizontal = 1;
place = (0,102);
type = Stem;
},
{
horizontal = 1;
place = (333,102);
type = Stem;
},
{
horizontal = 1;
place = (602,102);
type = Stem;
},
{
place = (181,50);
type = Stem;
}
);
layerId = "658C8605-6260-49C3-8AFC-BEEEFEF62072";
shapes = (
{
closed = 1;
nodes = (
(471,704,l),
(206,704,ls),
(187,704,o),
(181,668,o),
(181,653,cs),
(181,0,l),
(593,0,l),
(593,102,l),
(231,102,l),
(231,333,l),
(463,333,l),
(463,435,l),
(231,435,l),
(231,602,l),
(471,602,l)
);
}
);
width = 508;
}
);
},
{
glyphname = paNko.fina;
layers = (
{
anchors = (
{
name = b.uni07F2;
position = "{310, -120}";
},
{
name = m.uni07EB_1;
position = "{310, 750}";
},
{
name = m.uniA6F0_2;
position = "{0, 0}";
},
{
name = b.u16AF0_3;
position = "{0, 0}";
}
);
hints = (
{
horizontal = 1;
place = (0,102);
type = Stem;
},
{
horizontal = 1;
place = (333,102);
type = Stem;
},
{
horizontal = 1;
place = (602,102);
type = Stem;
},
{
place = (380,50);
type = Stem;
}
);
layerId = "658C8605-6260-49C3-8AFC-BEEEFEF62072";
shapes = (
{
closed = 1;
nodes = (
(140,602,l),
(380,602,l),
(380,435,l),
(148,435,l),
(148,333,l),
(380,333,l),
(380,0,l),
(574,0,l),
(574,102,l),
(430,102,l),
(430,653,ls),
(430,668,o),
(425,704,o),
(405,704,cs),
(140,704,l)
);
}
);
width = 508;
}
);
},
{
glyphname = taNko.fina;
layers = (
{
anchors = (
{
name = b.uni07F2;
position = "{342, -120}";
},
{
name = m.uni07EB_1;
position = "{342, 750}";
},
{
name = m.uniA6F0_2;
position = "{0, 0}";
},
{
name = b.u16AF0_3;
position = "{0, 0}";
}
);
hints = (
{
horizontal = 1;
place = (0,102);
type = Stem;
},
{
horizontal = 1;
place = (342,102);
type = Stem;
},
{
place = (160,50);
type = Stem;
},
{
place = (437,207);
type = Stem;
},
{
place = (487,50);
type = Stem;
}
);
layerId = "658C8605-6260-49C3-8AFC-BEEEFEF62072";
shapes = (
{
closed = 1;
nodes = (
(160,703,l),
(160,51,ls),
(160,37,o),
(165,0,o),
(185,0,cs),
(292,0,ls),
(346,0,o),
(396,13,o),
(437,38,c),
(437,0,l),
(644,0,l),
(644,102,l),
(503,102,l),
(525,135,o),
(537,175,o),
(537,223,cs),
(537,344,o),
(471,444,o),
(342,444,cs),
(293,444,o),
(248,423,o),
(210,393,c),
(210,703,l)
);
},
{
closed = 1;
nodes = (
(210,102,l),
(210,282,l),
(246,317,o),
(291,342,o),
(342,342,cs),
(412,342,o),
(487,302,o),
(487,223,cs),
(487,207,o),
(480,191,o),
(470,178,cs),
(433,125,o),
(354,102,o),
(292,102,cs)
);
}
);
width = 586;
}
);
},
{
glyphname = jaNko.fina;
layers = (
{
anchors = (
{
name = b.uni07F2;
position = "{358, -120}";
},
{
name = m.uni07EB_1;
position = "{280, 750}";
},
{
name = m.uniA6F0_2;
position = "{0, 0}";
},
{
name = b.u16AF0_3;
position = "{0, 0}";
}
);
hints = (
{
horizontal = 1;
place = (0,102);
type = Stem;
},
{
horizontal = 1;
place = (612,102);
type = Stem;
},
{
place = (333,48);
type = Stem;
}
);
layerId = "658C8605-6260-49C3-8AFC-BEEEFEF62072";
shapes = (
{
closed = 1;
nodes = (
(452,714,l),
(118,714,ls),
(98,714,o),
(93,677,o),
(93,663,cs),
(93,651,o),
(95,638,o),
(100,627,cs),
(111,605,o),
(132,585,o),
(147,565,cs),
(287,380,o),
(333,229,o),
(333,0,c),
(553,0,l),
(553,102,l),
(381,102,l),
(370,294,o),
(319,442,o),
(202,612,c),
(452,612,l)
);
}
);
width = 490;
}
);
},
{
glyphname = chaNko.fina;
layers = (
{
anchors = (
{
name = b.uni07F2;
position = "{345, -120}";
},
{
name = m.uni07EB_1;
position = "{290, 750}";
},
{
name = m.uniA6F0_2;
position = "{0, 0}";
},
{
name = b.u16AF0_3;
position = "{0, 0}";
}
);
hints = (
{
horizontal = 1;
place = (0,102);
type = Stem;
},
{
place = (320,50);
type = Stem;
}
);
layerId = "658C8605-6260-49C3-8AFC-BEEEFEF62072";
shapes = (
{
closed = 1;
nodes = (
(370,-1,l),
(370,0,l),
(507,0,l),
(507,102,l),
(370,102,l),
(370,678,ls),
(370,693,o),
(365,729,o),
(345,729,cs),
(334,729,o),
(316,704,o),
(308,696,cs),
(89,460,l),
(113,370,l),
(320,593,l),
(320,-1,l)
);
}
);
width = 441;
}
);
},
{
glyphname = daNko.fina;
layers = (
{
anchors = (
{
name = b.uni07F2;
position = "{453, -120}";
},
{
name = m.uni07EB_1;
position = "{453, 588}";
},
{
name = m.uniA6F0_2;
position = "{0, 0}";
},
{
name = b.u16AF0_3;
position = "{0, 0}";
}
);
hints = (
{
horizontal = 1;
place = (0,102);
type = Stem;
},
{
horizontal = 1;
place = (372,102);
type = Stem;
},
{
horizontal = 1;
place = (415,102);
type = Stem;
},
{
place = (165,50);
type = Stem;
},
{
place = (428,50);
type = Stem;
},
{
place = (697,50);
type = Stem;
}
);
layerId = "658C8605-6260-49C3-8AFC-BEEEFEF62072";
shapes = (
{
closed = 1;
nodes = (
(415,452,o),
(371,474,o),
(318,474,cs),
(171,474,o),
(165,358,o),
(165,243,cs),
(165,51,ls),
(165,37,o),
(170,0,o),
(190,0,cs),
(884,0,l),
(884,102,l),
(747,102,l),
(747,328,ls),
(747,421,o),
(701,517,o),
(596,517,cs),
(521,517,o),
(476,474,o),
(447,409,c)
);
},
{
closed = 1;
nodes = (
(478,102,l),
(478,325,l),
(492,378,o),
(537,415,o),
(592,415,cs),
(646,415,o),
(697,386,o),
(697,326,cs),
(697,102,l)
);
},
{
closed = 1;
nodes = (
(215,102,l),
(215,265,ls),
(215,282,o),
(215,317,o),
(223,332,cs),
(241,366,o),
(283,372,o),
(318,372,cs),
(362,372,o),
(411,352,o),
(428,308,c),
(428,102,l)
);
}
);
width = 813;
}
);
},
{
glyphname = raNko.fina;
layers = (
{
anchors = (
{
name = b.uni07F2;
position = "{217, -120}";
},
{
name = m.uni07EB_1;
position = "{217, 750}";
},
{
name = m.uniA6F0_2;
position = "{0, 0}";
},
{
name = b.u16AF0_3;
position = "{0, 0}";
}
);
hints = (
{
horizontal = 1;
place = (0,102);
type = Stem;
},
{
horizontal = 1;
place = (389,102);
type = Stem;
},
{
place = (192,50);
type = Stem;
}
);
layerId = "658C8605-6260-49C3-8AFC-BEEEFEF62072";
shapes = (
{
closed = 1;
nodes = (
(192,700,l),
(192,491,l),
(73,491,l),
(73,389,l),
(192,389,l),
(192,0,l),
(467,0,l),
(467,102,l),
(242,102,l),
(242,389,l),
(357,389,l),
(357,491,l),
(242,491,l),
(242,700,l)
);
}
);
width = 395;
}
);
},
{
glyphname = rraNko.fina;
layers = (
{
anchors = (
{
name = b.uni07F2;
position = "{330, -120}";
},
{
name = m.uni07EB_1;
position = "{330, 750}";
},
{
name = m.uniA6F0_2;
position = "{0, 0}";
},
{
name = b.u16AF0_3;
position = "{0, 0}";
}
);
hints = (
{
horizontal = 1;
place = (-7,102);
type = Stem;
},
{
horizontal = 1;
place = (0,102);
type = Stem;
},
{
horizontal = 1;
place = (400,102);
type = Stem;
},
{
place = (177,50);
type = Stem;
},
{
place = (428,50);
type = Stem;
},
{
place = (450,242);
type = Stem;
}
);
layerId = "658C8605-6260-49C3-8AFC-BEEEFEF62072";
shapes = (
{
closed = 1;
nodes = (
(428,713,l),
(428,502,l),
(227,502,l),
(227,700,l),
(177,700,l),
(177,502,l),
(42,502,l),
(42,400,l),
(177,400,l),
(177,0,l),
(227,0,l),
(227,70,l),
(258,27,o),
(299,-7,o),
(354,-7,cs),
(402,-7,o),
(432,9,o),
(450,34,c),
(450,0,l),
(692,0,l),
(692,102,l),
(474,102,l),
(478,124,o),
(478,148,o),
(478,172,cs),
(478,400,l),
(591,400,l),
(591,502,l),
(478,502,l),
(478,713,l)
);
},
{
closed = 1;
nodes = (
(227,400,l),
(428,400,l),
(428,172,ls),
(428,160,o),
(429,131,o),
(423,121,c),
(412,99,o),
(376,95,o),
(354,95,cs),
(290,95,o),
(250,152,o),
(227,204,c)
);
}
);
width = 617;
}
);
},
{
glyphname = saNko.fina;
layers = (
{
anchors = (
{
name = b.uni07F2;
position = "{480, -120}";
},
{
name = m.uni07EB_1;
position = "{480, 588}";
},
{
name = m.uniA6F0_2;
position = "{0, 0}";
},
{
name = b.u16AF0_3;
position = "{0, 0}";
}
);
hints = (
{
horizontal = 1;
place = (0,102);
type = Stem;
},
{
horizontal = 1;
place = (415,102);
type = Stem;
},
{
place = (174,50);
type = Stem;
},
{
place = (684,50);
type = Stem;
}
);
layerId = "658C8605-6260-49C3-8AFC-BEEEFEF62072";
shapes = (
{
closed = 1;
nodes = (
(340,517,ls),
(231,517,o),
(174,441,o),
(174,337,cs),
(174,51,ls),
(174,37,o),
(179,0,o),
(199,0,cs),
(588,0,ls),
(632,0,o),
(665,16,o),
(689,40,c),
(689,0,l),
(863,0,l),
(863,102,l),
(724,102,l),
(731,124,o),
(734,148,o),
(734,173,cs),
(734,466,ls),
(734,480,o),
(729,517,o),
(709,517,cs)
);
},
{
closed = 1;
nodes = (
(684,415,l),
(684,175,ls),
(684,124,o),
(632,102,o),
(588,102,cs),
(224,102,l),
(224,335,ls),
(224,393,o),
(292,415,o),
(340,415,cs)
);
}
);
width = 798;
}
);
},
{
glyphname = gbaNko.fina;
layers = (
{
anchors = (
{
name = b.uni07F2;
position = "{331, -120}";
},
{
name = m.uni07EB_1;
position = "{331, 750}";
},
{
name = m.uniA6F0_2;
position = "{0, 0}";
},
{
name = b.u16AF0_3;
position = "{0, 0}";
}
);
hints = (
{
horizontal = 1;
place = (0,102);
type = Stem;
},
{
horizontal = 1;
place = (596,102);
type = Stem;
},
{
place = (76,622);
type = Stem;
}
);
layerId = "658C8605-6260-49C3-8AFC-BEEEFEF62072";
shapes = (
{
closed = 1;
nodes = (
(698,0,l),
(698,102,l),
(383,102,l),
(390,122,o),
(396,139,o),
(399,147,cs),
(558,569,ls),
(568,594,o),
(581,620,o),
(581,647,cs),
(581,662,o),
(576,698,o),
(556,698,cs),
(101,698,ls),
(82,698,o),
(76,662,o),
(76,647,cs),
(76,620,o),
(89,595,o),
(99,570,cs),
(262,147,ls),
(271,123,o),
(306,23,o),
(317,10,c),
(320,5,o),
(324,1,o),
(330,0,c)
);
},
{
closed = 1;
nodes = (
(331,134,l),
(153,596,l),
(505,596,l)
);
}
);
width = 613;
}
);
},
{
glyphname = faNko.fina;
layers = (
{
anchors = (
{
name = b.uni07F2;
position = "{423, -120}";
},
{
name = m.uni07EB_1;
position = "{460, 750}";
},
{
name = m.uniA6F0_2;
position = "{0, 0}";
},
{
name = b.u16AF0_3;
position = "{0, 0}";
}
);
hints = (
{
horizontal = 1;
place = (0,102);
type = Stem;
},
{
horizontal = 1;
place = (337,101);
type = Stem;
},
{
horizontal = 1;
place = (617,102);
type = Stem;
},
{
place = (137,50);
type = Stem;
},
{
place = (398,50);
type = Stem;
},
{
place = (641,50);
type = Stem;
}
);
layerId = "658C8605-6260-49C3-8AFC-BEEEFEF62072";
shapes = (
{
closed = 1;
nodes = (
(137,51,ls),
(137,36,o),
(143,0,o),
(162,0,cs),
(805,0,l),
(805,102,l),
(448,102,l),
(448,125,o),
(448,148,o),
(448,171,cs),
(448,336,l),
(464,336,o),
(480,335,o),
(497,335,cs),
(609,335,o),
(691,400,o),
(691,517,cs),
(691,610,o),
(654,719,o),
(544,719,cs),
(501,719,o),
(470,704,o),
(442,672,cs),
(393,616,o),
(396,515,o),
(397,438,c),
(223,438,ls),
(156,438,o),
(137,364,o),
(137,310,cs)
);
},
{
closed = 1;
nodes = (
(447,452,o),
(447,466,o),
(447,480,cs),
(447,507,o),
(447,536,o),
(455,562,cs),
(468,600,o),
(506,617,o),
(544,617,cs),
(605,617,o),
(641,577,o),
(641,517,cs),
(641,478,o),
(579,449,o),
(547,442,cs),
(526,438,o),
(505,437,o),
(484,437,cs),
(472,437,o),
(459,437,o),
(447,437,c)
);
},
{
closed = 1;
nodes = (
(187,102,l),
(187,309,ls),
(187,336,o),
(216,337,o),
(237,337,c),
(238,337,o),
(240,337,o),
(241,337,c),
(293,337,o),
(346,336,o),
(398,336,c),
(398,102,l)
);
}
);
width = 721;
}
);
},
{
glyphname = kaNko.fina;
layers = (
{
anchors = (
{
name = b.uni07F2;
position = "{320, -120}";
},
{
name = m.uni07EB_1;
position = "{320, 750}";
},
{
name = m.uniA6F0_2;
position = "{0, 0}";
},
{
name = b.u16AF0_3;
position = "{0, 0}";
}
);
hints = (
{
horizontal = 1;
place = (0,102);
type = Stem;
},
{
horizontal = 1;
place = (366,102);
type = Stem;
},
{
place = (137,50);
type = Stem;
},
{
place = (451,50);
type = Stem;
}
);
layerId = "658C8605-6260-49C3-8AFC-BEEEFEF62072";
shapes = (
{
closed = 1;
nodes = (
(451,700,l),
(451,468,l),
(187,468,l),
(187,584,l),
(137,584,l),
(137,251,l),
(187,251,l),
(187,366,l),
(451,366,l),
(451,0,l),
(634,0,l),
(634,102,l),
(501,102,l),
(501,700,l)
);
}
);
width = 574;
}
);
},
{
glyphname = laNko.fina;
layers = (
{
anchors = (
{
name = b.uni07F2;
position = "{358, -120}";
},
{
name = m.uni07EB_1;
position = "{310, 750}";
},
{
name = m.uniA6F0_2;
position = "{0, 0}";
},
{
name = b.u16AF0_3;
position = "{0, 0}";
}
);
hints = (
{
horizontal = 1;
place = (0,102);
type = Stem;
},
{
horizontal = 1;
place = (358,101);
type = Stem;
},
{
horizontal = 1;
place = (616,102);
type = Stem;
},
{
place = (91,50);
type = Stem;
},
{
place = (333,50);
type = Stem;
}
);
layerId = "658C8605-6260-49C3-8AFC-BEEEFEF62072";
shapes = (
{
closed = 1;
nodes = (
(650,0,l),
(650,102,l),
(383,102,l),
(383,358,l),
(525,358,l),
(525,460,l),
(478,460,o),
(431,459,o),
(383,459,c),
(383,463,ls),
(383,561,o),
(381,718,o),
(246,718,cs),
(135,718,o),
(91,634,o),
(91,533,cs),
(91,390,o),
(195,358,o),
(317,358,cs),
(333,358,l),
(333,358,o),
(333,358,o),
(333,358,c),
(333,0,l)
);
},
{
closed = 1;
nodes = (
(289,459,o),
(141,465,o),
(141,534,cs),
(141,594,o),
(194,616,o),
(246,616,cs),
(288,616,o),
(318,600,o),
(327,557,cs),
(333,528,o),
(335,494,o),
(335,459,c)
);
}
);
width = 565;
}
);
},
{
glyphname = nawolosoNko.fina;
layers = (
{
anchors = (
{
name = b.uni07F2;
position = "{246, -120}";
},
{
name = m.uni07EB_1;
position = "{246, 750}";
},
{
name = m.uniA6F0_2;
position = "{0, 0}";
},
{
name = b.u16AF0_3;
position = "{0, 0}";
}
);
hints = (
{
horizontal = 1;
place = (0,102);
type = Stem;
},
{
horizontal = 1;
place = (597,102);
type = Stem;
},
{
place = (221,50);
type = Stem;
}
);
layerId = "658C8605-6260-49C3-8AFC-BEEEFEF62072";
shapes = (
{
closed = 1;
nodes = (
(47,597,l),
(221,597,l),
(221,0,l),
(573,0,l),
(573,102,l),
(271,102,l),
(271,597,l),
(453,597,l),
(453,699,l),
(47,699,l)
);
}
);
width = 475;
}
);
},
{
glyphname = maNko.fina;
layers = (
{
anchors = (
{
name = b.uni07F2;
position = "{331, -120}";
},
{
name = m.uni07EB_1;
position = "{331, 750}";
},
{
name = m.uniA6F0_2;
position = "{0, 0}";
},
{
name = b.u16AF0_3;
position = "{0, 0}";
}
);
hints = (
{
horizontal = 1;
place = (0,102);
type = Stem;
},
{
place = (76,613);
type = Stem;
}
);
layerId = "658C8605-6260-49C3-8AFC-BEEEFEF62072";
shapes = (
{
closed = 1;
nodes = (
(325,698,o),
(320,693,o),
(317,688,c),
(306,675,o),
(271,575,o),
(262,551,cs),
(99,128,ls),
(89,103,o),
(76,78,o),
(76,51,cs),
(76,36,o),
(82,0,o),
(101,0,cs),
(689,0,l),
(689,102,l),
(569,102,l),
(566,111,o),
(562,120,o),
(558,129,c),
(399,551,ls),
(390,575,o),
(355,676,o),
(346,688,cs),
(342,693,o),
(337,698,o),
(331,698,cs)
);
},
{
closed = 1;
nodes = (
(505,102,l),
(153,102,l),
(331,564,l)
);
}
);
width = 613;
}
);
},
{
glyphname = nyaNko.fina;
layers = (
{
anchors = (
{
name = b.uni07F2;
position = "{302, -120}";
},
{
name = m.uni07EB_1;
position = "{260, 750}";
},
{
name = m.uniA6F0_2;
position = "{0, 0}";
},
{
name = b.u16AF0_3;
position = "{0, 0}";
}
);
hints = (
{
horizontal = 1;
place = (0,102);
type = Stem;
},
{
horizontal = 1;
place = (614,102);
type = Stem;
},
{
place = (108,50);
type = Stem;
},
{
place = (277,50);
type = Stem;
},
{
place = (444,50);
type = Stem;
}
);
layerId = "658C8605-6260-49C3-8AFC-BEEEFEF62072";
shapes = (
{
closed = 1;
nodes = (
(71,614,l),
(277,614,l),
(277,533,l),
(172,523,o),
(108,454,o),
(108,343,cs),
(108,235,o),
(176,168,o),
(277,158,c),
(277,0,l),
(613,0,l),
(613,102,l),
(327,102,l),
(327,159,l),
(428,169,o),
(494,236,o),
(494,345,cs),
(494,454,o),
(429,522,o),
(327,532,c),
(327,665,ls),
(327,680,o),
(322,716,o),
(302,716,cs),
(71,716,l)
);
},
{
closed = 1;
nodes = (
(158,351,o),
(160,357,o),
(162,362,cs),
(182,414,o),
(251,432,o),
(301,432,cs),
(351,432,o),
(420,414,o),
(440,362,cs),
(442,357,o),
(444,351,o),
(444,345,cs),
(444,333,o),
(438,322,o),
(432,312,c),
(404,272,o),
(347,259,o),
(301,259,cs),
(255,259,o),
(199,272,o),
(171,312,cs),
(164,322,o),
(158,333,o),
(158,345,cs)
);
}
);
width = 527;
}
);
},
{
glyphname = naNko.fina;
layers = (
{
anchors = (
{
name = b.uni07F2;
position = "{330, -120}";
},
{
name = m.uni07EB_1;
position = "{330, 750}";
},
{
name = m.uniA6F0_2;
position = "{0, 0}";
},
{
name = b.u16AF0_3;
position = "{0, 0}";
}
);
hints = (
{
horizontal = 1;
place = (0,102);
type = Stem;
},
{
horizontal = 1;
place = (598,102);
type = Stem;
},
{
place = (146,50);
type = Stem;
},
{
place = (427,50);
type = Stem;
}
);
layerId = "658C8605-6260-49C3-8AFC-BEEEFEF62072";
shapes = (
{
closed = 1;
nodes = (
(196,441,l),
(196,470,o),
(196,498,o),
(196,527,cs),
(196,579,o),
(238,598,o),
(284,598,cs),
(427,598,l),
(427,0,l),
(613,0,l),
(613,102,l),
(477,102,l),
(477,649,ls),
(477,664,o),
(472,700,o),
(452,700,cs),
(284,700,ls),
(186,700,o),
(146,622,o),
(146,534,cs),
(146,441,l)
);
}
);
width = 552;
}
);
},
{
glyphname = haNko.fina;
layers = (
{
anchors = (
{
name = b.uni07F2;
position = "{330, -120}";
},
{
name = m.uni07EB_1;
position = "{330, 750}";
},
{
name = m.uniA6F0_2;
position = "{0, 0}";
},
{
name = b.u16AF0_3;
position = "{0, 0}";
}
);
hints = (
{
horizontal = 1;
place = (0,102);
type = Stem;
},
{
horizontal = 1;
place = (469,102);
type = Stem;
},
{
place = (146,50);
type = Stem;
},
{
place = (440,50);
type = Stem;
}
);
layerId = "658C8605-6260-49C3-8AFC-BEEEFEF62072";
shapes = (
{
closed = 1;
nodes = (
(146,700,l),
(146,335,l),
(196,335,l),
(196,469,l),
(440,469,l),
(440,0,l),
(624,0,l),
(624,102,l),
(490,102,l),
(490,520,ls),
(490,535,o),
(485,571,o),
(465,571,cs),
(196,571,l),
(196,700,l)
);
}
);
width = 562;
}
);
},
{
glyphname = waNko.fina;
layers = (
{
anchors = (
{
name = b.uni07F2;
position = "{380, -120}";
},
{
name = m.uni07EB_1;
position = "{380, 750}";
},
{
name = m.uniA6F0_2;
position = "{0, 0}";
},
{
name = b.u16AF0_3;
position = "{0, 0}";
}
);
hints = (
{
horizontal = 1;
place = (0,102);
type = Stem;
},
{
horizontal = 1;
place = (1,102);
type = Stem;
},
{
horizontal = 1;
place = (333,102);
type = Stem;
},
{
horizontal = 1;
place = (599,102);
type = Stem;
},
{
place = (187,50);
type = Stem;
},
{
place = (530,50);
type = Stem;
}
);
layerId = "658C8605-6260-49C3-8AFC-BEEEFEF62072";
shapes = (
{
closed = 1;
nodes = (
(192,599,l),
(530,599,l),
(530,435,l),
(212,435,ls),
(193,435,o),
(187,399,o),
(187,384,cs),
(187,52,ls),
(187,37,o),
(193,1,o),
(212,1,cs),
(465,1,l),
(465,0,l),
(699,0,l),
(699,102,l),
(580,102,l),
(580,650,ls),
(580,665,o),
(575,701,o),
(555,701,cs),
(192,701,l)
);
},
{
closed = 1;
nodes = (
(237,103,l),
(237,333,l),
(530,333,l),
(530,103,l)
);
}
);
width = 650;
}
);
},
{
glyphname = yaNko.fina;
layers = (
{
anchors = (
{
name = b.uni07F2;
position = "{301, -120}";
},
{
name = m.uni07EB_1;
position = "{301, 750}";
},
{
name = m.uniA6F0_2;
position = "{0, 0}";
},
{
name = b.u16AF0_3;
position = "{0, 0}";
}
);
hints = (
{
horizontal = 1;
place = (0,102);
type = Stem;
},
{
horizontal = 1;
place = (461,239);
type = Stem;
},
{
place = (108,50);
type = Stem;
},
{
place = (276,50);
type = Stem;
},
{
place = (444,50);
type = Stem;
}
);
layerId = "658C8605-6260-49C3-8AFC-BEEEFEF62072";
shapes = (
{
closed = 1;
nodes = (
(108,264,o),
(175,197,o),
(276,188,c),
(276,0,l),
(594,0,l),
(594,102,l),
(326,102,l),
(326,188,l),
(428,197,o),
(494,265,o),
(494,374,cs),
(494,483,o),
(429,552,o),
(326,561,c),
(326,700,l),
(276,700,l),
(276,561,l),
(172,552,o),
(108,483,o),
(108,372,cs)
);
},
{
closed = 1;
nodes = (
(158,380,o),
(160,386,o),
(162,391,cs),
(182,443,o),
(251,461,o),
(301,461,cs),
(351,461,o),
(420,443,o),
(440,391,cs),
(442,386,o),
(444,380,o),
(444,374,cs),
(444,362,o),
(438,351,o),
(432,341,c),
(404,301,o),
(347,288,o),
(301,288,cs),
(255,288,o),
(199,301,o),
(171,341,cs),
(164,351,o),
(158,362,o),
(158,374,cs)
);
}
);
width = 521;
}
);
},
{
glyphname = nyawolosoNko.fina;
layers = (
{
anchors = (
{
name = b.uni07F2;
position = "{301, -120}";
},
{
name = m.uni07EB_1;
position = "{301, 750}";
},
{
name = m.uniA6F0_2;
position = "{0, 0}";
},
{
name = b.u16AF0_3;
position = "{0, 0}";
}
);
hints = (
{
horizontal = 1;
place = (0,102);
type = Stem;
},
{
horizontal = 1;
place = (599,102);
type = Stem;
},
{
place = (108,50);
type = Stem;
},
{
place = (276,50);
type = Stem;
},
{
place = (444,50);
type = Stem;
}
);
layerId = "658C8605-6260-49C3-8AFC-BEEEFEF62072";
shapes = (
{
closed = 1;
nodes = (
(108,221,o),
(175,154,o),
(276,145,c),
(276,0,l),
(599,0,l),
(599,102,l),
(326,102,l),
(326,145,l),
(428,154,o),
(494,222,o),
(494,331,cs),
(494,440,o),
(429,509,o),
(326,518,c),
(326,599,l),
(461,599,l),
(461,701,l),
(135,701,l),
(135,599,l),
(276,599,l),
(276,518,l),
(172,509,o),
(108,440,o),
(108,329,cs)
);
},
{
closed = 1;
nodes = (
(158,337,o),
(160,343,o),
(162,348,cs),
(182,400,o),
(251,418,o),
(301,418,cs),
(351,418,o),
(420,400,o),
(440,348,cs),
(442,343,o),
(444,337,o),
(444,331,cs),
(444,319,o),
(438,308,o),
(432,298,c),
(404,258,o),
(347,245,o),
(301,245,cs),
(255,245,o),
(199,258,o),
(171,298,cs),
(164,308,o),
(158,319,o),
(158,331,cs)
);
}
);
width = 531;
}
);
},
{
glyphname = jonajaNko.fina;
layers = (
{
anchors = (
{
name = b.uni07F2;
position = "{260, -320}";
},
{
name = m.uni07EB_1;
position = "{267, 750}";
},
{
name = m.uniA6F0_2;
position = "{0, 0}";
},
{
name = b.u16AF0_3;
position = "{0, 0}";
}
);
hints = (
{
horizontal = 1;
place = (-231,101);
type = Stem;
},
{
horizontal = 1;
place = (0,102);
type = Stem;
},
{
place = (49,435);
type = Stem;
}
);
layerId = "658C8605-6260-49C3-8AFC-BEEEFEF62072";
shapes = (
{
closed = 1;
nodes = (
(291,291,l),
(212,102,l),
(49,102,l),
(49,0,l),
(170,0,l),
(131,-95,ls),
(125,-110,o),
(117,-126,o),
(112,-142,cs),
(109,-151,o),
(108,-160,o),
(108,-169,cs),
(108,-185,o),
(113,-215,o),
(131,-219,c),
(156,-226,o),
(186,-231,o),
(213,-231,cs),
(278,-231,o),
(329,-189,o),
(376,-149,c),
(356,-55,l),
(316,-91,o),
(270,-130,o),
(213,-130,cs),
(203,-130,o),
(193,-129,o),
(183,-127,c),
(236,0,l),
(484,0,l),
(484,102,l),
(278,102,l),
(329,225,l)
);
}
);
width = 422;
}
);
},
{
glyphname = jonachaNko.fina;
layers = (
{
anchors = (
{
name = b.uni07F2;
position = "{240, -320}";
},
{
name = m.uni07EB_1;
position = "{268, 750}";
},
{
name = m.uniA6F0_2;
position = "{0, 0}";
},
{
name = b.u16AF0_3;
position = "{0, 0}";
}
);
hints = (
{
horizontal = 1;
place = (-248,101);
type = Stem;
},
{
horizontal = 1;
place = (0,102);
type = Stem;
},
{
place = (302,54);
type = Stem;
}
);
layerId = "658C8605-6260-49C3-8AFC-BEEEFEF62072";
shapes = (
{
closed = 1;
nodes = (
(49,0,l),
(170,0,l),
(131,-95,ls),
(121,-119,o),
(108,-142,o),
(108,-169,cs),
(108,-218,o),
(130,-222,o),
(170,-235,cs),
(197,-244,o),
(224,-248,o),
(252,-248,cs),
(321,-248,o),
(356,-191,o),
(356,-128,cs),
(356,-68,o),
(324,-25,o),
(278,0,c),
(487,0,l),
(487,102,l),
(278,102,l),
(329,225,l),
(291,291,l),
(212,102,l),
(49,102,l)
);
},
{
closed = 1;
nodes = (
(204,-76,l),
(238,-83,o),
(283,-104,o),
(302,-128,c),
(293,-141,o),
(264,-147,o),
(249,-147,cs),
(226,-147,o),
(202,-142,o),
(180,-136,c)
);
}
);
width = 422;
}
);
},
{
glyphname = jonaraNko.fina;
layers = (
{
anchors = (
{
name = b.uni07F2;
position = "{210, -320}";
},
{
name = m.uni07EB_1;
position = "{210, 750}";
},
{
name = m.uniA6F0_2;
position = "{0, 0}";
},
{
name = b.u16AF0_3;
position = "{0, 0}";
}
);
hints = (
{
horizontal = 1;
place = (0,102);
type = Stem;
},
{
place = (185,50);
type = Stem;
}
);
layerId = "658C8605-6260-49C3-8AFC-BEEEFEF62072";
shapes = (
{
closed = 1;
nodes = (
(185,260,l),
(185,102,l),
(62,102,l),
(62,0,l),
(185,0,l),
(185,-217,l),
(235,-217,l),
(235,0,l),
(436,0,l),
(436,102,l),
(235,102,l),
(235,260,l)
);
}
);
width = 385;
}
);
},
{
glyphname = aNko.medi;
layers = (
{
anchors = (
{
name = b.uni07F2;
position = "{132, -120}";
},
{
name = m.uni07EB_1;
position = "{132, 750}";
},
{
name = m.uniA6F0_2;
position = "{0, 0}";
},
{
name = b.u16AF0_3;
position = "{0, 0}";
}
);
hints = (
{
horizontal = 1;
place = (0,102);
type = Stem;
},
{
place = (107,50);
type = Stem;
}
);
layerId = "658C8605-6260-49C3-8AFC-BEEEFEF62072";
shapes = (
{
closed = 1;
nodes = (
(107,700,l),
(107,102,l),
(-66,102,l),
(-66,0,l),
(299,0,l),
(299,102,l),
(157,102,l),
(157,700,l)
);
}
);
width = 238;
}
);
},
{
glyphname = eeNko.medi;
layers = (
{
anchors = (
{
name = b.uni07F2;
position = "{417, -120}";
},
{
name = m.uni07EB_1;
position = "{417, 588}";
},
{
name = m.uniA6F0_2;
position = "{0, 0}";
},
{
name = b.u16AF0_3;
position = "{0, 0}";
}
);
hints = (
{
horizontal = 1;
place = (0,102);
type = Stem;
},
{
horizontal = 1;
place = (422,102);
type = Stem;
},
{
place = (142,50);
type = Stem;
},
{
place = (602,261);
type = Stem;
},
{
place = (642,50);
type = Stem;
}
);
layerId = "658C8605-6260-49C3-8AFC-BEEEFEF62072";
shapes = (
{
closed = 1;
nodes = (
(142,196,o),
(159,143,o),
(188,102,c),
(-57,102,l),
(-57,0,l),
(239,0,l),
(239,51,l),
(286,17,o),
(347,-2,o),
(417,-2,cs),
(491,-2,o),
(554,18,o),
(602,56,c),
(602,0,l),
(863,0,l),
(863,102,l),
(645,102,l),
(675,143,o),
(692,197,o),
(692,261,cs),
(692,427,o),
(579,524,o),
(417,524,cs),
(253,524,o),
(142,426,o),
(142,259,cs)
);
},
{
closed = 1;
nodes = (
(192,335,o),
(254,386,o),
(319,408,cs),
(350,418,o),
(384,422,o),
(417,422,cs),
(450,422,o),
(484,418,o),
(515,408,cs),
(580,386,o),
(642,335,o),
(642,261,cs),
(642,187,o),
(580,136,o),
(515,114,cs),
(484,104,o),
(450,100,o),
(417,100,cs),
(384,100,o),
(350,104,o),
(319,114,cs),
(254,136,o),
(192,187,o),
(192,261,cs)
);
}
);
width = 796;
}
);
},
{
glyphname = iNko.medi;
layers = (
{
anchors = (
{
name = b.uni07F2;
position = "{250, -120}";
},
{
name = m.uni07EB_1;
position = "{250, 750}";
},
{
name = m.uniA6F0_2;
position = "{0, 0}";
},
{
name = b.u16AF0_3;
position = "{0, 0}";
}
);
hints = (
{
horizontal = 1;
place = (0,102);
type = Stem;
},
{
place = (225,50);
type = Stem;
}
);
layerId = "658C8605-6260-49C3-8AFC-BEEEFEF62072";
shapes = (
{
closed = 1;
nodes = (
(56,656,l),
(225,301,l),
(225,102,l),
(-53,102,l),
(-53,0,l),
(526,0,l),
(526,102,l),
(275,102,l),
(275,300,l),
(450,654,l),
(414,726,l),
(250,394,l),
(94,724,l)
);
}
);
width = 478;
}
);
},
{
glyphname = eNko.medi;
layers = (
{
anchors = (
{
name = b.uni07F2;
position = "{336, -120}";
},
{
name = m.uni07EB_1;
position = "{336, 588}";
},
{
name = m.uniA6F0_2;
position = "{0, 0}";
},
{
name = b.u16AF0_3;
position = "{0, 0}";
}
);
hints = (
{
horizontal = 1;
place = (0,102);
type = Stem;
},
{
place = (-88,810);
type = Stem;
}
);
layerId = "658C8605-6260-49C3-8AFC-BEEEFEF62072";
shapes = (
{
closed = 1;
nodes = (
(722,102,l),
(586,102,l),
(364,468,ls),
(358,478,o),
(349,499,o),
(336,499,cs),
(323,499,o),
(313,476,o),
(307,467,cs),
(81,102,l),
(-88,102,l),
(-88,0,l),
(90,0,ls),
(103,0,o),
(112,21,o),
(118,31,cs),
(336,383,l),
(550,31,l),
(555,21,o),
(564,0,o),
(577,0,cs),
(722,0,l)
);
}
);
width = 643;
}
);
},
{
glyphname = uNko.medi;
layers = (
{
anchors = (
{
name = b.uni07F2;
position = "{409, -120}";
},
{
name = m.uni07EB_1;
position = "{409, 588}";
},
{
name = m.uniA6F0_2;
position = "{0, 0}";
},
{
name = b.u16AF0_3;
position = "{0, 0}";
}
);
hints = (
{
horizontal = 1;
place = (-21,102);
type = Stem;
},
{
horizontal = 1;
place = (0,81);
type = Stem;
},
{
horizontal = 1;
place = (0,102);
type = Stem;
},
{
horizontal = 1;
place = (73,29);
type = Stem;
},
{
place = (199,50);
type = Stem;
},
{
place = (569,50);
type = Stem;
},
{
place = (573,206);
type = Stem;
}
);
layerId = "658C8605-6260-49C3-8AFC-BEEEFEF62072";
shapes = (
{
closed = 1;
nodes = (
(199,500,l),
(199,102,l),
(-68,102,l),
(-68,0,l),
(224,0,ls),
(244,0,o),
(249,36,o),
(249,51,cs),
(249,73,l),
(284,19,o),
(337,-21,o),
(409,-21,cs),
(484,-21,o),
(538,9,o),
(573,57,c),
(573,0,l),
(779,0,l),
(779,102,l),
(598,102,l),
(612,136,o),
(619,176,o),
(619,218,cs),
(619,500,l),
(569,500,l),
(569,415,o),
(569,331,o),
(569,246,cs),
(569,230,o),
(569,213,o),
(567,196,cs),
(557,117,o),
(482,81,o),
(409,81,cs),
(321,81,o),
(268,149,o),
(249,228,c),
(249,500,l)
);
}
);
width = 690;
}
);
},
{
glyphname = ooNko.medi;
layers = (
{
anchors = (
{
name = b.uni07F2;
position = "{282, -120}";
},
{
name = m.uni07EB_1;
position = "{282, 588}";
},
{
name = m.uniA6F0_2;
position = "{0, 0}";
},
{
name = b.u16AF0_3;
position = "{0, 0}";
}
);
hints = (
{
horizontal = 1;
place = (0,102);
type = Stem;
},
{
horizontal = 1;
place = (415,101);
type = Stem;
},
{
place = (455,50);
type = Stem;
},
{
place = (483,164);
type = Stem;
}
);
layerId = "658C8605-6260-49C3-8AFC-BEEEFEF62072";
shapes = (
{
closed = 1;
nodes = (
(104,414,l),
(189,414,o),
(273,415,o),
(358,415,cs),
(401,415,o),
(455,412,o),
(455,355,cs),
(455,173,ls),
(455,106,o),
(421,102,o),
(373,102,cs),
(366,102,o),
(358,102,o),
(350,102,cs),
(-84,102,l),
(-84,0,l),
(395,0,ls),
(439,0,o),
(466,26,o),
(483,61,c),
(483,0,l),
(647,0,l),
(647,102,l),
(497,102,l),
(503,126,o),
(505,150,o),
(505,172,cs),
(505,357,ls),
(505,434,o),
(474,516,o),
(384,516,cs),
(104,516,l)
);
}
);
width = 566;
}
);
},
{
glyphname = oNko.medi;
layers = (
{
anchors = (
{
name = b.uni07F2;
position = "{295, -120}";
},
{
name = m.uni07EB_1;
position = "{295, 750}";
},
{
name = m.uniA6F0_2;
position = "{0, 0}";
},
{
name = b.u16AF0_3;
position = "{0, 0}";
}
);
hints = (
{
horizontal = 1;
place = (0,102);
type = Stem;
},
{
horizontal = 1;
place = (282,101);
type = Stem;
},
{
horizontal = 1;
place = (616,102);
type = Stem;
},
{
place = (72,50);
type = Stem;
},
{
place = (270,50);
type = Stem;
},
{
place = (467,50);
type = Stem;
}
);
layerId = "658C8605-6260-49C3-8AFC-BEEEFEF62072";
shapes = (
{
closed = 1;
nodes = (
(72,372,o),
(151,292,o),
(270,282,c),
(270,102,l),
(-76,102,l),
(-76,0,l),
(639,0,l),
(639,102,l),
(320,102,l),
(320,282,l),
(440,292,o),
(517,373,o),
(517,500,cs),
(517,635,o),
(428,718,o),
(295,718,cs),
(159,718,o),
(72,635,o),
(72,498,cs)
);
},
{
closed = 1;
nodes = (
(122,518,o),
(129,535,o),
(139,549,cs),
(172,599,o),
(238,616,o),
(295,616,cs),
(362,616,o),
(467,582,o),
(467,500,cs),
(467,482,o),
(460,465,o),
(451,450,c),
(417,400,o),
(352,383,o),
(295,383,cs),
(238,383,o),
(172,400,o),
(139,450,cs),
(129,465,o),
(122,482,o),
(122,500,cs)
);
}
);
width = 566;
}
);
},
{
glyphname = dagbasinnaNko.medi;
layers = (
{
anchors = (
{
name = b.uni07F2;
position = "{250, -120}";
},
{
name = m.uni07EB_1;
position = "{250, 750}";
},
{
name = m.uniA6F0_2;
position = "{0, 0}";
},
{
name = b.u16AF0_3;
position = "{0, 0}";
}
);
hints = (
{
horizontal = 1;
place = (0,102);
type = Stem;
},
{
horizontal = 1;
place = (352,148);
type = Stem;
},
{
place = (173,50);
type = Stem;
}
);
layerId = "658C8605-6260-49C3-8AFC-BEEEFEF62072";
shapes = (
{
closed = 1;
nodes = (
(301,687,l),
(213,638,o),
(173,598,o),
(173,487,cs),
(173,431,o),
(193,352,o),
(262,352,cs),
(301,352,o),
(316,390,o),
(316,423,cs),
(316,460,o),
(299,500,o),
(257,500,cs),
(242,500,o),
(232,495,o),
(224,484,c),
(223,488,l),
(223,543,o),
(272,567,o),
(315,589,c)
);
},
{
closed = 1;
nodes = (
(-69,0,l),
(540,0,l),
(540,102,l),
(-69,102,l)
);
}
);
width = 471;
}
);
},
{
glyphname = nNko.medi;
layers = (
{
anchors = (
{
name = b.uni07F2;
position = "{335, -120}";
},
{
name = m.uni07EB_1;
position = "{335, 750}";
},
{
name = m.uniA6F0_2;
position = "{0, 0}";
},
{
name = b.u16AF0_3;
position = "{0, 0}";
}
);
hints = (
{
horizontal = 1;
place = (0,102);
type = Stem;
},
{
horizontal = 1;
place = (359,101);
type = Stem;
},
{
horizontal = 1;
place = (616,102);
type = Stem;
},
{
place = (91,50);
type = Stem;
},
{
place = (333,50);
type = Stem;
},
{
place = (547,50);
type = Stem;
}
);
layerId = "658C8605-6260-49C3-8AFC-BEEEFEF62072";
shapes = (
{
closed = 1;
nodes = (
(383,213,l),
(383,359,l),
(390,359,o),
(396,359,o),
(403,359,cs),
(413,359,o),
(422,359,o),
(430,359,cs),
(565,359,o),
(547,355,o),
(547,204,cs),
(547,102,l),
(-87,102,l),
(-87,0,l),
(756,0,l),
(756,102,l),
(597,102,l),
(597,294,ls),
(597,369,o),
(582,460,o),
(488,460,c),
(383,459,l),
(383,463,ls),
(383,561,o),
(381,718,o),
(246,718,cs),
(135,718,o),
(91,634,o),
(91,533,cs),
(91,405,o),
(176,362,o),
(291,359,c),
(305,359,o),
(319,359,o),
(333,359,c),
(333,213,l)
);
},
{
closed = 1;
nodes = (
(280,459,o),
(196,462,o),
(157,501,cs),
(148,510,o),
(141,520,o),
(141,534,cs),
(141,594,o),
(194,616,o),
(246,616,cs),
(335,616,o),
(333,543,o),
(333,475,cs),
(333,470,o),
(333,465,o),
(333,459,c)
);
}
);
width = 657;
}
);
},
{
glyphname = baNko.medi;
layers = (
{
anchors = (
{
name = b.uni07F2;
position = "{320, -120}";
},
{
name = m.uni07EB_1;
position = "{320, 750}";
},
{
name = m.uniA6F0_2;
position = "{0, 0}";
},
{
name = b.u16AF0_3;
position = "{0, 0}";
}
);
hints = (
{
horizontal = 1;
place = (0,102);
type = Stem;
},
{
horizontal = 1;
place = (333,102);
type = Stem;
},
{
horizontal = 1;
place = (602,102);
type = Stem;
},
{
place = (181,50);
type = Stem;
}
);
layerId = "658C8605-6260-49C3-8AFC-BEEEFEF62072";
shapes = (
{
closed = 1;
nodes = (
(471,704,l),
(206,704,ls),
(187,704,o),
(181,668,o),
(181,653,cs),
(181,102,l),
(-77,102,l),
(-77,0,l),
(593,0,l),
(593,102,l),
(231,102,l),
(231,333,l),
(463,333,l),
(463,435,l),
(231,435,l),
(231,602,l),
(471,602,l)
);
}
);
width = 508;
}
);
},
{
glyphname = paNko.medi;
layers = (
{
anchors = (
{
name = b.uni07F2;
position = "{300, -120}";
},
{
name = m.uni07EB_1;
position = "{300, 750}";
},
{
name = m.uniA6F0_2;
position = "{0, 0}";
},
{
name = b.u16AF0_3;
position = "{0, 0}";
}
);
hints = (
{
horizontal = 1;
place = (0,102);
type = Stem;
},
{
horizontal = 1;
place = (333,102);
type = Stem;
},
{
horizontal = 1;
place = (602,102);
type = Stem;
},
{
place = (380,50);
type = Stem;
}
);
layerId = "658C8605-6260-49C3-8AFC-BEEEFEF62072";
shapes = (
{
closed = 1;
nodes = (
(140,602,l),
(380,602,l),
(380,435,l),
(148,435,l),
(148,333,l),
(380,333,l),
(380,102,l),
(-62,102,l),
(-62,0,l),
(574,0,l),
(574,102,l),
(430,102,l),
(430,653,ls),
(430,668,o),
(425,704,o),
(405,704,cs),
(140,704,l)
);
}
);
width = 508;
}
);
},
{
glyphname = taNko.medi;
layers = (
{
anchors = (
{
name = b.uni07F2;
position = "{251, -120}";
},
{
name = m.uni07EB_1;
position = "{251, 750}";
},
{
name = m.uniA6F0_2;
position = "{0, 0}";
},
{
name = b.u16AF0_3;
position = "{0, 0}";
}
);
hints = (
{
horizontal = 1;
place = (0,102);
type = Stem;
},
{
horizontal = 1;
place = (342,102);
type = Stem;
},
{
place = (84,50);
type = Stem;
},
{
place = (361,207);
type = Stem;
},
{
place = (411,50);
type = Stem;
}
);
layerId = "658C8605-6260-49C3-8AFC-BEEEFEF62072";
shapes = (
{
closed = 1;
nodes = (
(84,703,l),
(84,102,l),
(-66,102,l),
(-66,0,l),
(216,0,ls),
(270,0,o),
(320,13,o),
(361,38,c),
(361,0,l),
(568,0,l),
(568,102,l),
(427,102,l),
(449,135,o),
(461,175,o),
(461,223,cs),
(461,344,o),
(395,444,o),
(266,444,cs),
(217,444,o),
(172,423,o),
(134,393,c),
(134,703,l)
);
},
{
closed = 1;
nodes = (
(134,102,l),
(134,282,l),
(170,317,o),
(215,342,o),
(266,342,cs),
(336,342,o),
(411,302,o),
(411,223,cs),
(411,207,o),
(404,191,o),
(394,178,cs),
(357,125,o),
(278,102,o),
(216,102,cs)
);
}
);
width = 510;
}
);
},
{
glyphname = jaNko.medi;
layers = (
{
anchors = (
{
name = b.uni07F2;
position = "{320, -120}";
},
{
name = m.uni07EB_1;
position = "{221, 750}";
},
{
name = m.uniA6F0_2;
position = "{0, 0}";
},
{
name = b.u16AF0_3;
position = "{0, 0}";
}
);
hints = (
{
horizontal = 1;
place = (0,102);
type = Stem;
},
{
horizontal = 1;
place = (612,102);
type = Stem;
},
{
place = (292,51);
type = Stem;
}
);
layerId = "658C8605-6260-49C3-8AFC-BEEEFEF62072";
shapes = (
{
closed = 1;
nodes = (
(414,714,l),
(80,714,ls),
(60,714,o),
(55,677,o),
(55,663,cs),
(55,651,o),
(57,638,o),
(62,627,cs),
(73,605,o),
(94,585,o),
(109,565,cs),
(218,421,o),
(280,282,o),
(292,102,c),
(-73,102,l),
(-73,0,l),
(295,0,l),
(295,0,o),
(295,0,o),
(295,0,c),
(515,0,l),
(515,102,l),
(343,102,l),
(332,294,o),
(281,442,o),
(164,612,c),
(414,612,l)
);
}
);
width = 452;
}
);
},
{
glyphname = chaNko.medi;
layers = (
{
anchors = (
{
name = b.uni07F2;
position = "{216, -120}";
},
{
name = m.uni07EB_1;
position = "{216, 750}";
},
{
name = m.uniA6F0_2;
position = "{0, 0}";
},
{
name = b.u16AF0_3;
position = "{0, 0}";
}
);
hints = (
{
horizontal = 1;
place = (0,102);
type = Stem;
},
{
place = (320,50);
type = Stem;
}
);
layerId = "658C8605-6260-49C3-8AFC-BEEEFEF62072";
shapes = (
{
closed = 1;
nodes = (
(370,-1,l),
(370,0,l),
(507,0,l),
(507,102,l),
(370,102,l),
(370,678,ls),
(370,693,o),
(365,729,o),
(345,729,cs),
(334,729,o),
(316,704,o),
(308,696,cs),
(89,460,l),
(113,370,l),
(320,593,l),
(320,102,l),
(-75,102,l),
(-75,0,l),
(320,0,l),
(320,-1,l)
);
}
);
width = 441;
}
);
},
{
glyphname = daNko.medi;
layers = (
{
anchors = (
{
name = b.uni07F2;
position = "{450, -120}";
},
{
name = m.uni07EB_1;
position = "{450, 588}";
},
{
name = m.uniA6F0_2;
position = "{0, 0}";
},
{
name = b.u16AF0_3;
position = "{0, 0}";
}
);
hints = (
{
horizontal = 1;
place = (0,102);
type = Stem;
},
{
horizontal = 1;
place = (372,102);
type = Stem;
},
{
horizontal = 1;
place = (415,102);
type = Stem;
},
{
place = (165,50);
type = Stem;
},
{
place = (428,50);
type = Stem;
},
{
place = (697,50);
type = Stem;
}
);
layerId = "658C8605-6260-49C3-8AFC-BEEEFEF62072";
shapes = (
{
closed = 1;
nodes = (
(415,452,o),
(371,474,o),
(318,474,cs),
(171,474,o),
(165,358,o),
(165,243,cs),
(165,102,l),
(-52,102,l),
(-52,0,l),
(884,0,l),
(884,102,l),
(747,102,l),
(747,328,ls),
(747,421,o),
(701,517,o),
(596,517,cs),
(521,517,o),
(476,474,o),
(447,409,c)
);
},
{
closed = 1;
nodes = (
(478,102,l),
(478,325,l),
(492,378,o),
(537,415,o),
(592,415,cs),
(646,415,o),
(697,386,o),
(697,326,cs),
(697,102,l)
);
},
{
closed = 1;
nodes = (
(215,102,l),
(215,265,ls),
(215,282,o),
(215,317,o),
(223,332,cs),
(241,366,o),
(283,372,o),
(318,372,cs),
(362,372,o),
(411,352,o),
(428,308,c),
(428,102,l)
);
}
);
width = 813;
}
);
},
{
glyphname = raNko.medi;
layers = (
{
anchors = (
{
name = b.uni07F2;
position = "{217, -120}";
},
{
name = m.uni07EB_1;
position = "{217, 750}";
},
{
name = m.uniA6F0_2;
position = "{0, 0}";
},
{
name = b.u16AF0_3;
position = "{0, 0}";
}
);
hints = (
{
horizontal = 1;
place = (0,102);
type = Stem;
},
{
horizontal = 1;
place = (389,102);
type = Stem;
},
{
place = (192,50);
type = Stem;
}
);
layerId = "658C8605-6260-49C3-8AFC-BEEEFEF62072";
shapes = (
{
closed = 1;
nodes = (
(192,700,l),
(192,491,l),
(73,491,l),
(73,389,l),
(192,389,l),
(192,102,l),
(-51,102,l),
(-51,0,l),
(467,0,l),
(467,102,l),
(242,102,l),
(242,389,l),
(357,389,l),
(357,491,l),
(242,491,l),
(242,700,l)
);
}
);
width = 395;
}
);
},
{
glyphname = rraNko.medi;
layers = (
{
anchors = (
{
name = b.uni07F2;
position = "{317, -120}";
},
{
name = m.uni07EB_1;
position = "{317, 750}";
},
{
name = m.uniA6F0_2;
position = "{0, 0}";
},
{
name = b.u16AF0_3;
position = "{0, 0}";
}
);
hints = (
{
horizontal = 1;
place = (-7,102);
type = Stem;
},
{
horizontal = 1;
place = (0,102);
type = Stem;
},
{
horizontal = 1;
place = (70,32);
type = Stem;
},
{
horizontal = 1;
place = (400,102);
type = Stem;
},
{
place = (177,50);
type = Stem;
},
{
place = (428,50);
type = Stem;
},
{
place = (450,242);
type = Stem;
}
);
layerId = "658C8605-6260-49C3-8AFC-BEEEFEF62072";
shapes = (
{
closed = 1;
nodes = (
(428,713,l),
(428,502,l),
(227,502,l),
(227,700,l),
(177,700,l),
(177,502,l),
(42,502,l),
(42,400,l),
(177,400,l),
(177,102,l),
(-58,102,l),
(-58,0,l),
(202,0,ls),
(222,0,o),
(227,36,o),
(227,51,cs),
(227,70,l),
(258,27,o),
(299,-7,o),
(354,-7,cs),
(402,-7,o),
(432,9,o),
(450,34,c),
(450,0,l),
(692,0,l),
(692,102,l),
(474,102,l),
(478,124,o),
(478,148,o),
(478,172,cs),
(478,400,l),
(591,400,l),
(591,502,l),
(478,502,l),
(478,713,l)
);
},
{
closed = 1;
nodes = (
(227,400,l),
(428,400,l),
(428,172,ls),
(428,160,o),
(429,131,o),
(423,121,c),
(412,99,o),
(376,95,o),
(354,95,cs),
(290,95,o),
(250,152,o),
(227,204,c)
);
}
);
width = 617;
}
);
},
{
glyphname = saNko.medi;
layers = (
{
anchors = (
{
name = b.uni07F2;
position = "{460, -120}";
},
{
name = m.uni07EB_1;
position = "{460, 588}";
},
{
name = m.uniA6F0_2;
position = "{0, 0}";
},
{
name = b.u16AF0_3;
position = "{0, 0}";
}
);
hints = (
{
horizontal = 1;
place = (0,102);
type = Stem;
},
{
horizontal = 1;
place = (415,102);
type = Stem;
},
{
place = (174,50);
type = Stem;
},
{
place = (684,50);
type = Stem;
}
);
layerId = "658C8605-6260-49C3-8AFC-BEEEFEF62072";
shapes = (
{
closed = 1;
nodes = (
(340,517,ls),
(231,517,o),
(174,441,o),
(174,337,cs),
(174,102,l),
(-39,102,l),
(-39,0,l),
(588,0,ls),
(632,0,o),
(665,16,o),
(689,40,c),
(689,0,l),
(863,0,l),
(863,102,l),
(724,102,l),
(731,124,o),
(734,148,o),
(734,173,cs),
(734,466,ls),
(734,480,o),
(729,517,o),
(709,517,cs)
);
},
{
closed = 1;
nodes = (
(684,415,l),
(684,175,ls),
(684,124,o),
(632,102,o),
(588,102,cs),
(224,102,l),
(224,335,ls),
(224,393,o),
(292,415,o),
(340,415,cs)
);
}
);
width = 798;
}
);
},
{
glyphname = gbaNko.medi;
layers = (
{
anchors = (
{
name = b.uni07F2;
position = "{331, -120}";
},
{
name = m.uni07EB_1;
position = "{331, 750}";
},
{
name = m.uniA6F0_2;
position = "{0, 0}";
},
{
name = b.u16AF0_3;
position = "{0, 0}";
}
);
hints = (
{
horizontal = 1;
place = (0,102);
type = Stem;
},
{
horizontal = 1;
place = (596,102);
type = Stem;
},
{
place = (-63,748);
type = Stem;
}
);
layerId = "658C8605-6260-49C3-8AFC-BEEEFEF62072";
shapes = (
{
closed = 1;
nodes = (
(-63,0,l),
(685,0,l),
(685,102,l),
(383,102,l),
(390,122,o),
(396,139,o),
(399,147,cs),
(558,569,ls),
(568,594,o),
(581,620,o),
(581,647,cs),
(581,662,o),
(576,698,o),
(556,698,cs),
(101,698,ls),
(82,698,o),
(76,662,o),
(76,647,cs),
(76,620,o),
(89,595,o),
(99,570,cs),
(262,147,ls),
(265,139,o),
(271,122,o),
(279,102,c),
(-63,102,l)
);
},
{
closed = 1;
nodes = (
(331,134,l),
(153,596,l),
(505,596,l)
);
}
);
width = 613;
}
);
},
{
glyphname = faNko.medi;
layers = (
{
anchors = (
{
name = b.uni07F2;
position = "{420, -120}";
},
{
name = m.uni07EB_1;
position = "{420, 750}";
},
{
name = m.uniA6F0_2;
position = "{0, 0}";
},
{
name = b.u16AF0_3;
position = "{0, 0}";
}
);
hints = (
{
horizontal = 1;
place = (0,102);
type = Stem;
},
{
horizontal = 1;
place = (337,101);
type = Stem;
},
{
horizontal = 1;
place = (617,102);
type = Stem;
},
{
place = (137,50);
type = Stem;
},
{
place = (398,50);
type = Stem;
},
{
place = (641,50);
type = Stem;
}
);
layerId = "658C8605-6260-49C3-8AFC-BEEEFEF62072";
shapes = (
{
closed = 1;
nodes = (
(-71,0,l),
(797,0,l),
(797,102,l),
(448,102,l),
(448,125,o),
(448,148,o),
(448,171,cs),
(448,336,l),
(464,336,o),
(480,335,o),
(497,335,cs),
(609,335,o),
(691,400,o),
(691,517,cs),
(691,610,o),
(654,719,o),
(544,719,cs),
(501,719,o),
(470,704,o),
(442,672,cs),
(393,616,o),
(396,515,o),
(397,438,c),
(223,438,ls),
(156,438,o),
(137,364,o),
(137,310,cs),
(137,102,l),
(-71,102,l)
);
},
{
closed = 1;
nodes = (
(447,452,o),
(447,466,o),
(447,480,cs),
(447,507,o),
(447,536,o),
(455,562,cs),
(468,600,o),
(506,617,o),
(544,617,cs),
(605,617,o),
(641,577,o),
(641,517,cs),
(641,478,o),
(579,449,o),
(547,442,cs),
(526,438,o),
(505,437,o),
(484,437,cs),
(472,437,o),
(459,437,o),
(447,437,c)
);
},
{
closed = 1;
nodes = (
(187,102,l),
(187,309,ls),
(187,336,o),
(216,337,o),
(237,337,c),
(238,337,o),
(240,337,o),
(241,337,c),
(293,337,o),
(346,336,o),
(398,336,c),
(398,102,l)
);
}
);
width = 721;
}
);
},
{
glyphname = kaNko.medi;
layers = (
{
anchors = (
{
name = b.uni07F2;
position = "{300, -120}";
},
{
name = m.uni07EB_1;
position = "{300, 750}";
},
{
name = m.uniA6F0_2;
position = "{0, 0}";
},
{
name = b.u16AF0_3;
position = "{0, 0}";
}
);
hints = (
{
horizontal = 1;
place = (0,102);
type = Stem;
},
{
horizontal = 1;
place = (366,102);
type = Stem;
},
{
place = (137,50);
type = Stem;
},
{
place = (451,50);
type = Stem;
}
);
layerId = "658C8605-6260-49C3-8AFC-BEEEFEF62072";
shapes = (
{
closed = 1;
nodes = (
(451,700,l),
(451,468,l),
(187,468,l),
(187,584,l),
(137,584,l),
(137,251,l),
(187,251,l),
(187,366,l),
(451,366,l),
(451,102,l),
(-57,102,l),
(-57,0,l),
(634,0,l),
(634,102,l),
(501,102,l),
(501,700,l)
);
}
);
width = 574;
}
);
},
{
glyphname = laNko.medi;
layers = (
{
anchors = (
{
name = b.uni07F2;
position = "{358, -120}";
},
{
name = m.uni07EB_1;
position = "{291, 750}";
},
{
name = m.uniA6F0_2;
position = "{0, 0}";
},
{
name = b.u16AF0_3;
position = "{0, 0}";
}
);
hints = (
{
horizontal = 1;
place = (0,102);
type = Stem;
},
{
horizontal = 1;
place = (358,101);
type = Stem;
},
{
horizontal = 1;
place = (616,102);
type = Stem;
},
{
place = (91,50);
type = Stem;
},
{
place = (333,50);
type = Stem;
}
);
layerId = "658C8605-6260-49C3-8AFC-BEEEFEF62072";
shapes = (
{
closed = 1;
nodes = (
(650,0,l),
(650,102,l),
(383,102,l),
(383,358,l),
(525,358,l),
(525,460,l),
(478,460,o),
(431,459,o),
(383,459,c),
(383,463,ls),
(383,561,o),
(381,718,o),
(246,718,cs),
(135,718,o),
(91,634,o),
(91,533,cs),
(91,390,o),
(195,358,o),
(317,358,cs),
(333,358,l),
(333,358,o),
(333,358,o),
(333,358,c),
(333,102,l),
(-69,102,l),
(-69,0,l)
);
},
{
closed = 1;
nodes = (
(289,459,o),
(141,465,o),
(141,534,cs),
(141,594,o),
(194,616,o),
(246,616,cs),
(288,616,o),
(318,600,o),
(327,557,cs),
(333,528,o),
(335,494,o),
(335,459,c)
);
}
);
width = 565;
}
);
},
{
glyphname = nawolosoNko.medi;
layers = (
{
anchors = (
{
name = b.uni07F2;
position = "{246, -120}";
},
{
name = m.uni07EB_1;
position = "{246, 750}";
},
{
name = m.uniA6F0_2;
position = "{0, 0}";
},
{
name = b.u16AF0_3;
position = "{0, 0}";
}
);
hints = (
{
horizontal = 1;
place = (0,102);
type = Stem;
},
{
horizontal = 1;
place = (597,102);
type = Stem;
},
{
place = (221,50);
type = Stem;
}
);
layerId = "658C8605-6260-49C3-8AFC-BEEEFEF62072";
shapes = (
{
closed = 1;
nodes = (
(47,597,l),
(221,597,l),
(221,102,l),
(-72,102,l),
(-72,0,l),
(573,0,l),
(573,102,l),
(271,102,l),
(271,597,l),
(453,597,l),
(453,699,l),
(47,699,l)
);
}
);
width = 475;
}
);
},
{
glyphname = maNko.medi;
layers = (
{
anchors = (
{
name = b.uni07F2;
position = "{331, -120}";
},
{
name = m.uni07EB_1;
position = "{331, 750}";
},
{
name = m.uniA6F0_2;
position = "{0, 0}";
},
{
name = b.u16AF0_3;
position = "{0, 0}";
}
);
hints = (
{
horizontal = 1;
place = (0,102);
type = Stem;
},
{
place = (-88,777);
type = Stem;
}
);
layerId = "658C8605-6260-49C3-8AFC-BEEEFEF62072";
shapes = (
{
closed = 1;
nodes = (
(325,698,o),
(320,693,o),
(317,688,c),
(306,675,o),
(271,575,o),
(262,551,cs),
(99,128,ls),
(95,119,o),
(92,111,o),
(88,102,c),
(-88,102,l),
(-88,0,l),
(689,0,l),
(689,102,l),
(569,102,l),
(566,111,o),
(562,120,o),
(558,129,c),
(399,551,ls),
(390,575,o),
(355,676,o),
(346,688,cs),
(342,693,o),
(337,698,o),
(331,698,cs)
);
},
{
closed = 1;
nodes = (
(505,102,l),
(153,102,l),
(331,564,l)
);
}
);
width = 613;
}
);
},
{
glyphname = nyaNko.medi;
layers = (
{
anchors = (
{
name = b.uni07F2;
position = "{302, -120}";
},
{
name = m.uni07EB_1;
position = "{250, 750}";
},
{
name = m.uniA6F0_2;
position = "{0, 0}";
},
{
name = b.u16AF0_3;
position = "{0, 0}";
}
);
hints = (
{
horizontal = 1;
place = (0,102);
type = Stem;
},
{
horizontal = 1;
place = (614,102);
type = Stem;
},
{
place = (108,50);
type = Stem;
},
{
place = (277,50);
type = Stem;
},
{
place = (444,50);
type = Stem;
}
);
layerId = "658C8605-6260-49C3-8AFC-BEEEFEF62072";
shapes = (
{
closed = 1;
nodes = (
(71,614,l),
(277,614,l),
(277,533,l),
(172,523,o),
(108,454,o),
(108,343,cs),
(108,235,o),
(176,168,o),
(277,158,c),
(277,102,l),
(-73,102,l),
(-73,0,l),
(613,0,l),
(613,102,l),
(327,102,l),
(327,159,l),
(428,169,o),
(494,236,o),
(494,345,cs),
(494,454,o),
(429,522,o),
(327,532,c),
(327,665,ls),
(327,680,o),
(322,716,o),
(302,716,cs),
(71,716,l)
);
},
{
closed = 1;
nodes = (
(158,351,o),
(160,357,o),
(162,362,cs),
(182,414,o),
(251,432,o),
(301,432,cs),
(351,432,o),
(420,414,o),
(440,362,cs),
(442,357,o),
(444,351,o),
(444,345,cs),
(444,333,o),
(438,322,o),
(432,312,c),
(404,272,o),
(347,259,o),
(301,259,cs),
(255,259,o),
(199,272,o),
(171,312,cs),
(164,322,o),
(158,333,o),
(158,345,cs)
);
}
);
width = 527;
}
);
},
{
glyphname = naNko.medi;
layers = (
{
anchors = (
{
name = b.uni07F2;
position = "{320, -79}";
},
{
name = m.uni07EB_1;
position = "{320, 750}";
},
{
name = m.uniA6F0_2;
position = "{0, 0}";
},
{
name = b.u16AF0_3;
position = "{0, 0}";
}
);
hints = (
{
horizontal = 1;
place = (0,102);
type = Stem;
},
{
horizontal = 1;
place = (598,102);
type = Stem;
},
{
place = (146,50);
type = Stem;
},
{
place = (427,50);
type = Stem;
}
);
layerId = "658C8605-6260-49C3-8AFC-BEEEFEF62072";
shapes = (
{
closed = 1;
nodes = (
(196,441,l),
(196,470,o),
(196,498,o),
(196,527,cs),
(196,579,o),
(238,598,o),
(284,598,cs),
(427,598,l),
(427,102,l),
(-79,102,l),
(-79,0,l),
(613,0,l),
(613,102,l),
(477,102,l),
(477,649,ls),
(477,664,o),
(472,700,o),
(452,700,cs),
(284,700,ls),
(186,700,o),
(146,622,o),
(146,534,cs),
(146,441,l)
);
}
);
width = 552;
}
);
},
{
glyphname = haNko.medi;
layers = (
{
anchors = (
{
name = b.uni07F2;
position = "{320, -120}";
},
{
name = m.uni07EB_1;
position = "{320, 750}";
},
{
name = m.uniA6F0_2;
position = "{0, 0}";
},
{
name = b.u16AF0_3;
position = "{0, 0}";
}
);
hints = (
{
horizontal = 1;
place = (0,102);
type = Stem;
},
{
horizontal = 1;
place = (469,102);
type = Stem;
},
{
place = (146,50);
type = Stem;
},
{
place = (440,50);
type = Stem;
}
);
layerId = "658C8605-6260-49C3-8AFC-BEEEFEF62072";
shapes = (
{
closed = 1;
nodes = (
(146,700,l),
(146,335,l),
(196,335,l),
(196,469,l),
(440,469,l),
(440,102,l),
(-81,102,l),
(-81,0,l),
(624,0,l),
(624,102,l),
(490,102,l),
(490,520,ls),
(490,535,o),
(485,571,o),
(465,571,cs),
(196,571,l),
(196,700,l)
);
}
);
width = 562;
}
);
},
{
glyphname = waNko.medi;
layers = (
{
anchors = (
{
name = b.uni07F2;
position = "{320, -120}";
},
{
name = m.uni07EB_1;
position = "{320, 750}";
},
{
name = m.uniA6F0_2;
position = "{0, 0}";
},
{
name = b.u16AF0_3;
position = "{0, 0}";
}
);
hints = (
{
horizontal = 1;
place = (0,102);
type = Stem;
},
{
horizontal = 1;
place = (333,102);
type = Stem;
},
{
horizontal = 1;
place = (599,102);
type = Stem;
},
{
place = (126,50);
type = Stem;
},
{
place = (469,50);
type = Stem;
}
);
layerId = "658C8605-6260-49C3-8AFC-BEEEFEF62072";
shapes = (
{
closed = 1;
nodes = (
(131,599,l),
(469,599,l),
(469,435,l),
(151,435,ls),
(132,435,o),
(126,399,o),
(126,384,cs),
(126,102,l),
(-82,102,l),
(-82,0,l),
(638,0,l),
(638,102,l),
(519,102,l),
(519,650,ls),
(519,665,o),
(514,701,o),
(494,701,cs),
(131,701,l)
);
},
{
closed = 1;
nodes = (
(176,103,l),
(176,333,l),
(469,333,l),
(469,103,l)
);
}
);
width = 589;
}
);
},
{
glyphname = yaNko.medi;
layers = (
{
anchors = (
{
name = b.uni07F2;
position = "{257, -120}";
},
{
name = m.uni07EB_1;
position = "{257, 750}";
},
{
name = m.uniA6F0_2;
position = "{0, 0}";
},
{
name = b.u16AF0_3;
position = "{0, 0}";
}
);
hints = (
{
horizontal = 1;
place = (0,102);
type = Stem;
},
{
horizontal = 1;
place = (461,239);
type = Stem;
},
{
place = (64,50);
type = Stem;
},
{
place = (232,50);
type = Stem;
},
{
place = (400,50);
type = Stem;
}
);
layerId = "658C8605-6260-49C3-8AFC-BEEEFEF62072";
shapes = (
{
closed = 1;
nodes = (
(64,264,o),
(131,197,o),
(232,188,c),
(232,102,l),
(-64,102,l),
(-64,0,l),
(550,0,l),
(550,102,l),
(282,102,l),
(282,188,l),
(384,197,o),
(450,265,o),
(450,374,cs),
(450,483,o),
(385,552,o),
(282,561,c),
(282,700,l),
(232,700,l),
(232,561,l),
(128,552,o),
(64,483,o),
(64,372,cs)
);
},
{
closed = 1;
nodes = (
(114,380,o),
(116,386,o),
(118,391,cs),
(138,443,o),
(207,461,o),
(257,461,cs),
(307,461,o),
(376,443,o),
(396,391,cs),
(398,386,o),
(400,380,o),
(400,374,cs),
(400,362,o),
(394,351,o),
(388,341,c),
(360,301,o),
(303,288,o),
(257,288,cs),
(211,288,o),
(155,301,o),
(127,341,cs),
(120,351,o),
(114,362,o),
(114,374,cs)
);
}
);
width = 477;
}
);
},
{
glyphname = nyawolosoNko.medi;
layers = (
{
anchors = (
{
name = b.uni07F2;
position = "{247, -120}";
},
{
name = m.uni07EB_1;
position = "{247, 750}";
},
{
name = m.uniA6F0_2;
position = "{0, 0}";
},
{
name = b.u16AF0_3;
position = "{0, 0}";
}
);
hints = (
{
horizontal = 1;
place = (0,102);
type = Stem;
},
{
horizontal = 1;
place = (599,102);
type = Stem;
},
{
place = (54,50);
type = Stem;
},
{
place = (222,50);
type = Stem;
},
{
place = (390,50);
type = Stem;
}
);
layerId = "658C8605-6260-49C3-8AFC-BEEEFEF62072";
shapes = (
{
closed = 1;
nodes = (
(54,221,o),
(121,154,o),
(222,145,c),
(222,102,l),
(-62,102,l),
(-62,0,l),
(545,0,l),
(545,102,l),
(272,102,l),
(272,145,l),
(374,154,o),
(440,222,o),
(440,331,cs),
(440,440,o),
(375,509,o),
(272,518,c),
(272,599,l),
(407,599,l),
(407,701,l),
(81,701,l),
(81,599,l),
(222,599,l),
(222,518,l),
(118,509,o),
(54,440,o),
(54,329,cs)
);
},
{
closed = 1;
nodes = (
(104,337,o),
(106,343,o),
(108,348,cs),
(128,400,o),
(197,418,o),
(247,418,cs),
(297,418,o),
(366,400,o),
(386,348,cs),
(388,343,o),
(390,337,o),
(390,331,cs),
(390,319,o),
(384,308,o),
(378,298,c),
(350,258,o),
(293,245,o),
(247,245,cs),
(201,245,o),
(145,258,o),
(117,298,cs),
(110,308,o),
(104,319,o),
(104,331,cs)
);
}
);
width = 477;
}
);
},
{
glyphname = jonajaNko.medi;
layers = (
{
anchors = (
{
name = b.uni07F2;
position = "{230, -320}";
},
{
name = m.uni07EB_1;
position = "{230, 750}";
},
{
name = m.uniA6F0_2;
position = "{0, 0}";
},
{
name = b.u16AF0_3;
position = "{0, 0}";
}
);
hints = (
{
horizontal = 1;
place = (-231,101);
type = Stem;
},
{
horizontal = 1;
place = (0,102);
type = Stem;
},
{
place = (-86,570);
type = Stem;
}
);
layerId = "658C8605-6260-49C3-8AFC-BEEEFEF62072";
shapes = (
{
closed = 1;
nodes = (
(291,291,l),
(212,102,l),
(-86,102,l),
(-86,0,l),
(170,0,l),
(131,-95,ls),
(125,-110,o),
(117,-126,o),
(112,-142,cs),
(109,-151,o),
(108,-160,o),
(108,-169,cs),
(108,-185,o),
(113,-215,o),
(131,-219,c),
(156,-226,o),
(186,-231,o),
(213,-231,cs),
(278,-231,o),
(329,-189,o),
(376,-149,c),
(356,-55,l),
(316,-91,o),
(270,-130,o),
(213,-130,cs),
(203,-130,o),
(193,-129,o),
(183,-127,c),
(236,0,l),
(484,0,l),
(484,102,l),
(278,102,l),
(329,225,l)
);
}
);
width = 422;
}
);
},
{
glyphname = jonachaNko.medi;
layers = (
{
anchors = (
{
name = b.uni07F2;
position = "{230, -340}";
},
{
name = m.uni07EB_1;
position = "{230, 750}";
},
{
name = m.uniA6F0_2;
position = "{0, 0}";
},
{
name = b.u16AF0_3;
position = "{0, 0}";
}
);
hints = (
{
horizontal = 1;
place = (-248,101);
type = Stem;
},
{
horizontal = 1;
place = (0,102);
type = Stem;
},
{
place = (302,54);
type = Stem;
}
);
layerId = "658C8605-6260-49C3-8AFC-BEEEFEF62072";
shapes = (
{
closed = 1;
nodes = (
(-71,0,l),
(170,0,l),
(131,-95,ls),
(121,-119,o),
(108,-142,o),
(108,-169,cs),
(108,-218,o),
(130,-222,o),
(170,-235,cs),
(197,-244,o),
(224,-248,o),
(252,-248,cs),
(321,-248,o),
(356,-191,o),
(356,-128,cs),
(356,-68,o),
(324,-25,o),
(278,0,c),
(487,0,l),
(487,102,l),
(278,102,l),
(329,225,l),
(291,291,l),
(212,102,l),
(-71,102,l)
);
},
{
closed = 1;
nodes = (
(204,-76,l),
(238,-83,o),
(283,-104,o),
(302,-128,c),
(293,-141,o),
(264,-147,o),
(249,-147,cs),
(226,-147,o),
(202,-142,o),
(180,-136,c)
);
}
);
width = 422;
}
);
},
{
glyphname = jonaraNko.medi;
layers = (
{
anchors = (
{
name = b.uni07F2;
position = "{210, -320}";
},
{
name = m.uni07EB_1;
position = "{210, 750}";
},
{
name = m.uniA6F0_2;
position = "{0, 0}";
},
{
name = b.u16AF0_3;
position = "{0, 0}";
}
);
hints = (
{
horizontal = 1;
place = (0,102);
type = Stem;
},
{
place = (185,50);
type = Stem;
}
);
layerId = "658C8605-6260-49C3-8AFC-BEEEFEF62072";
shapes = (
{
closed = 1;
nodes = (
(185,260,l),
(185,102,l),
(-62,102,l),
(-62,0,l),
(185,0,l),
(185,-217,l),
(235,-217,l),
(235,0,l),
(436,0,l),
(436,102,l),
(235,102,l),
(235,260,l)
);
}
);
width = 385;
}
);
},
{
glyphname = aNko.init;
layers = (
{
anchors = (
{
name = b.uni07F2;
position = "{132, -120}";
},
{
name = m.uni07EB_1;
position = "{132, 750}";
},
{
name = m.uniA6F0_2;
position = "{0, 0}";
},
{
name = b.u16AF0_3;
position = "{0, 0}";
}
);
hints = (
{
horizontal = 1;
place = (0,102);
type = Stem;
},
{
place = (107,50);
type = Stem;
}
);
layerId = "658C8605-6260-49C3-8AFC-BEEEFEF62072";
shapes = (
{
closed = 1;
nodes = (
(107,700,l),
(107,102,l),
(-66,102,l),
(-66,0,l),
(132,0,ls),
(152,0,o),
(157,36,o),
(157,51,cs),
(157,700,l)
);
}
);
width = 238;
}
);
},
{
glyphname = eeNko.init;
layers = (
{
anchors = (
{
name = b.uni07F2;
position = "{417, -120}";
},
{
name = m.uni07EB_1;
position = "{417, 588}";
},
{
name = m.uniA6F0_2;
position = "{0, 0}";
},
{
name = b.u16AF0_3;
position = "{0, 0}";
}
);
hints = (
{
horizontal = 1;
place = (0,102);
type = Stem;
},
{
horizontal = 1;
place = (422,102);
type = Stem;
},
{
place = (142,50);
type = Stem;
},
{
place = (642,50);
type = Stem;
}
);
layerId = "658C8605-6260-49C3-8AFC-BEEEFEF62072";
shapes = (
{
closed = 1;
nodes = (
(142,196,o),
(159,143,o),
(188,102,c),
(-57,102,l),
(-57,0,l),
(378,0,l),
(391,-1,o),
(404,-2,o),
(417,-2,cs),
(579,-2,o),
(692,95,o),
(692,261,cs),
(692,427,o),
(579,524,o),
(417,524,cs),
(253,524,o),
(142,426,o),
(142,259,cs)
);
},
{
closed = 1;
nodes = (
(192,335,o),
(254,386,o),
(319,408,cs),
(350,418,o),
(384,422,o),
(417,422,cs),
(450,422,o),
(484,418,o),
(515,408,cs),
(580,386,o),
(642,335,o),
(642,261,cs),
(642,187,o),
(580,136,o),
(515,114,cs),
(478,102,o),
(440,100,o),
(401,100,c),
(401,102,l),
(379,102,l),
(293,110,o),
(192,164,o),
(192,261,cs)
);
}
);
width = 796;
}
);
},
{
glyphname = iNko.init;
layers = (
{
anchors = (
{
name = b.uni07F2;
position = "{250, -120}";
},
{
name = m.uni07EB_1;
position = "{250, 750}";
},
{
name = m.uniA6F0_2;
position = "{0, 0}";
},
{
name = b.u16AF0_3;
position = "{0, 0}";
}
);
hints = (
{
horizontal = 1;
place = (0,102);
type = Stem;
},
{
place = (225,50);
type = Stem;
}
);
layerId = "658C8605-6260-49C3-8AFC-BEEEFEF62072";
shapes = (
{
closed = 1;
nodes = (
(56,656,l),
(225,301,l),
(225,102,l),
(-53,102,l),
(-53,0,l),
(250,0,ls),
(270,0,o),
(275,36,o),
(275,51,cs),
(275,300,l),
(450,654,l),
(414,726,l),
(250,394,l),
(94,724,l)
);
}
);
width = 478;
}
);
},
{
glyphname = eNko.init;
layers = (
{
anchors = (
{
name = b.uni07F2;
position = "{336, -120}";
},
{
name = m.uni07EB_1;
position = "{336, 588}";
},
{
name = m.uniA6F0_2;
position = "{0, 0}";
},
{
name = b.u16AF0_3;
position = "{0, 0}";
}
);
hints = (
{
horizontal = 1;
place = (0,102);
type = Stem;
},
{
place = (-88,697);
type = Stem;
}
);
layerId = "658C8605-6260-49C3-8AFC-BEEEFEF62072";
shapes = (
{
closed = 1;
nodes = (
(609,50,l),
(364,467,l),
(358,476,o),
(349,499,o),
(336,499,cs),
(323,499,o),
(313,476,o),
(307,467,cs),
(81,102,l),
(-88,102,l),
(-88,0,l),
(90,0,ls),
(103,0,o),
(112,21,o),
(118,31,cs),
(336,382,l),
(577,-28,l)
);
}
);
width = 643;
}
);
},
{
glyphname = uNko.init;
layers = (
{
anchors = (
{
name = b.uni07F2;
position = "{409, -120}";
},
{
name = m.uni07EB_1;
position = "{409, 588}";
},
{
name = m.uniA6F0_2;
position = "{0, 0}";
},
{
name = b.u16AF0_3;
position = "{0, 0}";
}
);
hints = (
{
horizontal = 1;
place = (-21,102);
type = Stem;
},
{
horizontal = 1;
place = (0,81);
type = Stem;
},
{
horizontal = 1;
place = (0,102);
type = Stem;
},
{
horizontal = 1;
place = (73,29);
type = Stem;
},
{
place = (199,50);
type = Stem;
},
{
place = (569,50);
type = Stem;
}
);
layerId = "658C8605-6260-49C3-8AFC-BEEEFEF62072";
shapes = (
{
closed = 1;
nodes = (
(199,500,l),
(199,102,l),
(-68,102,l),
(-68,0,l),
(224,0,ls),
(244,0,o),
(249,36,o),
(249,51,cs),
(249,73,l),
(284,19,o),
(337,-21,o),
(409,-21,cs),
(551,-21,o),
(619,86,o),
(619,218,cs),
(619,500,l),
(569,500,l),
(569,415,o),
(569,331,o),
(569,246,cs),
(569,230,o),
(569,213,o),
(567,196,cs),
(557,117,o),
(482,81,o),
(409,81,cs),
(321,81,o),
(268,149,o),
(249,228,c),
(249,500,l)
);
}
);
width = 690;
}
);
},
{
glyphname = ooNko.init;
layers = (
{
anchors = (
{
name = b.uni07F2;
position = "{280, -120}";
},
{
name = m.uni07EB_1;
position = "{280, 588}";
},
{
name = m.uniA6F0_2;
position = "{0, 0}";
},
{
name = b.u16AF0_3;
position = "{0, 0}";
}
);
hints = (
{
horizontal = 1;
place = (0,102);
type = Stem;
},
{
horizontal = 1;
place = (415,101);
type = Stem;
},
{
place = (455,50);
type = Stem;
}
);
layerId = "658C8605-6260-49C3-8AFC-BEEEFEF62072";
shapes = (
{
closed = 1;
nodes = (
(104,414,l),
(189,414,o),
(273,415,o),
(358,415,cs),
(401,415,o),
(455,412,o),
(455,355,cs),
(455,173,ls),
(455,106,o),
(421,102,o),
(373,102,cs),
(366,102,o),
(358,102,o),
(350,102,cs),
(-84,102,l),
(-84,0,l),
(395,0,ls),
(482,0,o),
(505,103,o),
(505,172,cs),
(505,357,ls),
(505,434,o),
(474,516,o),
(384,516,cs),
(104,516,l)
);
}
);
width = 566;
}
);
},
{
glyphname = oNko.init;
layers = (
{
anchors = (
{
name = b.uni07F2;
position = "{295, -120}";
},
{
name = m.uni07EB_1;
position = "{295, 750}";
},
{
name = m.uniA6F0_2;
position = "{0, 0}";
},
{
name = b.u16AF0_3;
position = "{0, 0}";
}
);
hints = (
{
horizontal = 1;
place = (0,102);
type = Stem;
},
{
horizontal = 1;
place = (282,101);
type = Stem;
},
{
horizontal = 1;
place = (616,102);
type = Stem;
},
{
place = (72,50);
type = Stem;
},
{
place = (263,50);
type = Stem;
},
{
place = (467,50);
type = Stem;
}
);
layerId = "658C8605-6260-49C3-8AFC-BEEEFEF62072";
shapes = (
{
closed = 1;
nodes = (
(72,374,o),
(148,295,o),
(263,283,c),
(263,102,l),
(-76,102,l),
(-76,0,l),
(471,0,l),
(471,102,l),
(313,102,l),
(313,282,l),
(437,289,o),
(517,371,o),
(517,500,cs),
(517,635,o),
(428,718,o),
(295,718,cs),
(159,718,o),
(72,635,o),
(72,498,cs)
);
},
{
closed = 1;
nodes = (
(122,518,o),
(129,535,o),
(139,549,cs),
(172,599,o),
(238,616,o),
(295,616,cs),
(362,616,o),
(467,582,o),
(467,500,cs),
(467,482,o),
(460,465,o),
(451,450,c),
(417,400,o),
(352,383,o),
(295,383,cs),
(238,383,o),
(172,400,o),
(139,450,cs),
(129,465,o),
(122,482,o),
(122,500,cs)
);
}
);
width = 566;
}
);
},
{
glyphname = dagbasinnaNko.init;
layers = (
{
anchors = (
{
name = b.uni07F2;
position = "{237, -120}";
},
{
name = m.uni07EB_1;
position = "{237, 750}";
},
{
name = m.uniA6F0_2;
position = "{0, 0}";
},
{
name = b.u16AF0_3;
position = "{0, 0}";
}
);
hints = (
{
horizontal = 1;
place = (0,102);
type = Stem;
},
{
horizontal = 1;
place = (352,148);
type = Stem;
},
{
place = (173,50);
type = Stem;
}
);
layerId = "658C8605-6260-49C3-8AFC-BEEEFEF62072";
shapes = (
{
closed = 1;
nodes = (
(301,687,l),
(213,638,o),
(173,598,o),
(173,487,cs),
(173,431,o),
(193,352,o),
(262,352,cs),
(301,352,o),
(316,390,o),
(316,423,cs),
(316,460,o),
(299,500,o),
(257,500,cs),
(242,500,o),
(232,495,o),
(224,484,c),
(223,488,l),
(223,543,o),
(272,567,o),
(315,589,c)
);
},
{
closed = 1;
nodes = (
(-69,0,l),
(409,0,l),
(409,102,l),
(-69,102,l)
);
}
);
width = 471;
}
);
},
{
glyphname = nNko.init;
layers = (
{
anchors = (
{
name = b.uni07F2;
position = "{358, -120}";
},
{
name = m.uni07EB_1;
position = "{255, 750}";
},
{
name = m.uniA6F0_2;
position = "{0, 0}";
},
{
name = b.u16AF0_3;
position = "{0, 0}";
}
);
hints = (
{
horizontal = 1;
place = (0,102);
type = Stem;
},
{
horizontal = 1;
place = (359,101);
type = Stem;
},
{
horizontal = 1;
place = (616,102);
type = Stem;
},
{
place = (91,50);
type = Stem;
},
{
place = (333,50);
type = Stem;
},
{
place = (547,50);
type = Stem;
}
);
layerId = "658C8605-6260-49C3-8AFC-BEEEFEF62072";
shapes = (
{
closed = 1;
nodes = (
(-87,0,l),
(572,0,ls),
(592,0,o),
(597,37,o),
(597,51,cs),
(597,294,ls),
(597,369,o),
(582,460,o),
(488,460,c),
(383,459,l),
(383,463,ls),
(383,561,o),
(381,718,o),
(246,718,cs),
(135,718,o),
(91,634,o),
(91,533,cs),
(91,380,o),
(210,358,o),
(333,358,c),
(333,213,l),
(383,213,l),
(383,358,l),
(414,359,o),
(445,359,o),
(475,359,cs),
(527,359,o),
(547,350,o),
(547,296,cs),
(547,102,l),
(-87,102,l)
);
},
{
closed = 1;
nodes = (
(332,459,l),
(287,459,o),
(141,465,o),
(141,534,cs),
(141,594,o),
(194,616,o),
(246,616,cs),
(288,616,o),
(319,600,o),
(327,557,c),
(334,525,o),
(334,492,o),
(333,459,c)
);
}
);
width = 657;
}
);
},
{
glyphname = baNko.init;
layers = (
{
anchors = (
{
name = b.uni07F2;
position = "{340, -120}";
},
{
name = m.uni07EB_1;
position = "{340, 750}";
},
{
name = m.uniA6F0_2;
position = "{0, 0}";
},
{
name = b.u16AF0_3;
position = "{0, 0}";
}
);
hints = (
{
horizontal = 1;
place = (0,102);
type = Stem;
},
{
horizontal = 1;
place = (333,102);
type = Stem;
},
{
horizontal = 1;
place = (602,102);
type = Stem;
},
{
place = (181,50);
type = Stem;
}
);
layerId = "658C8605-6260-49C3-8AFC-BEEEFEF62072";
shapes = (
{
closed = 1;
nodes = (
(463,435,l),
(231,435,l),
(231,602,l),
(471,602,l),
(471,704,l),
(206,704,ls),
(177,704,o),
(181,637,o),
(181,618,cs),
(181,102,l),
(-77,102,l),
(-77,0,l),
(206,0,ls),
(235,0,o),
(231,67,o),
(231,86,cs),
(231,333,l),
(463,333,l)
);
}
);
width = 508;
}
);
},
{
glyphname = paNko.init;
layers = (
{
anchors = (
{
name = b.uni07F2;
position = "{280, -120}";
},
{
name = m.uni07EB_1;
position = "{280, 750}";
},
{
name = m.uniA6F0_2;
position = "{0, 0}";
},
{
name = b.u16AF0_3;
position = "{0, 0}";
}
);
hints = (
{
horizontal = 1;
place = (0,102);
type = Stem;
},
{
horizontal = 1;
place = (333,102);
type = Stem;
},
{
horizontal = 1;
place = (602,102);
type = Stem;
},
{
place = (380,50);
type = Stem;
}
);
layerId = "658C8605-6260-49C3-8AFC-BEEEFEF62072";
shapes = (
{
closed = 1;
nodes = (
(148,333,l),
(380,333,l),
(380,102,l),
(-62,102,l),
(-62,0,l),
(405,0,ls),
(425,0,o),
(430,36,o),
(430,51,cs),
(430,653,ls),
(430,668,o),
(425,704,o),
(405,704,cs),
(140,704,l),
(140,602,l),
(380,602,l),
(380,435,l),
(148,435,l)
);
}
);
width = 508;
}
);
},
{
glyphname = taNko.init;
layers = (
{
anchors = (
{
name = b.uni07F2;
position = "{266, -120}";
},
{
name = m.uni07EB_1;
position = "{266, 750}";
},
{
name = m.uniA6F0_2;
position = "{0, 0}";
},
{
name = b.u16AF0_3;
position = "{0, 0}";
}
);
hints = (
{
horizontal = 1;
place = (0,102);
type = Stem;
},
{
horizontal = 1;
place = (342,102);
type = Stem;
},
{
place = (84,50);
type = Stem;
},
{
place = (411,50);
type = Stem;
}
);
layerId = "658C8605-6260-49C3-8AFC-BEEEFEF62072";
shapes = (
{
closed = 1;
nodes = (
(84,703,l),
(84,102,l),
(-66,102,l),
(-66,0,l),
(216,0,ls),
(351,0,o),
(461,80,o),
(461,223,cs),
(461,344,o),
(395,444,o),
(266,444,cs),
(217,444,o),
(172,423,o),
(134,393,c),
(134,703,l)
);
},
{
closed = 1;
nodes = (
(134,102,l),
(134,282,l),
(170,317,o),
(215,342,o),
(266,342,cs),
(336,342,o),
(411,302,o),
(411,223,cs),
(411,207,o),
(404,191,o),
(394,178,cs),
(357,125,o),
(278,102,o),
(216,102,cs)
);
}
);
width = 510;
}
);
},
{
glyphname = jaNko.init;
layers = (
{
anchors = (
{
name = b.uni07F2;
position = "{320, -120}";
},
{
name = m.uni07EB_1;
position = "{230, 750}";
},
{
name = m.uniA6F0_2;
position = "{0, 0}";
},
{
name = b.u16AF0_3;
position = "{0, 0}";
}
);
hints = (
{
horizontal = 1;
place = (0,102);
type = Stem;
},
{
horizontal = 1;
place = (612,102);
type = Stem;
},
{
place = (293,52);
type = Stem;
}
);
layerId = "658C8605-6260-49C3-8AFC-BEEEFEF62072";
shapes = (
{
closed = 1;
nodes = (
(-73,0,l),
(320,0,ls),
(340,0,o),
(345,37,o),
(345,51,cs),
(345,270,o),
(289,433,o),
(164,612,c),
(414,612,l),
(414,714,l),
(80,714,ls),
(60,714,o),
(55,677,o),
(55,663,cs),
(55,650,o),
(57,637,o),
(63,626,cs),
(72,609,o),
(86,596,o),
(97,581,c),
(209,440,o),
(285,285,o),
(293,102,c),
(-73,102,l)
);
}
);
width = 452;
}
);
},
{
glyphname = chaNko.init;
layers = (
{
anchors = (
{
name = b.uni07F2;
position = "{250, -120}";
},
{
name = m.uni07EB_1;
position = "{250, 750}";
},
{
name = m.uniA6F0_2;
position = "{0, 0}";
},
{
name = b.u16AF0_3;
position = "{0, 0}";
}
);
hints = (
{
horizontal = 1;
place = (0,102);
type = Stem;
},
{
place = (320,50);
type = Stem;
}
);
layerId = "658C8605-6260-49C3-8AFC-BEEEFEF62072";
shapes = (
{
closed = 1;
nodes = (
(-75,0,l),
(345,0,ls),
(365,0,o),
(370,36,o),
(370,51,cs),
(370,678,ls),
(370,693,o),
(365,729,o),
(345,729,cs),
(334,729,o),
(316,704,o),
(308,696,cs),
(89,460,l),
(113,370,l),
(320,593,l),
(320,102,l),
(-75,102,l)
);
}
);
width = 441;
}
);
},
{
glyphname = daNko.init;
layers = (
{
anchors = (
{
name = b.uni07F2;
position = "{453, -120}";
},
{
name = m.uni07EB_1;
position = "{453, 588}";
},
{
name = m.uniA6F0_2;
position = "{0, 0}";
},
{
name = b.u16AF0_3;
position = "{0, 0}";
}
);
hints = (
{
horizontal = 1;
place = (0,102);
type = Stem;
},
{
horizontal = 1;
place = (372,102);
type = Stem;
},
{
horizontal = 1;
place = (415,102);
type = Stem;
},
{
place = (165,50);
type = Stem;
},
{
place = (428,50);
type = Stem;
},
{
place = (697,50);
type = Stem;
}
);
layerId = "658C8605-6260-49C3-8AFC-BEEEFEF62072";
shapes = (
{
closed = 1;
nodes = (
(415,452,o),
(371,474,o),
(318,474,cs),
(171,474,o),
(165,358,o),
(165,243,cs),
(165,102,l),
(-52,102,l),
(-52,0,l),
(722,0,ls),
(742,0,o),
(747,37,o),
(747,51,cs),
(747,328,ls),
(747,421,o),
(701,517,o),
(596,517,cs),
(521,517,o),
(476,474,o),
(447,409,c)
);
},
{
closed = 1;
nodes = (
(478,102,l),
(478,325,l),
(492,378,o),
(537,415,o),
(592,415,cs),
(646,415,o),
(697,386,o),
(697,326,cs),
(697,102,l)
);
},
{
closed = 1;
nodes = (
(215,102,l),
(215,265,ls),
(215,282,o),
(215,317,o),
(223,332,cs),
(241,366,o),
(283,372,o),
(318,372,cs),
(362,372,o),
(411,352,o),
(428,308,c),
(428,102,l)
);
}
);
width = 813;
}
);
},
{
glyphname = raNko.init;
layers = (
{
anchors = (
{
name = b.uni07F2;
position = "{217, -120}";
},
{
name = m.uni07EB_1;
position = "{217, 750}";
},
{
name = m.uniA6F0_2;
position = "{0, 0}";
},
{
name = b.u16AF0_3;
position = "{0, 0}";
}
);
hints = (
{
horizontal = 1;
place = (0,102);
type = Stem;
},
{
horizontal = 1;
place = (389,102);
type = Stem;
},
{
place = (192,50);
type = Stem;
}
);
layerId = "658C8605-6260-49C3-8AFC-BEEEFEF62072";
shapes = (
{
closed = 1;
nodes = (
(73,389,l),
(192,389,l),
(192,102,l),
(-51,102,l),
(-51,0,l),
(217,0,ls),
(237,0,o),
(242,36,o),
(242,51,cs),
(242,389,l),
(357,389,l),
(357,491,l),
(242,491,l),
(242,700,l),
(192,700,l),
(192,491,l),
(73,491,l)
);
}
);
width = 395;
}
);
},
{
glyphname = rraNko.init;
layers = (
{
anchors = (
{
name = b.uni07F2;
position = "{320, -120}";
},
{
name = m.uni07EB_1;
position = "{320, 750}";
},
{
name = m.uniA6F0_2;
position = "{0, 0}";
},
{
name = b.u16AF0_3;
position = "{0, 0}";
}
);
hints = (
{
horizontal = 1;
place = (-7,102);
type = Stem;
},
{
horizontal = 1;
place = (0,102);
type = Stem;
},
{
horizontal = 1;
place = (70,32);
type = Stem;
},
{
horizontal = 1;
place = (400,102);
type = Stem;
},
{
place = (177,50);
type = Stem;
},
{
place = (428,50);
type = Stem;
}
);
layerId = "658C8605-6260-49C3-8AFC-BEEEFEF62072";
shapes = (
{
closed = 1;
nodes = (
(428,713,l),
(428,502,l),
(227,502,l),
(227,700,l),
(177,700,l),
(177,502,l),
(42,502,l),
(42,400,l),
(177,400,l),
(177,102,l),
(-58,102,l),
(-58,0,l),
(202,0,ls),
(222,0,o),
(227,36,o),
(227,51,cs),
(227,70,l),
(258,27,o),
(299,-7,o),
(354,-7,cs),
(468,-7,o),
(478,80,o),
(478,172,cs),
(478,400,l),
(591,400,l),
(591,502,l),
(478,502,l),
(478,713,l)
);
},
{
closed = 1;
nodes = (
(227,400,l),
(428,400,l),
(428,172,ls),
(428,160,o),
(429,131,o),
(423,121,c),
(412,99,o),
(376,95,o),
(354,95,cs),
(290,95,o),
(250,152,o),
(227,204,c)
);
}
);
width = 617;
}
);
},
{
glyphname = saNko.init;
layers = (
{
anchors = (
{
name = b.uni07F2;
position = "{460, -120}";
},
{
name = m.uni07EB_1;
position = "{460, 588}";
},
{
name = m.uniA6F0_2;
position = "{0, 0}";
},
{
name = b.u16AF0_3;
position = "{0, 0}";
}
);
hints = (
{
horizontal = 1;
place = (0,102);
type = Stem;
},
{
horizontal = 1;
place = (415,102);
type = Stem;
},
{
place = (174,50);
type = Stem;
},
{
place = (684,50);
type = Stem;
}
);
layerId = "658C8605-6260-49C3-8AFC-BEEEFEF62072";
shapes = (
{
closed = 1;
nodes = (
(340,517,ls),
(231,517,o),
(174,441,o),
(174,337,cs),
(174,102,l),
(-39,102,l),
(-39,0,l),
(588,0,ls),
(689,0,o),
(734,81,o),
(734,173,cs),
(734,466,ls),
(734,480,o),
(729,517,o),
(709,517,cs)
);
},
{
closed = 1;
nodes = (
(684,415,l),
(684,175,ls),
(684,124,o),
(632,102,o),
(588,102,cs),
(224,102,l),
(224,335,ls),
(224,393,o),
(292,415,o),
(340,415,cs)
);
}
);
width = 798;
}
);
},
{
glyphname = gbaNko.init;
layers = (
{
anchors = (
{
name = b.uni07F2;
position = "{331, -120}";
},
{
name = m.uni07EB_1;
position = "{331, 750}";
},
{
name = m.uniA6F0_2;
position = "{0, 0}";
},
{
name = b.u16AF0_3;
position = "{0, 0}";
}
);
hints = (
{
horizontal = 1;
place = (0,102);
type = Stem;
},
{
horizontal = 1;
place = (596,102);
type = Stem;
},
{
place = (-63,644);
type = Stem;
}
);
layerId = "658C8605-6260-49C3-8AFC-BEEEFEF62072";
shapes = (
{
closed = 1;
nodes = (
(331,0,ls),
(337,0,o),
(342,5,o),
(346,10,cs),
(355,22,o),
(390,124,o),
(399,147,cs),
(558,569,ls),
(568,594,o),
(581,620,o),
(581,647,cs),
(581,662,o),
(576,698,o),
(556,698,cs),
(101,698,ls),
(82,698,o),
(76,662,o),
(76,647,cs),
(76,620,o),
(89,595,o),
(99,570,cs),
(262,147,ls),
(265,139,o),
(271,122,o),
(279,102,c),
(-63,102,l),
(-63,0,l)
);
},
{
closed = 1;
nodes = (
(331,134,l),
(153,596,l),
(505,596,l)
);
}
);
width = 613;
}
);
},
{
glyphname = faNko.init;
layers = (
{
anchors = (
{
name = b.uni07F2;
position = "{423, -120}";
},
{
name = m.uni07EB_1;
position = "{480, 750}";
},
{
name = m.uniA6F0_2;
position = "{0, 0}";
},
{
name = b.u16AF0_3;
position = "{0, 0}";
}
);
hints = (
{
horizontal = 1;
place = (0,102);
type = Stem;
},
{
horizontal = 1;
place = (337,101);
type = Stem;
},
{
horizontal = 1;
place = (617,102);
type = Stem;
},
{
place = (137,50);
type = Stem;
},
{
place = (398,50);
type = Stem;
},
{
place = (641,50);
type = Stem;
}
);
layerId = "658C8605-6260-49C3-8AFC-BEEEFEF62072";
shapes = (
{
closed = 1;
nodes = (
(-71,0,l),
(423,0,ls),
(448,0,o),
(449,51,o),
(449,68,cs),
(449,102,o),
(448,137,o),
(448,171,cs),
(448,336,l),
(464,336,o),
(480,335,o),
(497,335,cs),
(609,335,o),
(691,400,o),
(691,517,cs),
(691,610,o),
(654,719,o),
(544,719,cs),
(501,719,o),
(470,704,o),
(442,672,cs),
(393,616,o),
(396,515,o),
(397,438,c),
(223,438,ls),
(156,438,o),
(137,364,o),
(137,310,cs),
(137,102,l),
(-71,102,l)
);
},
{
closed = 1;
nodes = (
(447,452,o),
(447,466,o),
(447,480,cs),
(447,507,o),
(447,536,o),
(455,562,cs),
(468,600,o),
(506,617,o),
(544,617,cs),
(605,617,o),
(641,577,o),
(641,517,cs),
(641,478,o),
(579,449,o),
(547,442,cs),
(526,438,o),
(505,437,o),
(484,437,cs),
(472,437,o),
(459,437,o),
(447,437,c)
);
},
{
closed = 1;
nodes = (
(187,102,l),
(187,309,ls),
(187,336,o),
(216,337,o),
(237,337,c),
(238,337,o),
(240,337,o),
(241,337,c),
(293,337,o),
(346,336,o),
(398,336,c),
(398,102,l)
);
}
);
width = 721;
}
);
},
{
glyphname = kaNko.init;
layers = (
{
anchors = (
{
name = b.uni07F2;
position = "{300, -120}";
},
{
name = m.uni07EB_1;
position = "{300, 750}";
},
{
name = m.uniA6F0_2;
position = "{0, 0}";
},
{
name = b.u16AF0_3;
position = "{0, 0}";
}
);
hints = (
{
horizontal = 1;
place = (0,102);
type = Stem;
},
{
horizontal = 1;
place = (366,102);
type = Stem;
},
{
place = (137,50);
type = Stem;
},
{
place = (451,50);
type = Stem;
}
);
layerId = "658C8605-6260-49C3-8AFC-BEEEFEF62072";
shapes = (
{
closed = 1;
nodes = (
(137,584,l),
(137,251,l),
(187,251,l),
(187,366,l),
(451,366,l),
(451,102,l),
(-57,102,l),
(-57,0,l),
(476,0,ls),
(496,0,o),
(501,36,o),
(501,51,cs),
(501,700,l),
(451,700,l),
(451,468,l),
(187,468,l),
(187,584,l)
);
}
);
width = 574;
}
);
},
{
glyphname = laNko.init;
layers = (
{
anchors = (
{
name = b.uni07F2;
position = "{228, -120}";
},
{
name = m.uni07EB_1;
position = "{228, 750}";
},
{
name = m.uniA6F0_2;
position = "{0, 0}";
},
{
name = b.u16AF0_3;
position = "{0, 0}";
}
);
hints = (
{
horizontal = 1;
place = (0,102);
type = Stem;
},
{
horizontal = 1;
place = (358,101);
type = Stem;
},
{
horizontal = 1;
place = (616,102);
type = Stem;
},
{
place = (91,50);
type = Stem;
},
{
place = (333,50);
type = Stem;
}
);
layerId = "658C8605-6260-49C3-8AFC-BEEEFEF62072";
shapes = (
{
closed = 1;
nodes = (
(-69,0,l),
(358,0,ls),
(378,0,o),
(383,37,o),
(383,51,cs),
(383,358,l),
(525,358,l),
(525,460,l),
(478,460,o),
(431,459,o),
(383,459,c),
(383,463,ls),
(383,561,o),
(381,718,o),
(246,718,cs),
(135,718,o),
(91,634,o),
(91,533,cs),
(91,390,o),
(195,358,o),
(317,358,cs),
(333,358,l),
(333,200,ls),
(333,167,o),
(333,134,o),
(333,102,c),
(-69,102,l)
);
},
{
closed = 1;
nodes = (
(280,459,o),
(196,462,o),
(157,501,cs),
(148,510,o),
(141,520,o),
(141,534,cs),
(141,594,o),
(194,616,o),
(246,616,cs),
(324,616,o),
(333,559,o),
(333,496,cs),
(333,483,o),
(333,471,o),
(333,459,c)
);
}
);
width = 565;
}
);
},
{
glyphname = nawolosoNko.init;
layers = (
{
anchors = (
{
name = b.uni07F2;
position = "{246, -120}";
},
{
name = m.uni07EB_1;
position = "{246, 750}";
},
{
name = m.uniA6F0_2;
position = "{0, 0}";
},
{
name = b.u16AF0_3;
position = "{0, 0}";
}
);
hints = (
{
horizontal = 1;
place = (0,102);
type = Stem;
},
{
horizontal = 1;
place = (597,102);
type = Stem;
},
{
place = (221,50);
type = Stem;
}
);
layerId = "658C8605-6260-49C3-8AFC-BEEEFEF62072";
shapes = (
{
closed = 1;
nodes = (
(47,597,l),
(221,597,l),
(221,102,l),
(-72,102,l),
(-72,0,l),
(246,0,ls),
(266,0,o),
(271,36,o),
(271,51,cs),
(271,597,l),
(453,597,l),
(453,699,l),
(47,699,l)
);
}
);
width = 475;
}
);
},
{
glyphname = maNko.init;
layers = (
{
anchors = (
{
name = b.uni07F2;
position = "{331, -120}";
},
{
name = m.uni07EB_1;
position = "{331, 750}";
},
{
name = m.uniA6F0_2;
position = "{0, 0}";
},
{
name = b.u16AF0_3;
position = "{0, 0}";
}
);
hints = (
{
horizontal = 1;
place = (0,102);
type = Stem;
},
{
place = (-88,669);
type = Stem;
}
);
layerId = "658C8605-6260-49C3-8AFC-BEEEFEF62072";
shapes = (
{
closed = 1;
nodes = (
(325,698,o),
(320,693,o),
(317,688,c),
(306,675,o),
(271,575,o),
(262,551,cs),
(99,128,ls),
(95,119,o),
(92,111,o),
(88,102,c),
(-88,102,l),
(-88,0,l),
(556,0,ls),
(576,0,o),
(581,36,o),
(581,51,cs),
(581,78,o),
(568,104,o),
(558,129,cs),
(399,551,ls),
(390,575,o),
(355,676,o),
(346,688,cs),
(342,693,o),
(337,698,o),
(331,698,cs)
);
},
{
closed = 1;
nodes = (
(505,102,l),
(153,102,l),
(331,564,l)
);
}
);
width = 613;
}
);
},
{
glyphname = nyaNko.init;
layers = (
{
anchors = (
{
name = b.uni07F2;
position = "{302, -120}";
},
{
name = m.uni07EB_1;
position = "{302, 750}";
},
{
name = m.uniA6F0_2;
position = "{0, 0}";
},
{
name = b.u16AF0_3;
position = "{0, 0}";
}
);
hints = (
{
horizontal = 1;
place = (0,102);
type = Stem;
},
{
horizontal = 1;
place = (614,102);
type = Stem;
},
{
place = (108,50);
type = Stem;
},
{
place = (277,50);
type = Stem;
},
{
place = (444,50);
type = Stem;
}
);
layerId = "658C8605-6260-49C3-8AFC-BEEEFEF62072";
shapes = (
{
closed = 1;
nodes = (
(71,614,l),
(277,614,l),
(277,533,l),
(172,523,o),
(108,454,o),
(108,343,cs),
(108,235,o),
(176,168,o),
(277,158,c),
(277,102,l),
(-73,102,l),
(-73,0,l),
(302,0,ls),
(322,0,o),
(327,36,o),
(327,51,cs),
(327,159,l),
(428,169,o),
(494,236,o),
(494,345,cs),
(494,454,o),
(429,522,o),
(327,532,c),
(327,665,ls),
(327,680,o),
(322,716,o),
(302,716,cs),
(71,716,l)
);
},
{
closed = 1;
nodes = (
(158,351,o),
(160,357,o),
(162,362,cs),
(182,414,o),
(251,432,o),
(301,432,cs),
(351,432,o),
(420,414,o),
(440,362,cs),
(442,357,o),
(444,351,o),
(444,345,cs),
(444,333,o),
(438,322,o),
(432,312,c),
(404,272,o),
(347,259,o),
(301,259,cs),
(255,259,o),
(199,272,o),
(171,312,cs),
(164,322,o),
(158,333,o),
(158,345,cs)
);
}
);
width = 527;
}
);
},
{
glyphname = naNko.init;
layers = (
{
anchors = (
{
name = b.uni07F2;
position = "{320, -120}";
},
{
name = m.uni07EB_1;
position = "{320, 750}";
},
{
name = m.uniA6F0_2;
position = "{0, 0}";
},
{
name = b.u16AF0_3;
position = "{0, 0}";
}
);
hints = (
{
horizontal = 1;
place = (0,102);
type = Stem;
},
{
horizontal = 1;
place = (598,102);
type = Stem;
},
{
place = (146,50);
type = Stem;
},
{
place = (427,50);
type = Stem;
}
);
layerId = "658C8605-6260-49C3-8AFC-BEEEFEF62072";
shapes = (
{
closed = 1;
nodes = (
(-79,0,l),
(452,0,ls),
(472,0,o),
(477,36,o),
(477,51,cs),
(477,649,ls),
(477,664,o),
(472,700,o),
(452,700,cs),
(284,700,ls),
(186,700,o),
(146,622,o),
(146,534,cs),
(146,441,l),
(196,441,l),
(196,470,o),
(196,498,o),
(196,527,cs),
(196,579,o),
(238,598,o),
(284,598,cs),
(427,598,l),
(427,102,l),
(-79,102,l)
);
}
);
width = 552;
}
);
},
{
glyphname = haNko.init;
layers = (
{
anchors = (
{
name = b.uni07F2;
position = "{320, -120}";
},
{
name = m.uni07EB_1;
position = "{320, 750}";
},
{
name = m.uniA6F0_2;
position = "{0, 0}";
},
{
name = b.u16AF0_3;
position = "{0, 0}";
}
);
hints = (
{
horizontal = 1;
place = (0,102);
type = Stem;
},
{
horizontal = 1;
place = (469,102);
type = Stem;
},
{
place = (146,50);
type = Stem;
},
{
place = (440,50);
type = Stem;
}
);
layerId = "658C8605-6260-49C3-8AFC-BEEEFEF62072";
shapes = (
{
closed = 1;
nodes = (
(146,700,l),
(146,335,l),
(196,335,l),
(196,469,l),
(440,469,l),
(440,102,l),
(-81,102,l),
(-81,0,l),
(465,0,ls),
(485,0,o),
(490,36,o),
(490,51,cs),
(490,520,ls),
(490,535,o),
(485,571,o),
(465,571,cs),
(196,571,l),
(196,700,l)
);
}
);
width = 562;
}
);
},
{
glyphname = waNko.init;
layers = (
{
anchors = (
{
name = b.uni07F2;
position = "{320, -120}";
},
{
name = m.uni07EB_1;
position = "{320, 750}";
},
{
name = m.uniA6F0_2;
position = "{0, 0}";
},
{
name = b.u16AF0_3;
position = "{0, 0}";
}
);
hints = (
{
horizontal = 1;
place = (0,102);
type = Stem;
},
{
horizontal = 1;
place = (333,102);
type = Stem;
},
{
horizontal = 1;
place = (599,102);
type = Stem;
},
{
place = (126,50);
type = Stem;
},
{
place = (469,50);
type = Stem;
}
);
layerId = "658C8605-6260-49C3-8AFC-BEEEFEF62072";
shapes = (
{
closed = 1;
nodes = (
(131,599,l),
(469,599,l),
(469,435,l),
(151,435,ls),
(132,435,o),
(126,399,o),
(126,384,cs),
(126,102,l),
(-82,102,l),
(-82,0,l),
(494,0,ls),
(514,0,o),
(519,36,o),
(519,51,cs),
(519,650,ls),
(519,665,o),
(514,701,o),
(494,701,cs),
(131,701,l)
);
},
{
closed = 1;
nodes = (
(176,102,l),
(176,333,l),
(469,333,l),
(469,102,l)
);
}
);
width = 589;
}
);
},
{
glyphname = yaNko.init;
layers = (
{
anchors = (
{
name = b.uni07F2;
position = "{257, -120}";
},
{
name = m.uni07EB_1;
position = "{257, 750}";
},
{
name = m.uniA6F0_2;
position = "{0, 0}";
},
{
name = b.u16AF0_3;
position = "{0, 0}";
}
);
hints = (
{
horizontal = 1;
place = (0,102);
type = Stem;
},
{
horizontal = 1;
place = (461,239);
type = Stem;
},
{
place = (64,50);
type = Stem;
},
{
place = (232,50);
type = Stem;
},
{
place = (400,50);
type = Stem;
}
);
layerId = "658C8605-6260-49C3-8AFC-BEEEFEF62072";
shapes = (
{
closed = 1;
nodes = (
(64,264,o),
(131,197,o),
(232,188,c),
(232,102,l),
(-64,102,l),
(-64,0,l),
(257,0,ls),
(277,0,o),
(282,36,o),
(282,51,cs),
(282,188,l),
(384,197,o),
(450,265,o),
(450,374,cs),
(450,483,o),
(385,552,o),
(282,561,c),
(282,700,l),
(232,700,l),
(232,561,l),
(128,552,o),
(64,483,o),
(64,372,cs)
);
},
{
closed = 1;
nodes = (
(114,380,o),
(116,386,o),
(118,391,cs),
(138,443,o),
(207,461,o),
(257,461,cs),
(307,461,o),
(376,443,o),
(396,391,cs),
(398,386,o),
(400,380,o),
(400,374,cs),
(400,362,o),
(394,351,o),
(388,341,c),
(360,301,o),
(303,288,o),
(257,288,cs),
(211,288,o),
(155,301,o),
(127,341,cs),
(120,351,o),
(114,362,o),
(114,374,cs)
);
}
);
width = 477;
}
);
},
{
glyphname = nyawolosoNko.init;
layers = (
{
anchors = (
{
name = b.uni07F2;
position = "{247, -120}";
},
{
name = m.uni07EB_1;
position = "{247, 750}";
},
{
name = m.uniA6F0_2;
position = "{0, 0}";
},
{
name = b.u16AF0_3;
position = "{0, 0}";
}
);
hints = (
{
horizontal = 1;
place = (0,102);
type = Stem;
},
{
horizontal = 1;
place = (599,102);
type = Stem;
},
{
place = (54,50);
type = Stem;
},
{
place = (222,50);
type = Stem;
},
{
place = (390,50);
type = Stem;
}
);
layerId = "658C8605-6260-49C3-8AFC-BEEEFEF62072";
shapes = (
{
closed = 1;
nodes = (
(54,221,o),
(121,154,o),
(222,145,c),
(222,102,l),
(-62,102,l),
(-62,0,l),
(247,0,ls),
(267,0,o),
(272,36,o),
(272,51,cs),
(272,145,l),
(374,154,o),
(440,222,o),
(440,331,cs),
(440,440,o),
(375,509,o),
(272,518,c),
(272,599,l),
(407,599,l),
(407,701,l),
(81,701,l),
(81,599,l),
(222,599,l),
(222,518,l),
(118,509,o),
(54,440,o),
(54,329,cs)
);
},
{
closed = 1;
nodes = (
(104,337,o),
(106,343,o),
(108,348,cs),
(128,400,o),
(197,418,o),
(247,418,cs),
(297,418,o),
(366,400,o),
(386,348,cs),
(388,343,o),
(390,337,o),
(390,331,cs),
(390,319,o),
(384,308,o),
(378,298,c),
(350,258,o),
(293,245,o),
(247,245,cs),
(201,245,o),
(145,258,o),
(117,298,cs),
(110,308,o),
(104,319,o),
(104,331,cs)
);
}
);
width = 477;
}
);
},
{
glyphname = jonajaNko.init;
layers = (
{
anchors = (
{
name = b.uni07F2;
position = "{240, -320}";
},
{
name = m.uni07EB_1;
position = "{240, 750}";
},
{
name = m.uniA6F0_2;
position = "{0, 0}";
},
{
name = b.u16AF0_3;
position = "{0, 0}";
}
);
hints = (
{
horizontal = 1;
place = (-231,101);
type = Stem;
},
{
horizontal = 1;
place = (0,102);
type = Stem;
},
{
place = (-86,462);
type = Stem;
}
);
layerId = "658C8605-6260-49C3-8AFC-BEEEFEF62072";
shapes = (
{
closed = 1;
nodes = (
(291,291,l),
(212,102,l),
(-86,102,l),
(-86,0,l),
(170,0,l),
(131,-95,ls),
(125,-110,o),
(117,-126,o),
(112,-142,cs),
(109,-151,o),
(108,-160,o),
(108,-169,cs),
(108,-185,o),
(113,-215,o),
(131,-219,c),
(156,-226,o),
(186,-231,o),
(213,-231,cs),
(278,-231,o),
(329,-189,o),
(376,-149,c),
(356,-55,l),
(316,-91,o),
(270,-130,o),
(213,-130,cs),
(203,-130,o),
(193,-129,o),
(183,-127,c),
(236,0,l),
(364,0,l),
(364,102,l),
(278,102,l),
(329,225,l)
);
}
);
width = 422;
}
);
},
{
glyphname = jonachaNko.init;
layers = (
{
anchors = (
{
name = b.uni07F2;
position = "{240, -340}";
},
{
name = m.uni07EB_1;
position = "{240, 750}";
},
{
name = m.uniA6F0_2;
position = "{0, 0}";
},
{
name = b.u16AF0_3;
position = "{0, 0}";
}
);
hints = (
{
horizontal = 1;
place = (-248,101);
type = Stem;
},
{
horizontal = 1;
place = (0,102);
type = Stem;
},
{
place = (302,54);
type = Stem;
}
);
layerId = "658C8605-6260-49C3-8AFC-BEEEFEF62072";
shapes = (
{
closed = 1;
nodes = (
(-71,0,l),
(170,0,l),
(131,-95,ls),
(121,-119,o),
(108,-142,o),
(108,-169,cs),
(108,-218,o),
(130,-222,o),
(170,-235,cs),
(197,-244,o),
(224,-248,o),
(252,-248,cs),
(321,-248,o),
(356,-191,o),
(356,-128,cs),
(356,-68,o),
(324,-25,o),
(278,0,c),
(371,0,l),
(371,102,l),
(278,102,l),
(329,225,l),
(291,291,l),
(212,102,l),
(-71,102,l)
);
},
{
closed = 1;
nodes = (
(204,-76,l),
(238,-83,o),
(283,-104,o),
(302,-128,c),
(293,-141,o),
(264,-147,o),
(249,-147,cs),
(226,-147,o),
(202,-142,o),
(180,-136,c)
);
}
);
width = 441;
}
);
},
{
glyphname = jonaraNko.init;
layers = (
{
anchors = (
{
name = b.uni07F2;
position = "{210, -320}";
},
{
name = m.uni07EB_1;
position = "{210, 750}";
},
{
name = m.uniA6F0_2;
position = "{0, 0}";
},
{
name = b.u16AF0_3;
position = "{0, 0}";
}
);
hints = (
{
horizontal = 1;
place = (0,102);
type = Stem;
},
{
place = (185,50);
type = Stem;
}
);
layerId = "658C8605-6260-49C3-8AFC-BEEEFEF62072";
shapes = (
{
closed = 1;
nodes = (
(185,260,l),
(185,102,l),
(-62,102,l),
(-62,0,l),
(185,0,l),
(185,-217,l),
(235,-217,l),
(235,0,l),
(342,0,l),
(342,102,l),
(235,102,l),
(235,260,l)
);
}
);
width = 385;
}
);
},
{
glyphname = a;
layers = (
{
hints = (
{
horizontal = 1;
place = (-16,102);
type = Stem;
},
{
horizontal = 1;
place = (0,21);
target = up;
type = BottomGhost;
},
{
horizontal = 1;
place = (209,102);
type = Stem;
},
{
horizontal = 1;
place = (449,102);
type = Stem;
},
{
place = (39,51);
type = Stem;
},
{
place = (79,50);
type = Stem;
},
{
place = (384,50);
type = Stem;
}
);
layerId = "658C8605-6260-49C3-8AFC-BEEEFEF62072";
shapes = (
{
closed = 1;
nodes = (
(129,372,l),
(129,379,o),
(131,386,o),
(135,392,c),
(161,435,o),
(224,449,o),
(271,449,cs),
(373,449,o),
(386,384,o),
(385,311,c),
(255,311,ls),
(131,311,o),
(39,282,o),
(39,139,cs),
(39,27,o),
(126,-16,o),
(226,-16,cs),
(283,-16,o),
(343,9,o),
(384,50,c),
(384,0,l),
(434,0,l),
(434,328,ls),
(434,439,o),
(404,551,o),
(271,551,cs),
(160,551,o),
(81,492,o),
(79,376,c)
);
},
{
closed = 1;
nodes = (
(384,171,l),
(380,164,o),
(376,158,o),
(372,152,c),
(340,112,o),
(276,86,o),
(226,86,cs),
(184,86,o),
(129,96,o),
(98,127,cs),
(96,129,o),
(90,137,o),
(90,139,c),
(90,204,o),
(205,209,o),
(271,209,cs),
(283,209,o),
(293,209,o),
(301,209,cs),
(384,209,l)
);
}
);
width = 479;
}
);
unicode = 97;
},
{
glyphname = b;
layers = (
{
hints = (
{
horizontal = 1;
place = (0,102);
type = Stem;
},
{
horizontal = 1;
place = (449,102);
type = Stem;
},
{
place = (58,50);
type = Stem;
},
{
place = (447,50);
type = Stem;
}
);
layerId = "658C8605-6260-49C3-8AFC-BEEEFEF62072";
shapes = (
{
closed = 1;
nodes = (
(58,699,l),
(58,0,l),
(108,0,l),
(108,104,l),
(149,45,o),
(203,0,o),
(278,0,cs),
(437,0,o),
(497,145,o),
(497,283,cs),
(497,404,o),
(439,535,o),
(306,550,c),
(303,551,o),
(299,551,o),
(296,551,cs),
(217,551,o),
(151,509,o),
(108,448,c),
(108,699,l)
);
},
{
closed = 1;
nodes = (
(108,293,l),
(109,313,o),
(117,332,o),
(127,349,cs),
(162,410,o),
(225,449,o),
(296,449,cs),
(384,449,o),
(447,367,o),
(447,283,cs),
(447,179,o),
(387,102,o),
(278,102,cs),
(199,102,o),
(127,174,o),
(108,248,c)
);
}
);
width = 543;
}
);
unicode = 98;
},
{
glyphname = c;
layers = (
{
hints = (
{
horizontal = 1;
place = (0,102);
type = Stem;
},
{
horizontal = 1;
place = (449,102);
type = Stem;
},
{
place = (86,50);
type = Stem;
},
{
place = (437,50);
type = Stem;
}
);
layerId = "658C8605-6260-49C3-8AFC-BEEEFEF62072";
shapes = (
{
closed = 1;
nodes = (
(456,181,l),
(415,132,o),
(360,102,o),
(295,102,cs),
(190,102,o),
(136,182,o),
(136,281,cs),
(136,373,o),
(200,449,o),
(295,449,cs),
(344,449,o),
(403,436,o),
(431,392,cs),
(435,386,o),
(437,379,o),
(437,372,c),
(487,376,l),
(485,492,o),
(406,551,o),
(295,551,cs),
(285,551,o),
(276,550,o),
(266,548,cs),
(137,524,o),
(86,401,o),
(86,281,cs),
(86,150,o),
(142,0,o),
(295,0,cs),
(370,0,o),
(434,37,o),
(482,93,c)
);
}
);
width = 517;
}
);
unicode = 99;
},
{
glyphname = d;
layers = (
{
hints = (
{
horizontal = 1;
place = (0,102);
type = Stem;
},
{
horizontal = 1;
place = (449,102);
type = Stem;
},
{
place = (105,50);
type = Stem;
},
{
place = (494,50);
type = Stem;
}
);
layerId = "658C8605-6260-49C3-8AFC-BEEEFEF62072";
shapes = (
{
closed = 1;
nodes = (
(494,700,l),
(494,448,l),
(451,509,o),
(385,551,o),
(306,551,cs),
(303,551,o),
(299,551,o),
(296,550,c),
(163,535,o),
(105,404,o),
(105,283,cs),
(105,145,o),
(165,0,o),
(324,0,cs),
(399,0,o),
(453,45,o),
(494,104,c),
(494,0,l),
(544,0,l),
(544,700,l)
);
},
{
closed = 1;
nodes = (
(494,248,l),
(475,174,o),
(403,102,o),
(324,102,cs),
(215,102,o),
(155,179,o),
(155,283,cs),
(155,367,o),
(218,449,o),
(306,449,cs),
(377,449,o),
(440,410,o),
(475,349,cs),
(485,332,o),
(493,313,o),
(494,293,c)
);
}
);
width = 615;
}
);
unicode = 100;
},
{
glyphname = e;
layers = (
{
hints = (
{
horizontal = 1;
place = (0,102);
type = Stem;
},
{
horizontal = 1;
place = (230,102);
type = Stem;
},
{
horizontal = 1;
place = (449,102);
type = Stem;
},
{
place = (86,55);
type = Stem;
},
{
place = (436,53);
type = Stem;
}
);
layerId = "658C8605-6260-49C3-8AFC-BEEEFEF62072";
shapes = (
{
closed = 1;
nodes = (
(450,172,l),
(410,126,o),
(356,102,o),
(295,102,cs),
(208,102,o),
(157,156,o),
(141,230,c),
(464,230,ls),
(484,230,o),
(489,267,o),
(489,281,cs),
(489,418,o),
(460,551,o),
(295,551,cs),
(285,551,o),
(276,550,o),
(266,548,cs),
(137,524,o),
(86,401,o),
(86,281,cs),
(86,150,o),
(142,0,o),
(295,0,cs),
(367,0,o),
(429,30,o),
(476,84,c)
);
},
{
closed = 1;
nodes = (
(143,332,l),
(162,399,o),
(218,449,o),
(295,449,cs),
(381,449,o),
(425,420,o),
(436,332,c)
);
}
);
width = 537;
}
);
unicode = 101;
},
{
glyphname = f;
layers = (
{
hints = (
{
horizontal = 1;
place = (0,21);
target = up;
type = BottomGhost;
},
{
horizontal = 1;
place = (449,102);
type = Stem;
},
{
horizontal = 1;
place = (653,102);
type = Stem;
},
{
place = (116,50);
type = Stem;
}
);
layerId = "658C8605-6260-49C3-8AFC-BEEEFEF62072";
shapes = (
{
closed = 1;
nodes = (
(35,449,l),
(116,449,l),
(116,0,l),
(166,0,l),
(166,449,l),
(294,449,l),
(294,551,l),
(166,551,l),
(166,562,ls),
(166,586,o),
(166,622,o),
(184,639,c),
(192,646,o),
(202,650,o),
(212,652,c),
(224,654,o),
(241,655,o),
(258,655,cs),
(288,655,o),
(322,653,o),
(344,653,c),
(344,755,l),
(230,755,ls),
(130,755,o),
(116,644,o),
(116,567,cs),
(116,551,l),
(35,551,l)
);
}
);
width = 344;
}
);
unicode = 102;
},
{
glyphname = g;
layers = (
{
hints = (
{
horizontal = 1;
place = (-270,102);
type = Stem;
},
{
horizontal = 1;
place = (-23,102);
type = Stem;
},
{
horizontal = 1;
place = (449,102);
type = Stem;
},
{
place = (74,50);
type = Stem;
},
{
place = (454,50);
type = Stem;
}
);
layerId = "658C8605-6260-49C3-8AFC-BEEEFEF62072";
shapes = (
{
closed = 1;
nodes = (
(371,-23,o),
(422,14,o),
(454,67,c),
(454,-19,ls),
(454,-120,o),
(420,-169,o),
(318,-169,cs),
(305,-169,o),
(292,-168,o),
(278,-168,cs),
(151,-168,l),
(151,-270,l),
(324,-270,ls),
(470,-270,o),
(504,-144,o),
(504,-22,cs),
(504,523,l),
(454,523,l),
(454,464,l),
(418,515,o),
(358,551,o),
(295,551,cs),
(143,551,o),
(74,417,o),
(74,281,cs),
(74,137,o),
(124,-23,o),
(295,-23,cs)
);
},
{
closed = 1;
nodes = (
(171,79,o),
(124,168,o),
(124,281,cs),
(124,381,o),
(196,449,o),
(295,449,cs),
(390,449,o),
(454,373,o),
(454,281,cs),
(454,177,o),
(414,79,o),
(295,79,cs)
);
}
);
width = 567;
}
);
unicode = 103;
},
{
glyphname = h;
layers = (
{
hints = (
{
horizontal = 1;
place = (0,21);
target = up;
type = BottomGhost;
},
{
horizontal = 1;
place = (449,102);
type = Stem;
},
{
place = (133,50);
type = Stem;
},
{
place = (523,50);
type = Stem;
}
);
layerId = "658C8605-6260-49C3-8AFC-BEEEFEF62072";
shapes = (
{
closed = 1;
nodes = (
(133,702,l),
(133,0,l),
(183,0,l),
(183,229,l),
(188,330,o),
(253,449,o),
(367,449,cs),
(536,449,o),
(523,337,o),
(523,210,cs),
(523,0,l),
(573,0,l),
(573,290,ls),
(573,432,o),
(530,551,o),
(367,551,cs),
(282,551,o),
(221,496,o),
(183,425,c),
(183,702,l)
);
}
);
width = 618;
}
);
unicode = 104;
},
{
glyphname = i;
layers = (
{
hints = (
{
horizontal = 1;
place = (0,21);
target = up;
type = BottomGhost;
},
{
horizontal = 1;
place = (449,100);
type = Stem;
},
{
horizontal = 1;
place = (642,130);
type = Stem;
},
{
place = (39,153);
type = Stem;
},
{
place = (116,50);
type = Stem;
}
);
layerId = "658C8605-6260-49C3-8AFC-BEEEFEF62072";
shapes = (
{
closed = 1;
nodes = (
(39,668,o),
(69,642,o),
(116,642,cs),
(162,642,o),
(192,668,o),
(192,707,cs),
(192,746,o),
(162,772,o),
(116,772,cs),
(69,772,o),
(39,746,o),
(39,707,cs)
);
},
{
closed = 1;
nodes = (
(166,0,l),
(166,500,ls),
(166,514,o),
(161,550,o),
(141,550,cs),
(106,550,o),
(70,550,o),
(35,551,c),
(35,450,l),
(116,449,l),
(116,0,l)
);
}
);
width = 222;
}
);
unicode = 105;
},
{
glyphname = j;
layers = (
{
hints = (
{
horizontal = 1;
place = (-255,102);
type = Stem;
},
{
horizontal = 1;
place = (449,102);
type = Stem;
},
{
horizontal = 1;
place = (642,130);
type = Stem;
},
{
place = (68,153);
type = Stem;
},
{
place = (158,50);
type = Stem;
}
);
layerId = "658C8605-6260-49C3-8AFC-BEEEFEF62072";
shapes = (
{
closed = 1;
nodes = (
(68,668,o),
(98,642,o),
(145,642,cs),
(191,642,o),
(221,668,o),
(221,707,cs),
(221,746,o),
(191,772,o),
(145,772,cs),
(98,772,o),
(68,746,o),
(68,707,cs)
);
},
{
closed = 1;
nodes = (
(77,449,l),
(158,449,l),
(158,-66,ls),
(158,-114,o),
(153,-154,o),
(95,-154,cs),
(87,-154,o),
(79,-153,o),
(71,-153,cs),
(-20,-153,l),
(-20,-255,l),
(94,-255,ls),
(195,-255,o),
(208,-144,o),
(208,-67,cs),
(208,500,ls),
(208,515,o),
(203,551,o),
(183,551,cs),
(77,551,l)
);
}
);
width = 258;
}
);
unicode = 106;
},
{
glyphname = k;
layers = (
{
hints = (
{
horizontal = 1;
place = (0,102);
type = Stem;
},
{
place = (89,50);
type = Stem;
},
{
place = (411,50);
type = Stem;
}
);
layerId = "658C8605-6260-49C3-8AFC-BEEEFEF62072";
shapes = (
{
closed = 1;
nodes = (
(89,700,l),
(89,0,l),
(139,0,l),
(139,205,l),
(172,220,o),
(204,234,o),
(235,251,c),
(335,119,ls),
(383,55,o),
(406,3,o),
(496,0,c),
(496,102,l),
(476,102,o),
(455,104,o),
(437,116,cs),
(412,133,o),
(381,180,o),
(361,206,cs),
(299,287,l),
(389,346,o),
(457,424,o),
(461,549,c),
(411,557,l),
(408,437,o),
(250,358,o),
(139,309,c),
(139,700,l)
);
}
);
width = 510;
}
);
unicode = 107;
},
{
glyphname = l;
layers = (
{
hints = (
{
horizontal = 1;
place = (1,101);
type = Stem;
},
{
place = (116,50);
type = Stem;
}
);
layerId = "658C8605-6260-49C3-8AFC-BEEEFEF62072";
shapes = (
{
closed = 1;
nodes = (
(262,103,l),
(240,102,l),
(195,102,o),
(172,113,o),
(167,161,cs),
(165,184,o),
(166,208,o),
(166,231,cs),
(166,701,l),
(116,701,l),
(116,189,ls),
(116,112,o),
(130,1,o),
(230,1,cs),
(262,1,l)
);
}
);
width = 288;
}
);
unicode = 108;
},
{
glyphname = m;
layers = (
{
hints = (
{
horizontal = 1;
place = (0,21);
target = up;
type = BottomGhost;
},
{
horizontal = 1;
place = (449,102);
type = Stem;
},
{
place = (133,50);
type = Stem;
},
{
place = (510,50);
type = Stem;
},
{
place = (888,50);
type = Stem;
}
);
layerId = "658C8605-6260-49C3-8AFC-BEEEFEF62072";
shapes = (
{
closed = 1;
nodes = (
(133,522,l),
(133,0,l),
(183,0,l),
(183,229,l),
(187,328,o),
(238,449,o),
(354,449,cs),
(523,449,o),
(510,337,o),
(510,210,cs),
(510,0,l),
(560,0,l),
(560,227,l),
(561,227,l),
(565,327,o),
(615,449,o),
(732,449,cs),
(901,449,o),
(888,337,o),
(888,210,cs),
(888,0,l),
(938,0,l),
(938,290,ls),
(938,432,o),
(895,551,o),
(732,551,cs),
(640,551,o),
(581,486,o),
(547,406,c),
(525,491,o),
(469,551,o),
(354,551,cs),
(273,551,o),
(218,501,o),
(183,436,c),
(183,522,l)
);
}
);
width = 993;
}
);
unicode = 109;
},
{
glyphname = n;
layers = (
{
hints = (
{
horizontal = 1;
place = (0,21);
target = up;
type = BottomGhost;
},
{
horizontal = 1;
place = (449,102);
type = Stem;
},
{
place = (133,50);
type = Stem;
},
{
place = (523,50);
type = Stem;
}
);
layerId = "658C8605-6260-49C3-8AFC-BEEEFEF62072";
shapes = (
{
closed = 1;
nodes = (
(133,522,l),
(133,0,l),
(183,0,l),
(183,229,l),
(188,330,o),
(253,449,o),
(367,449,cs),
(536,449,o),
(523,337,o),
(523,210,cs),
(523,0,l),
(573,0,l),
(573,290,ls),
(573,432,o),
(530,551,o),
(367,551,cs),
(282,551,o),
(221,496,o),
(183,425,c),
(183,522,l)
);
}
);
width = 618;
}
);
unicode = 110;
},
{
glyphname = o;
layers = (
{
hints = (
{
horizontal = 1;
place = (-18,102);
type = Stem;
},
{
horizontal = 1;
place = (449,102);
type = Stem;
},
{
place = (39,50);
type = Stem;
},
{
place = (467,50);
type = Stem;
}
);
layerId = "658C8605-6260-49C3-8AFC-BEEEFEF62072";
shapes = (
{
closed = 1;
nodes = (
(449,-18,o),
(517,108,o),
(517,263,cs),
(517,409,o),
(440,551,o),
(278,551,cs),
(116,551,o),
(39,409,o),
(39,263,cs),
(39,108,o),
(108,-18,o),
(278,-18,cs)
);
},
{
closed = 1;
nodes = (
(163,84,o),
(89,144,o),
(89,263,cs),
(89,372,o),
(169,449,o),
(278,449,cs),
(387,449,o),
(467,372,o),
(467,263,cs),
(467,144,o),
(393,84,o),
(278,84,cs)
);
}
);
width = 557;
}
);
unicode = 111;
},
{
glyphname = p;
layers = (
{
hints = (
{
horizontal = 1;
place = (-2,101);
type = Stem;
},
{
horizontal = 1;
place = (447,101);
type = Stem;
},
{
place = (108,50);
type = Stem;
},
{
place = (497,50);
type = Stem;
}
);
layerId = "658C8605-6260-49C3-8AFC-BEEEFEF62072";
shapes = (
{
closed = 1;
nodes = (
(158,-150,l),
(158,101,l),
(206,32,o),
(272,-2,o),
(356,-2,c),
(489,14,o),
(547,145,o),
(547,266,cs),
(547,404,o),
(487,548,o),
(328,548,cs),
(253,548,o),
(199,503,o),
(158,445,c),
(158,549,l),
(108,549,l),
(108,-150,l)
);
},
{
closed = 1;
nodes = (
(158,301,l),
(176,374,o),
(250,447,o),
(328,447,cs),
(438,447,o),
(497,370,o),
(497,265,cs),
(497,182,o),
(434,99,o),
(346,99,cs),
(275,99,o),
(212,139,o),
(177,200,cs),
(167,217,o),
(159,236,o),
(158,256,c)
);
}
);
width = 615;
}
);
unicode = 112;
},
{
glyphname = q;
layers = (
{
hints = (
{
horizontal = 1;
place = (-2,101);
type = Stem;
},
{
horizontal = 1;
place = (447,101);
type = Stem;
},
{
place = (108,50);
type = Stem;
},
{
place = (497,50);
type = Stem;
}
);
layerId = "658C8605-6260-49C3-8AFC-BEEEFEF62072";
shapes = (
{
closed = 1;
nodes = (
(547,-150,l),
(547,549,l),
(497,549,l),
(497,445,l),
(456,503,o),
(402,548,o),
(327,548,cs),
(168,548,o),
(108,404,o),
(108,266,cs),
(108,145,o),
(166,14,o),
(299,-2,c),
(383,-2,o),
(449,32,o),
(497,101,c),
(497,-150,l)
);
},
{
closed = 1;
nodes = (
(497,256,l),
(496,236,o),
(488,217,o),
(478,200,cs),
(443,139,o),
(380,99,o),
(309,99,cs),
(221,99,o),
(158,182,o),
(158,265,cs),
(158,370,o),
(218,447,o),
(327,447,cs),
(405,447,o),
(479,375,o),
(497,301,c)
);
}
);
width = 615;
}
);
unicode = 113;
},
{
glyphname = r;
layers = (
{
hints = (
{
horizontal = 1;
place = (0,21);
target = up;
type = BottomGhost;
},
{
place = (57,50);
type = Stem;
}
);
layerId = "658C8605-6260-49C3-8AFC-BEEEFEF62072";
shapes = (
{
closed = 1;
nodes = (
(57,522,l),
(57,0,l),
(107,0,l),
(107,229,l),
(112,333,o),
(175,446,o),
(291,449,c),
(291,551,l),
(205,547,o),
(145,495,o),
(107,426,c),
(107,522,l)
);
}
);
width = 324;
}
);
unicode = 114;
},
{
glyphname = s;
layers = (
{
hints = (
{
horizontal = 1;
place = (0,102);
type = Stem;
},
{
horizontal = 1;
place = (449,102);
type = Stem;
},
{
place = (60,50);
type = Stem;
},
{
place = (62,55);
type = Stem;
},
{
place = (413,50);
type = Stem;
},
{
place = (415,51);
type = Stem;
}
);
layerId = "658C8605-6260-49C3-8AFC-BEEEFEF62072";
shapes = (
{
closed = 1;
nodes = (
(463,376,l),
(461,492,o),
(382,551,o),
(271,551,cs),
(176,551,o),
(62,513,o),
(62,399,cs),
(62,311,o),
(120,277,o),
(196,254,cs),
(249,238,o),
(384,211,o),
(415,167,c),
(396,117,o),
(298,102,o),
(252,102,cs),
(203,102,o),
(144,115,o),
(116,159,cs),
(112,165,o),
(110,172,o),
(110,179,c),
(60,175,l),
(62,59,o),
(141,0,o),
(252,0,cs),
(362,0,o),
(466,45,o),
(466,170,cs),
(466,258,o),
(409,294,o),
(332,317,c),
(276,335,o),
(156,358,o),
(117,399,c),
(158,437,o),
(217,449,o),
(271,449,cs),
(320,449,o),
(379,436,o),
(407,392,cs),
(411,386,o),
(413,379,o),
(413,372,c)
);
}
);
width = 479;
}
);
unicode = 115;
},
{
glyphname = t;
layers = (
{
hints = (
{
horizontal = 1;
place = (0,101);
type = Stem;
},
{
horizontal = 1;
place = (449,102);
type = Stem;
},
{
place = (116,50);
type = Stem;
}
);
layerId = "658C8605-6260-49C3-8AFC-BEEEFEF62072";
shapes = (
{
closed = 1;
nodes = (
(35,449,l),
(116,449,l),
(116,188,ls),
(116,110,o),
(130,0,o),
(230,0,cs),
(334,0,l),
(334,101,l),
(319,101,o),
(294,99,o),
(268,99,cs),
(188,99,o),
(166,108,o),
(166,191,cs),
(166,449,l),
(323,449,l),
(323,551,l),
(166,551,l),
(166,699,l),
(116,699,l),
(116,551,l),
(35,551,l)
);
}
);
width = 361;
}
);
unicode = 116;
},
{
glyphname = u;
layers = (
{
hints = (
{
horizontal = 1;
place = (-4,102);
type = Stem;
},
{
horizontal = 1;
place = (-1,21);
target = up;
type = BottomGhost;
},
{
place = (59,50);
type = Stem;
},
{
place = (449,50);
type = Stem;
}
);
layerId = "658C8605-6260-49C3-8AFC-BEEEFEF62072";
shapes = (
{
closed = 1;
nodes = (
(499,-1,l),
(499,523,l),
(449,523,l),
(449,318,l),
(444,217,o),
(379,98,o),
(265,98,cs),
(144,98,o),
(108,157,o),
(108,269,cs),
(108,289,o),
(109,308,o),
(109,327,cs),
(109,523,l),
(59,523,l),
(59,257,ls),
(59,115,o),
(102,-4,o),
(265,-4,cs),
(350,-4,o),
(411,51,o),
(449,122,c),
(449,-1,l)
);
}
);
width = 544;
}
);
unicode = 117;
},
{
glyphname = v;
layers = (
{
hints = (
{
horizontal = 1;
place = (1,21);
target = up;
type = BottomGhost;
},
{
place = (44,428);
type = Stem;
}
);
layerId = "658C8605-6260-49C3-8AFC-BEEEFEF62072";
shapes = (
{
closed = 1;
nodes = (
(44,468,l),
(233,26,l),
(238,17,o),
(243,1,o),
(256,1,cs),
(269,1,o),
(275,17,o),
(279,26,cs),
(472,466,l),
(434,534,l),
(256,128,l),
(82,533,l)
);
}
);
width = 508;
}
);
unicode = 118;
},
{
glyphname = w;
layers = (
{
hints = (
{
horizontal = 1;
place = (1,21);
target = up;
type = BottomGhost;
},
{
place = (42,651);
type = Stem;
}
);
layerId = "658C8605-6260-49C3-8AFC-BEEEFEF62072";
shapes = (
{
closed = 1;
nodes = (
(42,473,l),
(74,372,o),
(105,270,o),
(137,169,cs),
(152,121,o),
(166,71,o),
(183,24,cs),
(186,15,o),
(192,1,o),
(204,1,cs),
(216,1,o),
(222,16,o),
(226,25,c),
(371,385,l),
(507,23,ls),
(510,15,o),
(516,1,o),
(528,1,cs),
(540,1,o),
(546,15,o),
(549,24,c),
(567,71,o),
(581,121,o),
(596,169,cs),
(693,473,l),
(651,527,l),
(526,140,l),
(393,495,l),
(390,504,o),
(384,518,o),
(372,518,cs),
(360,518,o),
(354,502,o),
(350,493,c),
(207,138,l),
(84,527,l)
);
}
);
width = 739;
}
);
unicode = 119;
},
{
glyphname = x;
layers = (
{
hints = (
{
horizontal = 1;
place = (-41,618);
type = Stem;
},
{
place = (55,432);
type = Stem;
}
);
layerId = "658C8605-6260-49C3-8AFC-BEEEFEF62072";
shapes = (
{
closed = 1;
nodes = (
(84,493,l),
(233,279,l),
(55,54,l),
(82,-32,l),
(277,216,l),
(458,-41,l),
(487,41,l),
(311,293,l),
(470,491,l),
(443,577,l),
(266,356,l),
(113,575,l)
);
}
);
width = 529;
}
);
unicode = 120;
},
{
glyphname = y;
layers = (
{
hints = (
{
horizontal = 1;
place = (-270,102);
type = Stem;
},
{
horizontal = 1;
place = (-23,102);
type = Stem;
},
{
place = (74,50);
type = Stem;
},
{
place = (454,50);
type = Stem;
}
);
layerId = "658C8605-6260-49C3-8AFC-BEEEFEF62072";
shapes = (
{
closed = 1;
nodes = (
(454,523,l),
(454,283,l),
(452,179,o),
(417,79,o),
(295,79,cs),
(200,79,o),
(143,133,o),
(128,225,cs),
(122,266,o),
(124,308,o),
(124,350,cs),
(124,523,l),
(74,523,l),
(74,281,ls),
(74,137,o),
(124,-23,o),
(295,-23,cs),
(371,-23,o),
(422,14,o),
(454,67,c),
(454,-19,ls),
(454,-122,o),
(418,-169,o),
(316,-169,cs),
(299,-169,o),
(282,-168,o),
(265,-168,cs),
(106,-168,l),
(106,-270,l),
(324,-270,ls),
(470,-270,o),
(504,-144,o),
(504,-22,cs),
(504,523,l)
);
}
);
width = 560;
}
);
unicode = 121;
},
{
glyphname = z;
layers = (
{
hints = (
{
horizontal = 1;
place = (1,101);
type = Stem;
},
{
horizontal = 1;
place = (450,101);
type = Stem;
},
{
place = (54,383);
type = Stem;
}
);
layerId = "658C8605-6260-49C3-8AFC-BEEEFEF62072";
shapes = (
{
closed = 1;
nodes = (
(79,450,l),
(329,450,l),
(89,126,l),
(70,99,o),
(54,87,o),
(54,51,cs),
(54,36,o),
(60,1,o),
(79,1,cs),
(424,1,l),
(424,102,l),
(162,102,l),
(402,425,ls),
(422,452,o),
(437,464,o),
(437,500,cs),
(437,515,o),
(431,551,o),
(412,551,cs),
(79,551,l)
);
}
);
width = 470;
}
);
unicode = 122;
},
{
glyphname = uniA6A0;
layers = (
{
anchors = (
{
name = b.uni07F2;
position = "{0, 0}";
},
{
name = m.uni07EB_1;
position = "{0, 0}";
},
{
name = m.uniA6F0_2;
position = "{372, 830}";
},
{
name = b.u16AF0_3;
position = "{0, 0}";
}
);
hints = (
{
horizontal = 1;
place = (0,102);
type = Stem;
},
{
horizontal = 1;
place = (751,-20);
target = down;
type = TopGhost;
},
{
place = (76,51);
type = Stem;
},
{
place = (432,51);
type = Stem;
}
);
layerId = "658C8605-6260-49C3-8AFC-BEEEFEF62072";
shapes = (
{
closed = 1;
nodes = (
(667,531,l),
(494,676,ls),
(466,700,o),
(439,726,o),
(409,748,c),
(406,749,o),
(403,751,o),
(400,751,cs),
(380,751,o),
(375,714,o),
(375,700,cs),
(375,678,o),
(383,657,o),
(389,637,c),
(414,543,o),
(432,441,o),
(432,345,cs),
(432,246,o),
(417,102,o),
(288,102,cs),
(195,102,o),
(127,147,o),
(127,246,cs),
(127,270,o),
(132,294,o),
(137,318,c),
(91,360,l),
(83,323,o),
(76,285,o),
(76,247,cs),
(76,110,o),
(138,0,o),
(288,0,cs),
(457,0,o),
(483,218,o),
(483,345,cs),
(483,431,o),
(471,517,o),
(453,600,c),
(647,437,l)
);
}
);
width = 693;
}
);
unicode = 42656;
},
{
glyphname = uniA6A1;
layers = (
{
anchors = (
{
name = b.uni07F2;
position = "{0, 0}";
},
{
name = m.uni07EB_1;
position = "{0, 0}";
},
{
name = m.uniA6F0_2;
position = "{450, 830}";
},
{
name = b.u16AF0_3;
position = "{0, 0}";
}
);
hints = (
{
horizontal = 1;
place = (-1,21);
target = up;
type = BottomGhost;
},
{
horizontal = 1;
place = (0,21);
target = up;
type = BottomGhost;
},
{
place = (160,50);
type = Stem;
},
{
place = (682,50);
type = Stem;
}
);
layerId = "658C8605-6260-49C3-8AFC-BEEEFEF62072";
shapes = (
{
closed = 1;
nodes = (
(160,700,l),
(160,50,ls),
(160,35,o),
(166,-1,o),
(185,-1,cs),
(197,-1,o),
(236,50,o),
(246,62,cs),
(682,559,l),
(682,0,l),
(732,0,l),
(732,646,ls),
(732,661,o),
(727,697,o),
(707,697,cs),
(695,697,o),
(656,646,o),
(646,635,cs),
(210,137,l),
(210,700,l)
);
}
);
width = 806;
}
);
unicode = 42657;
},
{
glyphname = uniA6A2;
layers = (
{
anchors = (
{
name = b.uni07F2;
position = "{0, 0}";
},
{
name = m.uni07EB_1;
position = "{0, 0}";
},
{
name = m.uniA6F0_2;
position = "{322, 830}";
},
{
name = b.u16AF0_3;
position = "{0, 0}";
}
);
hints = (
{
horizontal = 1;
place = (-20,102);
type = Stem;
},
{
horizontal = 1;
place = (361,102);
type = Stem;
},
{
horizontal = 1;
place = (497,102);
type = Stem;
},
{
horizontal = 1;
place = (639,102);
type = Stem;
},
{
place = (128,50);
type = Stem;
},
{
place = (166,323);
type = Stem;
},
{
place = (464,50);
type = Stem;
}
);
layerId = "658C8605-6260-49C3-8AFC-BEEEFEF62072";
shapes = (
{
closed = 1;
nodes = (
(166,639,l),
(489,639,l),
(489,741,l),
(166,741,l)
);
},
{
closed = 1;
nodes = (
(166,497,l),
(489,497,l),
(489,599,l),
(166,599,l)
);
},
{
closed = 1;
nodes = (
(128,101,o),
(187,-20,o),
(321,-20,cs),
(456,-20,o),
(514,103,o),
(514,222,cs),
(514,341,o),
(456,463,o),
(321,463,cs),
(185,463,o),
(128,340,o),
(128,220,cs)
);
},
{
closed = 1;
nodes = (
(178,305,o),
(239,361,o),
(321,361,cs),
(403,361,o),
(464,305,o),
(464,222,cs),
(464,138,o),
(404,82,o),
(321,82,cs),
(238,82,o),
(178,138,o),
(178,222,cs)
);
}
);
width = 573;
}
);
unicode = 42658;
},
{
glyphname = uniA6A3;
layers = (
{
anchors = (
{
name = b.uni07F2;
position = "{0, 0}";
},
{
name = m.uni07EB_1;
position = "{0, 0}";
},
{
name = m.uniA6F0_2;
position = "{360, 830}";
},
{
name = b.u16AF0_3;
position = "{0, 0}";
}
);
hints = (
{
horizontal = 1;
place = (283,118);
type = Stem;
},
{
horizontal = 1;
place = (650,101);
type = Stem;
},
{
place = (120,51);
type = Stem;
},
{
place = (534,133);
type = Stem;
}
);
layerId = "658C8605-6260-49C3-8AFC-BEEEFEF62072";
shapes = (
{
closed = 1;
nodes = (
(564,737,l),
(488,602,l),
(419,664,o),
(312,751,o),
(222,751,cs),
(148,751,o),
(120,663,o),
(120,603,cs),
(120,483,o),
(231,379,o),
(319,300,c),
(171,37,l),
(205,-37,l),
(598,663,l)
);
},
{
closed = 1;
nodes = (
(360,375,l),
(314,415,o),
(171,543,o),
(171,606,cs),
(171,632,o),
(201,650,o),
(225,650,cs),
(293,650,o),
(384,582,o),
(447,528,c)
);
},
{
closed = 1;
nodes = (
(667,378,o),
(641,401,o),
(600,401,cs),
(560,401,o),
(534,378,o),
(534,342,cs),
(534,306,o),
(560,283,o),
(600,283,cs),
(641,283,o),
(667,306,o),
(667,342,cs)
);
}
);
width = 689;
}
);
unicode = 42659;
},
{
glyphname = uniA6A4;
layers = (
{
anchors = (
{
name = b.uni07F2;
position = "{0, 0}";
},
{
name = m.uni07EB_1;
position = "{0, 0}";
},
{
name = m.uniA6F0_2;
position = "{311, 830}";
},
{
name = b.u16AF0_3;
position = "{0, 0}";
}
);
hints = (
{
horizontal = 1;
place = (0,102);
type = Stem;
},
{
horizontal = 1;
place = (322,102);
type = Stem;
},
{
horizontal = 1;
place = (626,118);
type = Stem;
},
{
place = (246,133);
type = Stem;
},
{
place = (265,60);
type = Stem;
},
{
place = (423,50);
type = Stem;
},
{
place = (660,51);
type = Stem;
}
);
layerId = "658C8605-6260-49C3-8AFC-BEEEFEF62072";
shapes = (
{
closed = 1;
nodes = (
(379,721,o),
(353,744,o),
(312,744,cs),
(272,744,o),
(246,721,o),
(246,685,cs),
(246,649,o),
(272,626,o),
(312,626,cs),
(353,626,o),
(379,649,o),
(379,685,cs)
);
},
{
closed = 1;
nodes = (
(29,0,l),
(103,0,ls),
(211,0,o),
(264,118,o),
(288,207,c),
(318,95,o),
(383,0,o),
(516,0,cs),
(648,0,o),
(711,106,o),
(711,227,cs),
(711,308,o),
(669,424,o),
(572,424,cs),
(459,424,o),
(423,331,o),
(423,233,cs),
(423,220,o),
(424,207,o),
(426,194,c),
(474,220,l),
(474,226,o),
(473,231,o),
(473,237,cs),
(473,297,o),
(517,322,o),
(572,322,cs),
(624,322,o),
(660,275,o),
(660,225,cs),
(660,145,o),
(590,102,o),
(516,102,cs),
(361,102,o),
(322,241,o),
(317,368,c),
(324,439,o),
(325,507,o),
(325,560,c),
(300,560,l),
(275,571,l),
(269,506,o),
(265,442,o),
(265,377,c),
(253,265,o),
(224,147,o),
(153,114,cs),
(130,103,o),
(104,101,o),
(78,101,cs),
(62,101,o),
(45,102,o),
(29,102,c)
);
}
);
width = 742;
}
);
unicode = 42660;
},
{
glyphname = uniA6A5;
layers = (
{
anchors = (
{
name = b.uni07F2;
position = "{0, 0}";
},
{
name = m.uni07EB_1;
position = "{0, 0}";
},
{
name = m.uniA6F0_2;
position = "{365, 830}";
},
{
name = b.u16AF0_3;
position = "{0, 0}";
}
);
hints = (
{
horizontal = 1;
place = (6,118);
type = Stem;
},
{
horizontal = 1;
place = (181,102);
type = Stem;
},
{
horizontal = 1;
place = (365,118);
type = Stem;
},
{
place = (150,50);
type = Stem;
},
{
place = (318,133);
type = Stem;
}
);
layerId = "658C8605-6260-49C3-8AFC-BEEEFEF62072";
shapes = (
{
closed = 1;
nodes = (
(150,700,l),
(150,232,ls),
(150,217,o),
(156,181,o),
(175,181,cs),
(615,181,l),
(615,283,l),
(200,283,l),
(200,700,l)
);
},
{
closed = 1;
nodes = (
(451,460,o),
(425,483,o),
(384,483,cs),
(344,483,o),
(318,460,o),
(318,424,cs),
(318,388,o),
(344,365,o),
(384,365,cs),
(425,365,o),
(451,388,o),
(451,424,cs)
);
},
{
closed = 1;
nodes = (
(451,101,o),
(425,124,o),
(384,124,cs),
(344,124,o),
(318,101,o),
(318,65,cs),
(318,29,o),
(344,6,o),
(384,6,cs),
(425,6,o),
(451,29,o),
(451,65,cs)
);
}
);
width = 648;
}
);
unicode = 42661;
},
{
glyphname = uniA6A6;
layers = (
{
anchors = (
{
name = b.uni07F2;
position = "{0, 0}";
},
{
name = m.uni07EB_1;
position = "{0, 0}";
},
{
name = m.uniA6F0_2;
position = "{307, 830}";
},
{
name = b.u16AF0_3;
position = "{0, 0}";
}
);
hints = (
{
horizontal = 1;
place = (6,118);
type = Stem;
},
{
horizontal = 1;
place = (167,102);
type = Stem;
},
{
horizontal = 1;
place = (466,101);
type = Stem;
},
{
horizontal = 1;
place = (639,118);
type = Stem;
},
{
place = (239,133);
type = Stem;
},
{
place = (509,50);
type = Stem;
}
);
layerId = "658C8605-6260-49C3-8AFC-BEEEFEF62072";
shapes = (
{
closed = 1;
nodes = (
(372,734,o),
(346,757,o),
(305,757,cs),
(265,757,o),
(239,734,o),
(239,698,cs),
(239,662,o),
(265,639,o),
(305,639,cs),
(346,639,o),
(372,662,o),
(372,698,cs)
);
},
{
closed = 1;
nodes = (
(119,465,l),
(197,465,o),
(275,466,o),
(353,466,cs),
(372,466,o),
(392,466,o),
(411,463,cs),
(458,455,o),
(509,420,o),
(509,367,cs),
(509,364,o),
(509,362,o),
(508,359,cs),
(496,284,o),
(422,267,o),
(358,267,cs),
(332,267,o),
(306,269,o),
(281,269,cs),
(119,269,l),
(119,167,l),
(384,167,ls),
(499,167,o),
(559,261,o),
(559,367,cs),
(559,474,o),
(499,567,o),
(384,567,cs),
(119,567,l)
);
},
{
closed = 1;
nodes = (
(372,101,o),
(346,124,o),
(305,124,cs),
(265,124,o),
(239,101,o),
(239,65,cs),
(239,29,o),
(265,6,o),
(305,6,cs),
(346,6,o),
(372,29,o),
(372,65,cs)
);
}
);
width = 607;
}
);
unicode = 42662;
},
{
glyphname = uniA6A7;
layers = (
{
anchors = (
{
name = b.uni07F2;
position = "{0, 0}";
},
{
name = m.uni07EB_1;
position = "{0, 0}";
},
{
name = m.uniA6F0_2;
position = "{311, 830}";
},
{
name = b.u16AF0_3;
position = "{0, 0}";
}
);
hints = (
{
horizontal = 1;
place = (649,102);
type = Stem;
},
{
place = (54,536);
type = Stem;
}
);
layerId = "658C8605-6260-49C3-8AFC-BEEEFEF62072";
shapes = (
{
closed = 1;
nodes = (
(97,649,l),
(430,649,l),
(359,555,o),
(289,460,o),
(228,359,cs),
(164,254,o),
(108,146,o),
(54,36,c),
(90,-36,l),
(154,94,o),
(221,222,o),
(300,343,c),
(560,-40,l),
(590,40,l),
(342,406,l),
(379,461,o),
(418,514,o),
(458,566,c),
(503,622,l),
(523,649,o),
(541,664,o),
(541,700,cs),
(541,714,o),
(536,751,o),
(516,751,cs),
(97,751,l)
);
}
);
width = 636;
}
);
unicode = 42663;
},
{
glyphname = uniA6A8;
layers = (
{
anchors = (
{
name = b.uni07F2;
position = "{0, 0}";
},
{
name = m.uni07EB_1;
position = "{0, 0}";
},
{
name = m.uniA6F0_2;
position = "{310, 830}";
},
{
name = b.u16AF0_3;
position = "{0, 0}";
}
);
hints = (
{
horizontal = 1;
place = (0,21);
target = up;
type = BottomGhost;
},
{
horizontal = 1;
place = (649,102);
type = Stem;
},
{
place = (413,49);
type = Stem;
}
);
layerId = "658C8605-6260-49C3-8AFC-BEEEFEF62072";
shapes = (
{
closed = 1;
nodes = (
(69,649,l),
(473,649,l),
(460,562,o),
(445,475,o),
(433,388,c),
(422,318,o),
(413,247,o),
(413,176,cs),
(413,0,l),
(463,0,l),
(463,42,o),
(462,83,o),
(462,125,cs),
(462,284,o),
(493,441,o),
(518,597,cs),
(523,631,o),
(531,666,o),
(531,700,cs),
(531,714,o),
(526,751,o),
(506,751,cs),
(69,751,l)
);
}
);
width = 578;
}
);
unicode = 42664;
},
{
glyphname = uniA6A9;
layers = (
{
anchors = (
{
name = b.uni07F2;
position = "{0, 0}";
},
{
name = m.uni07EB_1;
position = "{0, 0}";
},
{
name = m.uniA6F0_2;
position = "{412, 830}";
},
{
name = b.u16AF0_3;
position = "{0, 0}";
}
);
hints = (
{
horizontal = 1;
place = (-14,118);
type = Stem;
},
{
horizontal = 1;
place = (156,102);
type = Stem;
},
{
horizontal = 1;
place = (649,102);
type = Stem;
},
{
place = (102,51);
type = Stem;
},
{
place = (345,133);
type = Stem;
},
{
place = (357,51);
type = Stem;
},
{
place = (671,51);
type = Stem;
}
);
layerId = "658C8605-6260-49C3-8AFC-BEEEFEF62072";
shapes = (
{
closed = 1;
nodes = (
(180,737,l),
(135,658,o),
(102,569,o),
(102,477,cs),
(102,288,o),
(211,156,o),
(406,156,cs),
(603,156,o),
(722,311,o),
(722,500,cs),
(722,612,o),
(669,751,o),
(537,751,cs),
(407,751,o),
(357,662,o),
(357,543,cs),
(357,490,o),
(368,436,o),
(385,386,c),
(427,440,l),
(416,473,o),
(408,508,o),
(408,543,cs),
(408,622,o),
(466,649,o),
(537,649,cs),
(622,649,o),
(671,579,o),
(671,499,cs),
(671,461,o),
(661,424,o),
(643,390,cs),
(595,300,o),
(506,258,o),
(406,258,cs),
(273,258,o),
(153,330,o),
(153,475,cs),
(153,542,o),
(182,606,o),
(214,663,c)
);
},
{
closed = 1;
nodes = (
(478,81,o),
(452,104,o),
(411,104,cs),
(371,104,o),
(345,81,o),
(345,45,cs),
(345,9,o),
(371,-14,o),
(411,-14,cs),
(452,-14,o),
(478,9,o),
(478,45,cs)
);
}
);
width = 761;
}
);
unicode = 42665;
},
{
glyphname = uniA6AA;
layers = (
{
anchors = (
{
name = b.uni07F2;
position = "{0, 0}";
},
{
name = m.uni07EB_1;
position = "{0, 0}";
},
{
name = m.uniA6F0_2;
position = "{395, 830}";
},
{
name = b.u16AF0_3;
position = "{0, 0}";
}
);
hints = (
{
horizontal = 1;
place = (0,21);
target = up;
type = BottomGhost;
},
{
horizontal = 1;
place = (32,118);
type = Stem;
},
{
horizontal = 1;
place = (206,118);
type = Stem;
},
{
horizontal = 1;
place = (366,101);
type = Stem;
},
{
horizontal = 1;
place = (656,101);
type = Stem;
},
{
place = (297,50);
type = Stem;
},
{
place = (422,133);
type = Stem;
},
{
place = (609,50);
type = Stem;
}
);
layerId = "658C8605-6260-49C3-8AFC-BEEEFEF62072";
shapes = (
{
closed = 1;
nodes = (
(64,474,l),
(132,429,o),
(214,397,o),
(297,380,c),
(297,0,l),
(347,0,l),
(347,372,l),
(377,368,o),
(407,366,o),
(436,366,cs),
(562,366,o),
(659,420,o),
(659,557,cs),
(659,630,o),
(623,708,o),
(554,739,cs),
(533,749,o),
(509,757,o),
(485,757,cs),
(348,757,o),
(306,601,o),
(298,482,c),
(220,498,o),
(144,528,o),
(80,570,c)
);
},
{
closed = 1;
nodes = (
(353,557,o),
(386,656,o),
(485,656,cs),
(536,656,o),
(585,621,o),
(605,575,cs),
(607,570,o),
(609,563,o),
(609,557,cs),
(609,487,o),
(489,467,o),
(436,467,cs),
(408,467,o),
(378,469,o),
(349,473,c)
);
},
{
closed = 1;
nodes = (
(555,301,o),
(529,324,o),
(488,324,cs),
(448,324,o),
(422,301,o),
(422,265,cs),
(422,229,o),
(448,206,o),
(488,206,cs),
(529,206,o),
(555,229,o),
(555,265,cs)
);
},
{
closed = 1;
nodes = (
(555,127,o),
(529,150,o),
(488,150,cs),
(448,150,o),
(422,127,o),
(422,91,cs),
(422,55,o),
(448,32,o),
(488,32,cs),
(529,32,o),
(555,55,o),
(555,91,cs)
);
}
);
width = 692;
}
);
unicode = 42666;
},
{
glyphname = uniA6AB;
layers = (
{
anchors = (
{
name = b.uni07F2;
position = "{0, 0}";
},
{
name = m.uni07EB_1;
position = "{0, 0}";
},
{
name = m.uniA6F0_2;
position = "{339, 830}";
},
{
name = b.u16AF0_3;
position = "{0, 0}";
}
);
hints = (
{
horizontal = 1;
place = (333,118);
type = Stem;
},
{
horizontal = 1;
place = (490,118);
type = Stem;
},
{
horizontal = 1;
place = (751,-20);
target = down;
type = TopGhost;
},
{
place = (171,133);
type = Stem;
},
{
place = (517,133);
type = Stem;
}
);
layerId = "658C8605-6260-49C3-8AFC-BEEEFEF62072";
shapes = (
{
closed = 1;
nodes = (
(82,451,l),
(407,627,l),
(314,15,l),
(362,-15,l),
(459,622,ls),
(463,648,o),
(469,674,o),
(469,700,cs),
(469,714,o),
(464,751,o),
(444,751,cs),
(436,751,o),
(109,571,o),
(68,549,c)
);
},
{
closed = 1;
nodes = (
(650,585,o),
(624,608,o),
(583,608,cs),
(543,608,o),
(517,585,o),
(517,549,cs),
(517,513,o),
(543,490,o),
(583,490,cs),
(624,490,o),
(650,513,o),
(650,549,cs)
);
},
{
closed = 1;
nodes = (
(304,428,o),
(278,451,o),
(237,451,cs),
(197,451,o),
(171,428,o),
(171,392,cs),
(171,356,o),
(197,333,o),
(237,333,cs),
(278,333,o),
(304,356,o),
(304,392,cs)
);
}
);
width = 706;
}
);
unicode = 42667;
},
{
glyphname = uniA6AC;
layers = (
{
anchors = (
{
name = b.uni07F2;
position = "{0, 0}";
},
{
name = m.uni07EB_1;
position = "{0, 0}";
},
{
name = m.uniA6F0_2;
position = "{350, 830}";
},
{
name = b.u16AF0_3;
position = "{0, 0}";
}
);
hints = (
{
horizontal = 1;
place = (281,102);
type = Stem;
},
{
horizontal = 1;
place = (612,102);
type = Stem;
},
{
horizontal = 1;
place = (628,118);
type = Stem;
},
{
place = (75,133);
type = Stem;
},
{
place = (173,50);
type = Stem;
},
{
place = (338,50);
type = Stem;
},
{
place = (591,51);
type = Stem;
}
);
layerId = "658C8605-6260-49C3-8AFC-BEEEFEF62072";
shapes = (
{
closed = 1;
nodes = (
(208,723,o),
(182,746,o),
(141,746,cs),
(101,746,o),
(75,723,o),
(75,687,cs),
(75,651,o),
(101,628,o),
(141,628,cs),
(182,628,o),
(208,651,o),
(208,687,cs)
);
},
{
closed = 1;
nodes = (
(290,17,l),
(247,260,ls),
(237,317,o),
(223,374,o),
(223,432,cs),
(223,556,o),
(305,612,o),
(422,612,cs),
(505,612,o),
(591,561,o),
(591,470,cs),
(591,422,o),
(555,383,o),
(506,383,cs),
(460,383,o),
(388,398,o),
(388,456,cs),
(388,463,o),
(390,470,o),
(391,477,c),
(347,523,l),
(341,502,o),
(338,479,o),
(338,456,cs),
(338,347,o),
(394,281,o),
(506,281,cs),
(601,281,o),
(642,386,o),
(642,467,cs),
(642,601,o),
(566,714,o),
(422,714,cs),
(248,714,o),
(173,596,o),
(173,433,cs),
(173,364,o),
(187,295,o),
(199,227,cs),
(242,-17,l)
);
}
);
width = 694;
}
);
unicode = 42668;
},
{
glyphname = uniA6AD;
layers = (
{
anchors = (
{
name = b.uni07F2;
position = "{0, 0}";
},
{
name = m.uni07EB_1;
position = "{0, 0}";
},
{
name = m.uniA6F0_2;
position = "{341, 830}";
},
{
name = b.u16AF0_3;
position = "{0, 0}";
}
);
hints = (
{
horizontal = 1;
place = (0,102);
type = Stem;
},
{
horizontal = 1;
place = (431,102);
type = Stem;
},
{
place = (478,50);
type = Stem;
}
);
layerId = "658C8605-6260-49C3-8AFC-BEEEFEF62072";
shapes = (
{
closed = 1;
nodes = (
(478,738,l),
(478,533,l),
(128,533,ls),
(109,533,o),
(103,497,o),
(103,482,cs),
(103,437,o),
(134,419,o),
(162,389,cs),
(264,279,l),
(159,149,ls),
(134,118,o),
(103,94,o),
(103,51,cs),
(103,36,o),
(109,0,o),
(128,0,cs),
(503,0,ls),
(523,0,o),
(528,36,o),
(528,51,cs),
(528,738,l)
);
},
{
closed = 1;
nodes = (
(217,102,l),
(297,200,ls),
(320,229,o),
(340,242,o),
(340,282,cs),
(340,324,o),
(314,341,o),
(288,368,cs),
(229,431,l),
(478,431,l),
(478,102,l)
);
}
);
width = 601;
}
);
unicode = 42669;
},
{
glyphname = uniA6AE;
layers = (
{
anchors = (
{
name = b.uni07F2;
position = "{0, 0}";
},
{
name = m.uni07EB_1;
position = "{0, 0}";
},
{
name = m.uniA6F0_2;
position = "{319, 830}";
},
{
name = b.u16AF0_3;
position = "{0, 0}";
}
);
hints = (
{
horizontal = 1;
place = (6,118);
type = Stem;
},
{
horizontal = 1;
place = (201,102);
type = Stem;
},
{
horizontal = 1;
place = (449,102);
type = Stem;
},
{
horizontal = 1;
place = (630,118);
type = Stem;
},
{
place = (141,50);
type = Stem;
},
{
place = (297,133);
type = Stem;
},
{
place = (481,50);
type = Stem;
}
);
layerId = "658C8605-6260-49C3-8AFC-BEEEFEF62072";
shapes = (
{
closed = 1;
nodes = (
(430,725,o),
(404,748,o),
(363,748,cs),
(323,748,o),
(297,725,o),
(297,689,cs),
(297,653,o),
(323,630,o),
(363,630,cs),
(404,630,o),
(430,653,o),
(430,689,cs)
);
},
{
closed = 1;
nodes = (
(141,738,l),
(141,500,ls),
(141,485,o),
(147,449,o),
(166,449,cs),
(269,449,ls),
(333,449,o),
(412,449,o),
(463,402,cs),
(468,397,o),
(481,384,o),
(481,376,cs),
(481,368,o),
(468,355,o),
(463,350,cs),
(414,305,o),
(339,303,o),
(274,303,cs),
(269,303,o),
(264,303,o),
(259,303,cs),
(166,303,ls),
(147,303,o),
(141,267,o),
(141,252,cs),
(141,4,l),
(191,4,l),
(191,201,l),
(264,201,ls),
(385,201,o),
(531,221,o),
(531,376,cs),
(531,498,o),
(429,547,o),
(323,550,cs),
(279,551,o),
(235,551,o),
(191,551,c),
(191,738,l)
);
},
{
closed = 1;
nodes = (
(430,101,o),
(404,124,o),
(363,124,cs),
(323,124,o),
(297,101,o),
(297,65,cs),
(297,29,o),
(323,6,o),
(363,6,cs),
(404,6,o),
(430,29,o),
(430,65,cs)
);
}
);
width = 576;
}
);
unicode = 42670;
},
{
glyphname = uniA6AF;
layers = (
{
anchors = (
{
name = b.uni07F2;
position = "{0, 0}";
},
{
name = m.uni07EB_1;
position = "{0, 0}";
},
{
name = m.uniA6F0_2;
position = "{412, 830}";
},
{
name = b.u16AF0_3;
position = "{0, 0}";
}
);
hints = (
{
horizontal = 1;
place = (0,21);
target = up;
type = BottomGhost;
},
{
horizontal = 1;
place = (404,118);
type = Stem;
},
{
place = (225,50);
type = Stem;
},
{
place = (392,133);
type = Stem;
}
);
layerId = "658C8605-6260-49C3-8AFC-BEEEFEF62072";
shapes = (
{
closed = 1;
nodes = (
(558,765,l),
(196,575,l),
(210,477,l),
(572,667,l)
);
},
{
closed = 1;
nodes = (
(525,499,o),
(499,522,o),
(458,522,cs),
(418,522,o),
(392,499,o),
(392,463,cs),
(392,427,o),
(418,404,o),
(458,404,cs),
(499,404,o),
(525,427,o),
(525,463,cs)
);
},
{
closed = 1;
nodes = (
(275,0,l),
(275,318,l),
(532,128,l),
(550,224,l),
(353,369,ls),
(351,370,o),
(260,442,o),
(250,442,cs),
(231,442,o),
(225,406,o),
(225,391,cs),
(225,0,l)
);
}
);
width = 630;
}
);
unicode = 42671;
},
{
glyphname = uniA6B0;
layers = (
{
anchors = (
{
name = b.uni07F2;
position = "{0, 0}";
},
{
name = m.uni07EB_1;
position = "{0, 0}";
},
{
name = m.uniA6F0_2;
position = "{364, 830}";
},
{
name = b.u16AF0_3;
position = "{0, 0}";
}
);
hints = (
{
horizontal = 1;
place = (0,21);
target = up;
type = BottomGhost;
},
{
horizontal = 1;
place = (751,-20);
target = down;
type = TopGhost;
},
{
place = (147,50);
type = Stem;
}
);
layerId = "658C8605-6260-49C3-8AFC-BEEEFEF62072";
shapes = (
{
closed = 1;
nodes = (
(197,0,l),
(197,280,l),
(609,451,ls),
(624,457,o),
(628,486,o),
(628,500,cs),
(628,518,o),
(624,539,o),
(609,549,cs),
(600,555,o),
(586,560,o),
(576,564,c),
(502,599,ls),
(415,640,o),
(328,680,o),
(241,720,c),
(236,723,o),
(175,751,o),
(172,751,cs),
(152,751,o),
(147,714,o),
(147,700,cs),
(147,0,l)
);
},
{
closed = 1;
nodes = (
(197,383,l),
(197,636,l),
(485,503,l)
);
}
);
width = 669;
}
);
unicode = 42672;
},
{
glyphname = uniA6B1;
layers = (
{
anchors = (
{
name = b.uni07F2;
position = "{0, 0}";
},
{
name = m.uni07EB_1;
position = "{0, 0}";
},
{
name = m.uniA6F0_2;
position = "{329, 830}";
},
{
name = b.u16AF0_3;
position = "{0, 0}";
}
);
hints = (
{
horizontal = 1;
place = (0,21);
target = up;
type = BottomGhost;
},
{
horizontal = 1;
place = (350,102);
type = Stem;
},
{
place = (147,50);
type = Stem;
}
);
layerId = "658C8605-6260-49C3-8AFC-BEEEFEF62072";
shapes = (
{
closed = 1;
nodes = (
(147,738,l),
(147,0,l),
(197,0,l),
(197,350,l),
(544,350,l),
(544,452,l),
(197,452,l),
(197,738,l)
);
}
);
width = 578;
}
);
unicode = 42673;
},
{
glyphname = uniA6B2;
layers = (
{
anchors = (
{
name = b.uni07F2;
position = "{0, 0}";
},
{
name = m.uni07EB_1;
position = "{0, 0}";
},
{
name = m.uniA6F0_2;
position = "{292, 830}";
},
{
name = b.u16AF0_3;
position = "{0, 0}";
}
);
hints = (
{
horizontal = 1;
place = (0,21);
target = up;
type = BottomGhost;
},
{
horizontal = 1;
place = (621,118);
type = Stem;
},
{
place = (225,133);
type = Stem;
},
{
place = (266,50);
type = Stem;
}
);
layerId = "658C8605-6260-49C3-8AFC-BEEEFEF62072";
shapes = (
{
closed = 1;
nodes = (
(30,707,l),
(264,275,l),
(265,275,o),
(265,274,o),
(266,273,c),
(266,0,l),
(316,0,l),
(316,272,l),
(561,707,l),
(527,781,l),
(291,363,l),
(64,781,l)
);
},
{
closed = 1;
nodes = (
(358,716,o),
(332,739,o),
(291,739,cs),
(251,739,o),
(225,716,o),
(225,680,cs),
(225,644,o),
(251,621,o),
(291,621,cs),
(332,621,o),
(358,644,o),
(358,680,cs)
);
}
);
width = 594;
}
);
unicode = 42674;
},
{
glyphname = uniA6B3;
layers = (
{
anchors = (
{
name = b.uni07F2;
position = "{0, 0}";
},
{
name = m.uni07EB_1;
position = "{0, 0}";
},
{
name = m.uniA6F0_2;
position = "{304, 830}";
},
{
name = b.u16AF0_3;
position = "{0, 0}";
}
);
hints = (
{
horizontal = 1;
place = (0,102);
type = Stem;
},
{
place = (125,50);
type = Stem;
},
{
place = (344,50);
type = Stem;
}
);
layerId = "658C8605-6260-49C3-8AFC-BEEEFEF62072";
shapes = (
{
closed = 1;
nodes = (
(125,744,l),
(125,51,ls),
(125,36,o),
(131,0,o),
(150,0,cs),
(522,0,l),
(522,102,l),
(175,102,l),
(175,744,l)
);
},
{
closed = 1;
nodes = (
(344,744,l),
(344,198,l),
(394,198,l),
(394,744,l)
);
}
);
width = 550;
}
);
unicode = 42675;
},
{
glyphname = uniA6B4;
layers = (
{
anchors = (
{
name = b.uni07F2;
position = "{0, 0}";
},
{
name = m.uni07EB_1;
position = "{0, 0}";
},
{
name = m.uniA6F0_2;
position = "{350, 830}";
},
{
name = b.u16AF0_3;
position = "{0, 0}";
}
);
hints = (
{
horizontal = 1;
place = (0,21);
target = up;
type = BottomGhost;
},
{
horizontal = 1;
place = (150,118);
type = Stem;
},
{
horizontal = 1;
place = (325,102);
type = Stem;
},
{
horizontal = 1;
place = (486,118);
type = Stem;
},
{
place = (521,133);
type = Stem;
}
);
layerId = "658C8605-6260-49C3-8AFC-BEEEFEF62072";
shapes = (
{
closed = 1;
nodes = (
(57,722,l),
(213,168,ls),
(220,143,o),
(250,26,o),
(259,12,cs),
(263,7,o),
(267,0,o),
(275,0,cs),
(283,0,o),
(287,7,o),
(291,12,cs),
(301,26,o),
(331,142,o),
(339,168,cs),
(386,325,l),
(703,325,l),
(703,427,l),
(416,427,l),
(503,722,l),
(459,772,l),
(276,152,l),
(101,772,l)
);
},
{
closed = 1;
nodes = (
(654,581,o),
(628,604,o),
(587,604,cs),
(547,604,o),
(521,581,o),
(521,545,cs),
(521,509,o),
(547,486,o),
(587,486,cs),
(628,486,o),
(654,509,o),
(654,545,cs)
);
},
{
closed = 1;
nodes = (
(654,245,o),
(628,268,o),
(587,268,cs),
(547,268,o),
(521,245,o),
(521,209,cs),
(521,173,o),
(547,150,o),
(587,150,cs),
(628,150,o),
(654,173,o),
(654,209,cs)
);
}
);
width = 726;
}
);
unicode = 42676;
},
{
glyphname = uniA6B5;
layers = (
{
anchors = (
{
name = b.uni07F2;
position = "{0, 0}";
},
{
name = m.uni07EB_1;
position = "{0, 0}";
},
{
name = m.uniA6F0_2;
position = "{347, 830}";
},
{
name = b.u16AF0_3;
position = "{0, 0}";
}
);
hints = (
{
horizontal = 1;
place = (0,21);
target = up;
type = BottomGhost;
},
{
horizontal = 1;
place = (238,101);
type = Stem;
},
{
place = (141,50);
type = Stem;
},
{
place = (322,50);
type = Stem;
},
{
place = (503,50);
type = Stem;
}
);
layerId = "658C8605-6260-49C3-8AFC-BEEEFEF62072";
shapes = (
{
closed = 1;
nodes = (
(141,744,l),
(141,500,ls),
(141,364,o),
(177,250,o),
(322,238,c),
(322,0,l),
(372,0,l),
(372,238,l),
(517,250,o),
(553,364,o),
(553,500,cs),
(553,744,l),
(503,744,l),
(503,664,o),
(503,585,o),
(503,505,cs),
(503,393,o),
(465,339,o),
(347,339,cs),
(219,339,o),
(191,401,o),
(191,518,cs),
(191,545,ls),
(191,549,o),
(191,554,o),
(191,558,cs),
(191,744,l)
);
}
);
width = 617;
}
);
unicode = 42677;
},
{
glyphname = uniA6B6;
layers = (
{
anchors = (
{
name = b.uni07F2;
position = "{0, 0}";
},
{
name = m.uni07EB_1;
position = "{0, 0}";
},
{
name = m.uniA6F0_2;
position = "{395, 830}";
},
{
name = b.u16AF0_3;
position = "{0, 0}";
}
);
hints = (
{
horizontal = 1;
place = (0,102);
type = Stem;
},
{
horizontal = 1;
place = (175,118);
type = Stem;
},
{
horizontal = 1;
place = (441,118);
type = Stem;
},
{
place = (128,50);
type = Stem;
},
{
place = (525,50);
type = Stem;
},
{
place = (635,133);
type = Stem;
}
);
layerId = "658C8605-6260-49C3-8AFC-BEEEFEF62072";
shapes = (
{
closed = 1;
nodes = (
(128,747,l),
(128,51,ls),
(128,36,o),
(134,0,o),
(153,0,cs),
(550,0,ls),
(570,0,o),
(575,36,o),
(575,51,cs),
(575,747,l),
(525,747,l),
(525,102,l),
(178,102,l),
(178,747,l)
);
},
{
closed = 1;
nodes = (
(768,536,o),
(742,559,o),
(701,559,cs),
(661,559,o),
(635,536,o),
(635,500,cs),
(635,464,o),
(661,441,o),
(701,441,cs),
(742,441,o),
(768,464,o),
(768,500,cs)
);
},
{
closed = 1;
nodes = (
(768,270,o),
(742,293,o),
(701,293,cs),
(661,293,o),
(635,270,o),
(635,234,cs),
(635,198,o),
(661,175,o),
(701,175,cs),
(742,175,o),
(768,198,o),
(768,234,cs)
);
}
);
width = 815;
}
);
unicode = 42678;
},
{
glyphname = uniA6B7;
layers = (
{
anchors = (
{
name = b.uni07F2;
position = "{0, 0}";
},
{
name = m.uni07EB_1;
position = "{0, 0}";
},
{
name = m.uniA6F0_2;
position = "{412, 830}";
},
{
name = b.u16AF0_3;
position = "{0, 0}";
}
);
hints = (
{
horizontal = 1;
place = (161,118);
type = Stem;
},
{
horizontal = 1;
place = (630,118);
type = Stem;
},
{
place = (389,133);
type = Stem;
},
{
place = (506,50);
type = Stem;
},
{
place = (623,133);
type = Stem;
}
);
layerId = "658C8605-6260-49C3-8AFC-BEEEFEF62072";
shapes = (
{
closed = 1;
nodes = (
(76,410,l),
(240,468,l),
(307,-13,l),
(355,13,l),
(290,485,l),
(506,562,l),
(506,387,ls),
(506,370,o),
(506,319,o),
(531,319,cs),
(534,319,o),
(536,320,o),
(539,322,cs),
(604,360,o),
(657,390,o),
(731,410,c),
(725,510,l),
(665,494,o),
(610,470,o),
(556,438,c),
(556,605,ls),
(556,622,o),
(556,673,o),
(531,673,cs),
(525,673,o),
(395,627,o),
(274,584,c),
(252,754,l),
(204,728,l),
(226,566,l),
(149,539,o),
(86,516,o),
(68,510,c)
);
},
{
closed = 1;
nodes = (
(756,725,o),
(730,748,o),
(689,748,cs),
(649,748,o),
(623,725,o),
(623,689,cs),
(623,653,o),
(649,630,o),
(689,630,cs),
(730,630,o),
(756,653,o),
(756,689,cs)
);
},
{
closed = 1;
nodes = (
(522,256,o),
(496,279,o),
(455,279,cs),
(415,279,o),
(389,256,o),
(389,220,cs),
(389,184,o),
(415,161,o),
(455,161,cs),
(496,161,o),
(522,184,o),
(522,220,cs)
);
}
);
width = 784;
}
);
unicode = 42679;
},
{
glyphname = uniA6B8;
layers = (
{
anchors = (
{
name = b.uni07F2;
position = "{0, 0}";
},
{
name = m.uni07EB_1;
position = "{0, 0}";
},
{
name = m.uniA6F0_2;
position = "{421, 830}";
},
{
name = b.u16AF0_3;
position = "{0, 0}";
}
);
hints = (
{
horizontal = 1;
place = (206,101);
type = Stem;
},
{
horizontal = 1;
place = (461,101);
type = Stem;
},
{
place = (118,50);
type = Stem;
},
{
place = (466,75);
type = Stem;
},
{
place = (720,50);
type = Stem;
}
);
layerId = "658C8605-6260-49C3-8AFC-BEEEFEF62072";
shapes = (
{
closed = 1;
nodes = (
(421,770,l),
(352,762,o),
(285,742,o),
(230,698,c),
(162,641,o),
(118,561,o),
(118,471,cs),
(118,389,o),
(154,304,o),
(222,257,cs),
(281,217,o),
(342,206,o),
(412,206,cs),
(456,206,o),
(500,214,o),
(543,223,c),
(539,323,l),
(497,315,o),
(454,307,o),
(412,307,cs),
(327,307,o),
(244,326,o),
(193,401,cs),
(175,427,o),
(169,446,o),
(169,477,c),
(186,596,o),
(315,658,o),
(423,668,c)
);
},
{
closed = 1;
nodes = (
(467,-2,l),
(536,6,o),
(603,26,o),
(658,70,c),
(726,127,o),
(770,207,o),
(770,297,cs),
(770,379,o),
(735,464,o),
(666,511,cs),
(607,551,o),
(547,562,o),
(477,562,cs),
(432,562,o),
(388,554,o),
(345,545,c),
(349,445,l),
(391,453,o),
(434,461,o),
(477,461,cs),
(561,461,o),
(644,442,o),
(695,367,cs),
(713,341,o),
(719,322,o),
(719,291,c),
(702,172,o),
(573,110,o),
(465,100,c)
);
}
);
width = 821;
}
);
unicode = 42680;
},
{
glyphname = uniA6B9;
layers = (
{
anchors = (
{
name = b.uni07F2;
position = "{0, 0}";
},
{
name = m.uni07EB_1;
position = "{0, 0}";
},
{
name = m.uniA6F0_2;
position = "{309, 830}";
},
{
name = b.u16AF0_3;
position = "{0, 0}";
}
);
hints = (
{
horizontal = 1;
place = (0,21);
target = up;
type = BottomGhost;
},
{
place = (128,50);
type = Stem;
}
);
layerId = "658C8605-6260-49C3-8AFC-BEEEFEF62072";
shapes = (
{
closed = 1;
nodes = (
(118,651,l),
(477,470,l),
(491,568,l),
(132,749,l)
);
},
{
closed = 1;
nodes = (
(128,569,l),
(128,0,l),
(178,0,l),
(178,569,l)
);
}
);
width = 504;
}
);
unicode = 42681;
},
{
glyphname = uniA6BA;
layers = (
{
anchors = (
{
name = b.uni07F2;
position = "{0, 0}";
},
{
name = m.uni07EB_1;
position = "{0, 0}";
},
{
name = m.uniA6F0_2;
position = "{393, 830}";
},
{
name = b.u16AF0_3;
position = "{0, 0}";
}
);
hints = (
{
horizontal = 1;
place = (0,102);
type = Stem;
},
{
horizontal = 1;
place = (192,98);
type = Stem;
},
{
horizontal = 1;
place = (463,98);
type = Stem;
},
{
horizontal = 1;
place = (570,118);
type = Stem;
},
{
horizontal = 1;
place = (649,102);
type = Stem;
},
{
place = (152,50);
type = Stem;
},
{
place = (462,50);
type = Stem;
},
{
place = (519,133);
type = Stem;
}
);
layerId = "658C8605-6260-49C3-8AFC-BEEEFEF62072";
shapes = (
{
closed = 1;
nodes = (
(162,0,l),
(386,4,o),
(512,159,o),
(512,376,cs),
(512,599,o),
(381,746,o),
(162,751,c),
(162,649,l),
(248,648,o),
(329,625,o),
(390,561,c),
(275,552,o),
(152,516,o),
(152,377,cs),
(152,236,o),
(276,201,o),
(392,192,c),
(331,126,o),
(249,103,o),
(162,102,c)
);
},
{
closed = 1;
nodes = (
(652,665,o),
(626,688,o),
(585,688,cs),
(545,688,o),
(519,665,o),
(519,629,cs),
(519,593,o),
(545,570,o),
(585,570,cs),
(626,570,o),
(652,593,o),
(652,629,cs)
);
},
{
closed = 1;
nodes = (
(375,292,o),
(269,300,o),
(218,351,cs),
(213,356,o),
(202,369,o),
(202,377,cs),
(202,384,o),
(213,397,o),
(218,402,cs),
(269,453,o),
(375,461,o),
(449,463,c),
(457,436,o),
(462,407,o),
(462,376,cs),
(462,346,o),
(457,317,o),
(449,290,c)
);
}
);
width = 687;
}
);
unicode = 42682;
},
{
glyphname = uniA6BB;
layers = (
{
anchors = (
{
name = b.uni07F2;
position = "{0, 0}";
},
{
name = m.uni07EB_1;
position = "{0, 0}";
},
{
name = m.uniA6F0_2;
position = "{331, 830}";
},
{
name = b.u16AF0_3;
position = "{0, 0}";
}
);
hints = (
{
horizontal = 1;
place = (0,21);
target = up;
type = BottomGhost;
},
{
horizontal = 1;
place = (256,102);
type = Stem;
},
{
horizontal = 1;
place = (484,102);
type = Stem;
},
{
horizontal = 1;
place = (616,118);
type = Stem;
},
{
place = (20,133);
type = Stem;
},
{
place = (147,50);
type = Stem;
},
{
place = (416,50);
type = Stem;
}
);
layerId = "658C8605-6260-49C3-8AFC-BEEEFEF62072";
shapes = (
{
closed = 1;
nodes = (
(153,711,o),
(127,734,o),
(86,734,cs),
(46,734,o),
(20,711,o),
(20,675,cs),
(20,639,o),
(46,616,o),
(86,616,cs),
(127,616,o),
(153,639,o),
(153,675,cs)
);
},
{
closed = 1;
nodes = (
(615,358,l),
(466,358,l),
(466,519,ls),
(466,536,o),
(466,586,o),
(441,586,cs),
(172,586,ls),
(153,586,o),
(147,550,o),
(147,535,cs),
(147,0,l),
(197,0,l),
(197,484,l),
(416,484,l),
(416,323,ls),
(416,306,o),
(416,256,o),
(441,256,cs),
(615,256,l)
);
}
);
width = 649;
}
);
unicode = 42683;
},
{
glyphname = uniA6BC;
layers = (
{
anchors = (
{
name = b.uni07F2;
position = "{0, 0}";
},
{
name = m.uni07EB_1;
position = "{0, 0}";
},
{
name = m.uniA6F0_2;
position = "{321, 830}";
},
{
name = b.u16AF0_3;
position = "{0, 0}";
}
);
hints = (
{
horizontal = 1;
place = (-8,118);
type = Stem;
},
{
horizontal = 1;
place = (638,118);
type = Stem;
},
{
place = (192,133);
type = Stem;
}
);
layerId = "658C8605-6260-49C3-8AFC-BEEEFEF62072";
shapes = (
{
closed = 1;
nodes = (
(325,733,o),
(299,756,o),
(258,756,cs),
(218,756,o),
(192,733,o),
(192,697,cs),
(192,661,o),
(218,638,o),
(258,638,cs),
(299,638,o),
(325,661,o),
(325,697,cs)
);
},
{
closed = 1;
nodes = (
(95,536,l),
(486,378,l),
(95,216,l),
(106,118,l),
(618,330,ls),
(633,336,o),
(637,364,o),
(637,379,cs),
(637,393,o),
(633,422,o),
(618,428,cs),
(106,634,l)
);
},
{
closed = 1;
nodes = (
(325,87,o),
(299,110,o),
(258,110,cs),
(218,110,o),
(192,87,o),
(192,51,cs),
(192,15,o),
(218,-8,o),
(258,-8,cs),
(299,-8,o),
(325,15,o),
(325,51,cs)
);
}
);
width = 671;
}
);
unicode = 42684;
},
{
glyphname = uniA6BD;
layers = (
{
anchors = (
{
name = b.uni07F2;
position = "{0, 0}";
},
{
name = m.uni07EB_1;
position = "{0, 0}";
},
{
name = m.uniA6F0_2;
position = "{375, 830}";
},
{
name = b.u16AF0_3;
position = "{0, 0}";
}
);
hints = (
{
horizontal = 1;
place = (-1,101);
type = Stem;
},
{
horizontal = 1;
place = (449,102);
type = Stem;
},
{
place = (101,51);
type = Stem;
},
{
place = (542,51);
type = Stem;
}
);
layerId = "658C8605-6260-49C3-8AFC-BEEEFEF62072";
shapes = (
{
closed = 1;
nodes = (
(375,775,l),
(247,489,ls),
(242,477,o),
(236,466,o),
(232,453,cs),
(229,444,o),
(228,435,o),
(228,426,cs),
(228,412,o),
(233,375,o),
(253,375,cs),
(256,375,o),
(259,377,o),
(262,378,c),
(272,386,o),
(281,396,o),
(291,404,cs),
(323,428,o),
(375,449,o),
(416,449,cs),
(479,449,o),
(542,382,o),
(542,320,cs),
(542,296,o),
(535,272,o),
(525,250,cs),
(486,162,o),
(389,100,o),
(292,100,cs),
(216,100,o),
(152,142,o),
(152,224,cs),
(152,252,o),
(158,280,o),
(166,307,c),
(122,357,l),
(110,314,o),
(101,270,o),
(101,225,cs),
(101,104,o),
(159,-1,o),
(292,-1,cs),
(463,-1,o),
(593,154,o),
(593,319,cs),
(593,400,o),
(562,479,o),
(493,525,cs),
(470,540,o),
(444,551,o),
(416,551,cs),
(388,551,o),
(360,543,o),
(335,532,c),
(413,707,l)
);
}
);
width = 630;
}
);
unicode = 42685;
},
{
glyphname = uniA6BE;
layers = (
{
anchors = (
{
name = b.uni07F2;
position = "{0, 0}";
},
{
name = m.uni07EB_1;
position = "{0, 0}";
},
{
name = m.uniA6F0_2;
position = "{414, 830}";
},
{
name = b.u16AF0_3;
position = "{0, 0}";
}
);
hints = (
{
horizontal = 1;
place = (0,21);
target = up;
type = BottomGhost;
},
{
horizontal = 1;
place = (340,102);
type = Stem;
},
{
place = (172,50);
type = Stem;
},
{
place = (415,50);
type = Stem;
},
{
place = (659,50);
type = Stem;
}
);
layerId = "658C8605-6260-49C3-8AFC-BEEEFEF62072";
shapes = (
{
closed = 1;
nodes = (
(172,744,l),
(172,391,ls),
(172,376,o),
(178,340,o),
(197,340,cs),
(415,340,l),
(415,0,l),
(465,0,l),
(465,340,l),
(659,340,l),
(659,0,l),
(709,0,l),
(709,391,ls),
(709,406,o),
(704,442,o),
(684,442,cs),
(465,442,l),
(465,744,l),
(415,744,l),
(415,442,l),
(222,442,l),
(222,744,l)
);
}
);
width = 778;
}
);
unicode = 42686;
},
